<svg xmlns="http://www.w3.org/2000/svg" xmlns:xlink="http://www.w3.org/1999/xlink" width="200" zoomAndPan="magnify" viewBox="0 0 150 74.999997" height="100" preserveAspectRatio="xMidYMid meet" version="1.0"><defs><g/></defs><g fill="#ff0000" fill-opacity="1"><g transform="translate(5.44128, 34.977396)"><g><path d="M 3.375 1.578125 C 2.40625 1.578125 1.65625 1.207031 1.125 0.46875 C 0.601562 -0.257812 0.34375 -1.097656 0.34375 -2.046875 C 0.34375 -2.660156 0.453125 -3.269531 0.671875 -3.875 C 0.898438 -4.488281 1.234375 -5.03125 1.671875 -5.5 C 2.328125 -6.175781 3.046875 -6.722656 3.828125 -7.140625 C 4.609375 -7.566406 5.410156 -7.929688 6.234375 -8.234375 C 7.066406 -8.535156 7.882812 -8.847656 8.6875 -9.171875 C 8.863281 -9.234375 8.960938 -9.335938 8.984375 -9.484375 C 9.398438 -10.660156 9.78125 -11.851562 10.125 -13.0625 C 10.476562 -14.28125 10.78125 -15.488281 11.03125 -16.6875 C 11.070312 -16.8125 11.054688 -16.898438 10.984375 -16.953125 C 10.910156 -17.003906 10.820312 -17 10.71875 -16.9375 C 10.289062 -16.769531 9.742188 -16.566406 9.078125 -16.328125 C 8.421875 -16.085938 7.707031 -15.875 6.9375 -15.6875 C 6.164062 -15.507812 5.390625 -15.421875 4.609375 -15.421875 C 3.878906 -15.421875 3.226562 -15.523438 2.65625 -15.734375 C 2.226562 -15.910156 2.015625 -16.21875 2.015625 -16.65625 C 2.015625 -16.84375 2.078125 -17.054688 2.203125 -17.296875 C 2.335938 -17.546875 2.5625 -17.671875 2.875 -17.671875 C 3.84375 -17.648438 4.816406 -17.6875 5.796875 -17.78125 C 6.773438 -17.875 7.664062 -18.085938 8.46875 -18.421875 C 9.375 -18.765625 10.28125 -19.238281 11.1875 -19.84375 C 11.4375 -20.0625 11.675781 -20.234375 11.90625 -20.359375 C 12.144531 -20.484375 12.359375 -20.546875 12.546875 -20.546875 C 12.796875 -20.546875 13.082031 -20.453125 13.40625 -20.265625 C 13.738281 -20.078125 13.875 -19.738281 13.8125 -19.25 C 13.601562 -17.644531 13.296875 -16.179688 12.890625 -14.859375 C 12.492188 -13.546875 12.117188 -12.207031 11.765625 -10.84375 C 11.722656 -10.71875 11.734375 -10.628906 11.796875 -10.578125 C 11.859375 -10.523438 11.953125 -10.519531 12.078125 -10.5625 C 12.898438 -10.832031 13.628906 -11.101562 14.265625 -11.375 C 14.910156 -11.65625 15.570312 -11.984375 16.25 -12.359375 C 16.925781 -12.734375 17.679688 -13.195312 18.515625 -13.75 C 18.628906 -13.789062 18.726562 -13.875 18.8125 -14 C 19.0625 -14.363281 19.296875 -14.859375 19.515625 -15.484375 C 19.734375 -16.117188 19.984375 -16.757812 20.265625 -17.40625 C 20.554688 -18.0625 20.898438 -18.617188 21.296875 -19.078125 C 21.703125 -19.546875 22.203125 -19.78125 22.796875 -19.78125 C 23.148438 -19.78125 23.476562 -19.65625 23.78125 -19.40625 C 24.09375 -19.15625 24.25 -18.753906 24.25 -18.203125 C 24.25 -17.847656 24.15625 -17.425781 23.96875 -16.9375 C 23.789062 -16.457031 23.492188 -15.910156 23.078125 -15.296875 C 22.847656 -14.878906 22.570312 -14.515625 22.25 -14.203125 C 21.9375 -13.898438 21.632812 -13.597656 21.34375 -13.296875 C 21.0625 -13.003906 20.816406 -12.640625 20.609375 -12.203125 C 20.484375 -11.890625 20.3125 -11.414062 20.09375 -10.78125 C 19.882812 -10.144531 19.664062 -9.429688 19.4375 -8.640625 C 19.207031 -7.847656 19.019531 -7.046875 18.875 -6.234375 C 18.726562 -5.429688 18.65625 -4.703125 18.65625 -4.046875 C 18.65625 -3.492188 18.773438 -2.945312 19.015625 -2.40625 C 19.253906 -1.875 19.617188 -1.609375 20.109375 -1.609375 C 20.878906 -1.609375 21.597656 -1.898438 22.265625 -2.484375 C 22.929688 -3.078125 23.5625 -3.820312 24.15625 -4.71875 C 24.757812 -5.613281 25.359375 -6.492188 25.953125 -7.359375 C 26.179688 -7.703125 26.425781 -7.875 26.6875 -7.875 C 26.957031 -7.875 27.1875 -7.757812 27.375 -7.53125 C 27.5625 -7.3125 27.679688 -7.039062 27.734375 -6.71875 C 27.785156 -6.394531 27.707031 -6.070312 27.5 -5.75 C 26.507812 -4.21875 25.617188 -2.972656 24.828125 -2.015625 C 24.035156 -1.066406 23.257812 -0.382812 22.5 0.03125 C 21.75 0.445312 20.910156 0.65625 19.984375 0.65625 C 18.796875 0.65625 17.910156 0.21875 17.328125 -0.65625 C 16.753906 -1.539062 16.46875 -2.703125 16.46875 -4.140625 C 16.46875 -4.921875 16.550781 -5.800781 16.71875 -6.78125 C 16.882812 -7.757812 17.148438 -8.828125 17.515625 -9.984375 C 17.597656 -10.328125 17.492188 -10.421875 17.203125 -10.265625 C 16.097656 -9.679688 15.035156 -9.21875 14.015625 -8.875 C 12.992188 -8.539062 11.988281 -8.164062 11 -7.75 C 10.851562 -7.6875 10.75 -7.585938 10.6875 -7.453125 C 10.300781 -6.523438 9.894531 -5.535156 9.46875 -4.484375 C 9.050781 -3.429688 8.566406 -2.445312 8.015625 -1.53125 C 7.472656 -0.613281 6.828125 0.128906 6.078125 0.703125 C 5.335938 1.285156 4.4375 1.578125 3.375 1.578125 Z M 3.703125 -0.65625 C 4.117188 -0.65625 4.539062 -0.851562 4.96875 -1.25 C 5.40625 -1.65625 5.8125 -2.160156 6.1875 -2.765625 C 6.570312 -3.367188 6.910156 -3.976562 7.203125 -4.59375 C 7.503906 -5.21875 7.726562 -5.753906 7.875 -6.203125 C 7.914062 -6.328125 7.90625 -6.421875 7.84375 -6.484375 C 7.78125 -6.546875 7.679688 -6.546875 7.546875 -6.484375 C 7.046875 -6.265625 6.503906 -6.015625 5.921875 -5.734375 C 5.347656 -5.453125 4.800781 -5.132812 4.28125 -4.78125 C 3.769531 -4.4375 3.347656 -4.054688 3.015625 -3.640625 C 2.691406 -3.234375 2.53125 -2.78125 2.53125 -2.28125 C 2.53125 -2 2.609375 -1.65625 2.765625 -1.25 C 2.921875 -0.851562 3.234375 -0.65625 3.703125 -0.65625 Z M 3.703125 -0.65625 "/></g></g></g><g fill="#ff0000" fill-opacity="1"><g transform="translate(31.989934, 34.977396)"><g><path d="M 8.65625 0.59375 C 7.988281 0.59375 7.4375 0.421875 7 0.078125 C 6.570312 -0.265625 6.242188 -0.675781 6.015625 -1.15625 C 5.796875 -1.644531 5.65625 -2.101562 5.59375 -2.53125 C 5.570312 -2.757812 5.46875 -2.78125 5.28125 -2.59375 C 4.582031 -1.726562 3.914062 -1.15625 3.28125 -0.875 C 2.65625 -0.601562 2.097656 -0.46875 1.609375 -0.46875 C 0.679688 -0.46875 -0.0859375 -0.773438 -0.703125 -1.390625 C -1.328125 -2.003906 -1.640625 -2.765625 -1.640625 -3.671875 C -1.640625 -4.617188 -1.445312 -5.550781 -1.0625 -6.46875 C -0.6875 -7.382812 -0.175781 -8.207031 0.46875 -8.9375 C 1.125 -9.675781 1.859375 -10.265625 2.671875 -10.703125 C 3.484375 -11.148438 4.332031 -11.375 5.21875 -11.375 C 5.53125 -11.375 5.867188 -11.34375 6.234375 -11.28125 C 6.609375 -11.21875 6.929688 -11.101562 7.203125 -10.9375 C 7.410156 -10.832031 7.5625 -10.875 7.65625 -11.0625 C 7.988281 -11.65625 8.285156 -12.050781 8.546875 -12.25 C 8.816406 -12.445312 9.054688 -12.546875 9.265625 -12.546875 C 9.515625 -12.546875 9.753906 -12.460938 9.984375 -12.296875 C 10.222656 -12.128906 10.390625 -11.898438 10.484375 -11.609375 C 10.578125 -11.328125 10.53125 -11.019531 10.34375 -10.6875 C 9.914062 -9.882812 9.5 -9.046875 9.09375 -8.171875 C 8.695312 -7.296875 8.375 -6.453125 8.125 -5.640625 C 7.875 -4.828125 7.75 -4.109375 7.75 -3.484375 C 7.75 -2.972656 7.851562 -2.546875 8.0625 -2.203125 C 8.269531 -1.867188 8.550781 -1.703125 8.90625 -1.703125 C 9.4375 -1.703125 9.992188 -1.96875 10.578125 -2.5 C 11.171875 -3.039062 11.78125 -3.710938 12.40625 -4.515625 C 13.03125 -5.316406 13.644531 -6.117188 14.25 -6.921875 C 14.507812 -7.253906 14.789062 -7.453125 15.09375 -7.515625 C 15.394531 -7.585938 15.664062 -7.546875 15.90625 -7.390625 C 16.15625 -7.242188 16.304688 -7.023438 16.359375 -6.734375 C 16.410156 -6.441406 16.3125 -6.101562 16.0625 -5.71875 C 14.769531 -3.84375 13.535156 -2.320312 12.359375 -1.15625 C 11.179688 0.0078125 9.945312 0.59375 8.65625 0.59375 Z M 1.953125 -2.65625 C 2.460938 -2.65625 2.953125 -2.882812 3.421875 -3.34375 C 3.898438 -3.8125 4.34375 -4.375 4.75 -5.03125 C 5.164062 -5.695312 5.519531 -6.347656 5.8125 -6.984375 C 6.113281 -7.617188 6.328125 -8.113281 6.453125 -8.46875 C 6.535156 -8.65625 6.484375 -8.789062 6.296875 -8.875 C 6.078125 -8.988281 5.847656 -9.070312 5.609375 -9.125 C 5.367188 -9.175781 5.15625 -9.203125 4.96875 -9.203125 C 4.4375 -9.203125 3.910156 -9.007812 3.390625 -8.625 C 2.878906 -8.25 2.421875 -7.773438 2.015625 -7.203125 C 1.617188 -6.640625 1.320312 -6.050781 1.125 -5.4375 C 0.925781 -4.820312 0.859375 -4.285156 0.921875 -3.828125 C 0.984375 -3.398438 1.109375 -3.097656 1.296875 -2.921875 C 1.484375 -2.742188 1.703125 -2.65625 1.953125 -2.65625 Z M 1.953125 -2.65625 "/></g></g></g><g fill="#ff0000" fill-opacity="1"><g transform="translate(47.097382, 34.977396)"><g><path d="M 3.734375 1.265625 C 3.140625 1.265625 2.554688 1.148438 1.984375 0.921875 C 1.421875 0.703125 0.96875 0.40625 0.625 0.03125 C 0.289062 -0.382812 0.0703125 -0.757812 -0.03125 -1.09375 C -0.132812 -1.4375 -0.1875 -1.742188 -0.1875 -2.015625 C -0.1875 -2.753906 0.0820312 -3.359375 0.625 -3.828125 C 1.175781 -4.304688 1.875 -4.546875 2.71875 -4.546875 C 3.332031 -4.546875 3.910156 -4.492188 4.453125 -4.390625 C 5.003906 -4.285156 5.539062 -4.171875 6.0625 -4.046875 C 6.300781 -4.003906 6.429688 -4.085938 6.453125 -4.296875 C 6.472656 -4.398438 6.484375 -4.503906 6.484375 -4.609375 C 6.484375 -4.710938 6.484375 -4.820312 6.484375 -4.9375 C 6.484375 -5.5625 6.382812 -6.273438 6.1875 -7.078125 C 6 -7.878906 5.785156 -8.65625 5.546875 -9.40625 C 5.304688 -10.15625 5.113281 -10.738281 4.96875 -11.15625 C 4.925781 -11.28125 4.859375 -11.347656 4.765625 -11.359375 C 4.679688 -11.367188 4.609375 -11.320312 4.546875 -11.21875 C 4.046875 -10.4375 3.503906 -9.597656 2.921875 -8.703125 C 2.335938 -7.804688 1.679688 -6.8125 0.953125 -5.71875 C 0.804688 -5.507812 0.65625 -5.34375 0.5 -5.21875 C 0.351562 -5.09375 0.175781 -5.019531 -0.03125 -5 C -0.445312 -4.976562 -0.738281 -5.085938 -0.90625 -5.328125 C -1.082031 -5.566406 -1.15625 -5.84375 -1.125 -6.15625 C -1.09375 -6.476562 -1.015625 -6.734375 -0.890625 -6.921875 C 0.078125 -8.316406 0.875 -9.484375 1.5 -10.421875 C 2.125 -11.359375 2.625 -12.128906 3 -12.734375 C 3.382812 -13.347656 3.671875 -13.84375 3.859375 -14.21875 C 4.253906 -15.039062 4.597656 -15.601562 4.890625 -15.90625 C 5.191406 -16.21875 5.519531 -16.375 5.875 -16.375 C 6.488281 -16.375 6.898438 -16.234375 7.109375 -15.953125 C 7.316406 -15.679688 7.421875 -15.421875 7.421875 -15.171875 C 7.421875 -14.835938 7.304688 -14.503906 7.078125 -14.171875 C 6.847656 -13.847656 6.679688 -13.582031 6.578125 -13.375 C 6.554688 -13.25 6.566406 -13.117188 6.609375 -12.984375 C 7.066406 -11.617188 7.507812 -10.238281 7.9375 -8.84375 C 8.375 -7.457031 8.59375 -6.035156 8.59375 -4.578125 C 8.59375 -4.472656 8.59375 -4.375 8.59375 -4.28125 C 8.59375 -4.1875 8.59375 -4.085938 8.59375 -3.984375 C 8.550781 -3.753906 8.613281 -3.640625 8.78125 -3.640625 C 8.84375 -3.617188 8.929688 -3.609375 9.046875 -3.609375 C 9.972656 -3.609375 10.8125 -3.945312 11.5625 -4.625 C 12.320312 -5.3125 13 -6.078125 13.59375 -6.921875 C 14.09375 -7.597656 14.609375 -7.9375 15.140625 -7.9375 C 15.390625 -7.9375 15.597656 -7.84375 15.765625 -7.65625 C 15.941406 -7.476562 16.03125 -7.285156 16.03125 -7.078125 C 16.03125 -6.890625 15.96875 -6.675781 15.84375 -6.4375 C 15.726562 -6.207031 15.578125 -5.96875 15.390625 -5.71875 C 14.421875 -4.332031 13.335938 -3.28125 12.140625 -2.5625 C 10.941406 -1.84375 9.59375 -1.472656 8.09375 -1.453125 C 7.945312 -1.453125 7.8125 -1.359375 7.6875 -1.171875 C 7.21875 -0.367188 6.628906 0.234375 5.921875 0.640625 C 5.222656 1.054688 4.492188 1.265625 3.734375 1.265625 Z M 3.734375 -0.859375 C 4.003906 -0.859375 4.269531 -0.910156 4.53125 -1.015625 C 4.800781 -1.117188 5.050781 -1.304688 5.28125 -1.578125 C 5.382812 -1.679688 5.414062 -1.773438 5.375 -1.859375 C 5.332031 -1.941406 5.25 -1.992188 5.125 -2.015625 C 4.71875 -2.109375 4.304688 -2.207031 3.890625 -2.3125 C 3.484375 -2.414062 3.070312 -2.476562 2.65625 -2.5 C 2.382812 -2.519531 2.1875 -2.472656 2.0625 -2.359375 C 1.945312 -2.242188 1.890625 -2.117188 1.890625 -1.984375 C 1.890625 -1.753906 2.070312 -1.507812 2.4375 -1.25 C 2.8125 -0.988281 3.242188 -0.859375 3.734375 -0.859375 Z M 3.734375 -0.859375 "/></g></g></g><g fill="#ff0000" fill-opacity="1"><g transform="translate(61.541118, 34.977396)"><g><path d="M 20.171875 -7.625 C 20.546875 -7.625 20.800781 -7.5 20.9375 -7.25 C 21.070312 -7.007812 21.125 -6.734375 21.09375 -6.421875 C 21.0625 -6.117188 20.992188 -5.882812 20.890625 -5.71875 C 20.191406 -4.644531 19.429688 -3.597656 18.609375 -2.578125 C 17.796875 -1.554688 16.929688 -0.707031 16.015625 -0.03125 C 15.097656 0.644531 14.125 0.984375 13.09375 0.984375 C 12.113281 0.984375 11.300781 0.660156 10.65625 0.015625 C 10.019531 -0.628906 9.703125 -1.476562 9.703125 -2.53125 C 9.703125 -3.457031 9.816406 -4.359375 10.046875 -5.234375 C 10.285156 -6.109375 10.40625 -7.03125 10.40625 -8 C 10.40625 -8.4375 10.332031 -8.789062 10.1875 -9.0625 C 10.050781 -9.34375 9.753906 -9.484375 9.296875 -9.484375 C 8.828125 -9.484375 8.335938 -9.328125 7.828125 -9.015625 C 7.328125 -8.710938 6.835938 -8.335938 6.359375 -7.890625 C 5.890625 -7.453125 5.472656 -7.019531 5.109375 -6.59375 C 4.753906 -6.175781 4.492188 -5.851562 4.328125 -5.625 C 4.304688 -5.5625 4.285156 -5.503906 4.265625 -5.453125 C 4.242188 -5.398438 4.210938 -5.34375 4.171875 -5.28125 C 4.003906 -4.5625 3.875 -3.910156 3.78125 -3.328125 C 3.6875 -2.753906 3.597656 -2.140625 3.515625 -1.484375 C 3.492188 -0.765625 3.351562 -0.238281 3.09375 0.09375 C 2.84375 0.425781 2.5625 0.59375 2.25 0.59375 C 1.882812 0.59375 1.566406 0.457031 1.296875 0.1875 C 1.191406 0.0625 1.125 -0.0546875 1.09375 -0.171875 C 1.0625 -0.285156 1.046875 -0.414062 1.046875 -0.5625 C 1.085938 -1.488281 1.207031 -2.410156 1.40625 -3.328125 C 1.601562 -4.242188 1.84375 -5.390625 2.125 -6.765625 C 2.164062 -6.929688 2.140625 -7.03125 2.046875 -7.0625 C 1.960938 -7.09375 1.878906 -7.046875 1.796875 -6.921875 C 1.398438 -6.367188 1.117188 -5.96875 0.953125 -5.71875 C 0.734375 -5.382812 0.460938 -5.1875 0.140625 -5.125 C -0.179688 -5.0625 -0.46875 -5.097656 -0.71875 -5.234375 C -0.976562 -5.367188 -1.140625 -5.582031 -1.203125 -5.875 C -1.265625 -6.175781 -1.148438 -6.523438 -0.859375 -6.921875 C -0.265625 -7.722656 0.4375 -8.691406 1.25 -9.828125 C 2.0625 -10.960938 2.890625 -12.207031 3.734375 -13.5625 C 3.796875 -13.664062 3.835938 -13.78125 3.859375 -13.90625 C 4.003906 -14.582031 4.21875 -15.351562 4.5 -16.21875 C 4.789062 -17.082031 5.144531 -17.957031 5.5625 -18.84375 C 5.988281 -19.726562 6.46875 -20.539062 7 -21.28125 C 7.539062 -22.03125 8.144531 -22.632812 8.8125 -23.09375 C 9.488281 -23.5625 10.226562 -23.796875 11.03125 -23.796875 C 11.894531 -23.796875 12.535156 -23.492188 12.953125 -22.890625 C 13.378906 -22.296875 13.59375 -21.585938 13.59375 -20.765625 C 13.59375 -19.691406 13.226562 -18.640625 12.5 -17.609375 C 11.769531 -16.578125 10.828125 -15.578125 9.671875 -14.609375 C 8.515625 -13.640625 7.269531 -12.710938 5.9375 -11.828125 C 5.8125 -11.710938 5.71875 -11.601562 5.65625 -11.5 C 5.507812 -11.019531 5.40625 -10.566406 5.34375 -10.140625 C 5.320312 -9.992188 5.347656 -9.90625 5.421875 -9.875 C 5.492188 -9.84375 5.59375 -9.867188 5.71875 -9.953125 C 6.539062 -10.628906 7.238281 -11.082031 7.8125 -11.3125 C 8.394531 -11.539062 8.972656 -11.65625 9.546875 -11.65625 C 10.285156 -11.65625 10.882812 -11.472656 11.34375 -11.109375 C 11.8125 -10.742188 12.148438 -10.28125 12.359375 -9.71875 C 12.566406 -9.15625 12.671875 -8.570312 12.671875 -7.96875 C 12.671875 -6.875 12.570312 -5.851562 12.375 -4.90625 C 12.175781 -3.957031 12.078125 -3.113281 12.078125 -2.375 C 12.078125 -1.96875 12.203125 -1.6875 12.453125 -1.53125 C 12.703125 -1.375 12.957031 -1.296875 13.21875 -1.296875 C 13.695312 -1.296875 14.210938 -1.492188 14.765625 -1.890625 C 15.328125 -2.296875 15.882812 -2.800781 16.4375 -3.40625 C 16.988281 -4.019531 17.488281 -4.644531 17.9375 -5.28125 C 18.394531 -5.914062 18.769531 -6.460938 19.0625 -6.921875 C 19.226562 -7.191406 19.40625 -7.375 19.59375 -7.46875 C 19.78125 -7.570312 19.972656 -7.625 20.171875 -7.625 Z M 10.75 -21.59375 C 10.257812 -21.59375 9.742188 -21.273438 9.203125 -20.640625 C 8.671875 -20.003906 8.171875 -19.203125 7.703125 -18.234375 C 7.242188 -17.265625 6.867188 -16.273438 6.578125 -15.265625 C 6.535156 -15.117188 6.550781 -15.019531 6.625 -14.96875 C 6.695312 -14.914062 6.796875 -14.929688 6.921875 -15.015625 C 7.722656 -15.609375 8.457031 -16.234375 9.125 -16.890625 C 9.800781 -17.554688 10.351562 -18.210938 10.78125 -18.859375 C 11.21875 -19.515625 11.445312 -20.085938 11.46875 -20.578125 C 11.488281 -20.992188 11.410156 -21.265625 11.234375 -21.390625 C 11.054688 -21.523438 10.894531 -21.59375 10.75 -21.59375 Z M 10.75 -21.59375 "/></g></g></g><g fill="#ff0000" fill-opacity="1"><g transform="translate(81.452611, 34.977396)"><g><path d="M 2.84375 0.4375 C 2.488281 0.4375 2.191406 0.289062 1.953125 0 C 1.804688 -0.144531 1.734375 -0.351562 1.734375 -0.625 C 1.734375 -0.945312 1.796875 -1.289062 1.921875 -1.65625 C 2.054688 -2.03125 2.191406 -2.382812 2.328125 -2.71875 C 2.460938 -3.050781 2.5625 -3.296875 2.625 -3.453125 C 3.039062 -4.566406 3.394531 -5.617188 3.6875 -6.609375 C 3.988281 -7.597656 4.210938 -8.472656 4.359375 -9.234375 C 4.441406 -9.671875 4.429688 -9.984375 4.328125 -10.171875 C 4.222656 -10.367188 3.953125 -10.160156 3.515625 -9.546875 C 3.023438 -8.890625 2.578125 -8.253906 2.171875 -7.640625 C 1.773438 -7.035156 1.367188 -6.394531 0.953125 -5.71875 C 0.710938 -5.34375 0.4375 -5.117188 0.125 -5.046875 C -0.1875 -4.972656 -0.460938 -5.007812 -0.703125 -5.15625 C -0.953125 -5.300781 -1.101562 -5.53125 -1.15625 -5.84375 C -1.207031 -6.164062 -1.097656 -6.523438 -0.828125 -6.921875 C -0.148438 -7.929688 0.390625 -8.738281 0.796875 -9.34375 C 1.210938 -9.957031 1.566406 -10.46875 1.859375 -10.875 C 2.160156 -11.289062 2.476562 -11.691406 2.8125 -12.078125 C 3.300781 -12.640625 3.710938 -12.976562 4.046875 -13.09375 C 4.378906 -13.21875 4.6875 -13.28125 4.96875 -13.28125 C 5.382812 -13.28125 5.75 -13.140625 6.0625 -12.859375 C 6.382812 -12.585938 6.609375 -12.1875 6.734375 -11.65625 C 6.773438 -11.550781 6.796875 -11.453125 6.796875 -11.359375 C 6.796875 -11.265625 6.796875 -11.164062 6.796875 -11.0625 C 6.796875 -10.851562 6.796875 -10.648438 6.796875 -10.453125 C 6.796875 -10.265625 6.773438 -10.078125 6.734375 -9.890625 C 6.710938 -9.742188 6.742188 -9.65625 6.828125 -9.625 C 6.910156 -9.59375 6.992188 -9.628906 7.078125 -9.734375 C 7.753906 -10.410156 8.40625 -10.90625 9.03125 -11.21875 C 9.664062 -11.539062 10.25 -11.703125 10.78125 -11.703125 C 11.394531 -11.703125 11.929688 -11.5 12.390625 -11.09375 C 12.859375 -10.695312 13.21875 -10.160156 13.46875 -9.484375 C 13.570312 -9.234375 13.707031 -9.210938 13.875 -9.421875 C 14.71875 -10.492188 15.535156 -11.300781 16.328125 -11.84375 C 17.117188 -12.394531 17.835938 -12.671875 18.484375 -12.671875 C 19.410156 -12.671875 20.097656 -12.394531 20.546875 -11.84375 C 21.003906 -11.300781 21.234375 -10.554688 21.234375 -9.609375 C 21.234375 -8.867188 21.160156 -8.113281 21.015625 -7.34375 C 20.867188 -6.582031 20.722656 -5.875 20.578125 -5.21875 C 20.429688 -4.5625 20.347656 -4.023438 20.328125 -3.609375 C 20.304688 -3.203125 20.398438 -2.921875 20.609375 -2.765625 C 20.816406 -2.609375 21.046875 -2.53125 21.296875 -2.53125 C 21.703125 -2.53125 22.269531 -2.84375 23 -3.46875 C 23.726562 -4.101562 24.703125 -5.253906 25.921875 -6.921875 C 26.148438 -7.234375 26.410156 -7.40625 26.703125 -7.4375 C 27.003906 -7.46875 27.269531 -7.40625 27.5 -7.25 C 27.726562 -7.09375 27.878906 -6.878906 27.953125 -6.609375 C 28.023438 -6.335938 27.945312 -6.039062 27.71875 -5.71875 C 26.707031 -4.269531 25.785156 -3.15625 24.953125 -2.375 C 24.117188 -1.59375 23.375 -1.046875 22.71875 -0.734375 C 22.070312 -0.429688 21.492188 -0.28125 20.984375 -0.28125 C 20.078125 -0.28125 19.363281 -0.601562 18.84375 -1.25 C 18.332031 -1.894531 18.078125 -2.640625 18.078125 -3.484375 C 18.078125 -4.253906 18.15625 -5.003906 18.3125 -5.734375 C 18.46875 -6.460938 18.617188 -7.15625 18.765625 -7.8125 C 18.921875 -8.476562 19 -9.109375 19 -9.703125 C 19 -9.910156 18.953125 -10.082031 18.859375 -10.21875 C 18.765625 -10.363281 18.597656 -10.4375 18.359375 -10.4375 C 17.921875 -10.4375 17.460938 -10.226562 16.984375 -9.8125 C 16.515625 -9.40625 16.066406 -8.921875 15.640625 -8.359375 C 15.222656 -7.796875 14.859375 -7.265625 14.546875 -6.765625 C 14.242188 -6.273438 14.03125 -5.945312 13.90625 -5.78125 C 13.164062 -4.625 12.703125 -3.507812 12.515625 -2.4375 C 12.472656 -2.132812 12.398438 -1.796875 12.296875 -1.421875 C 12.191406 -1.046875 12.035156 -0.71875 11.828125 -0.4375 C 11.628906 -0.164062 11.351562 -0.03125 11 -0.03125 C 10.382812 -0.03125 10.015625 -0.238281 9.890625 -0.65625 C 9.765625 -1.082031 9.785156 -1.609375 9.953125 -2.234375 C 10.117188 -2.867188 10.34375 -3.515625 10.625 -4.171875 C 10.976562 -4.910156 11.226562 -5.644531 11.375 -6.375 C 11.519531 -7.113281 11.570312 -7.78125 11.53125 -8.375 C 11.507812 -8.863281 11.40625 -9.175781 11.21875 -9.3125 C 11.03125 -9.445312 10.832031 -9.515625 10.625 -9.515625 C 10.320312 -9.515625 9.957031 -9.382812 9.53125 -9.125 C 9.113281 -8.875 8.707031 -8.578125 8.3125 -8.234375 C 7.914062 -7.890625 7.578125 -7.546875 7.296875 -7.203125 C 6.796875 -6.554688 6.40625 -6.015625 6.125 -5.578125 C 5.851562 -5.148438 5.644531 -4.773438 5.5 -4.453125 C 5.351562 -4.140625 5.207031 -3.828125 5.0625 -3.515625 C 4.882812 -3.109375 4.726562 -2.664062 4.59375 -2.1875 C 4.457031 -1.71875 4.320312 -1.28125 4.1875 -0.875 C 4.050781 -0.476562 3.890625 -0.175781 3.703125 0.03125 C 3.554688 0.195312 3.40625 0.304688 3.25 0.359375 C 3.101562 0.410156 2.96875 0.4375 2.84375 0.4375 Z M 2.84375 0.4375 "/></g></g></g><g fill="#ff0000" fill-opacity="1"><g transform="translate(108.222503, 34.977396)"><g><path d="M 5.03125 0.21875 C 4 0.21875 3.039062 -0.0195312 2.15625 -0.5 C 1.269531 -0.988281 0.550781 -1.675781 0 -2.5625 C -0.550781 -3.445312 -0.828125 -4.476562 -0.828125 -5.65625 C -0.828125 -6.851562 -0.554688 -8.003906 -0.015625 -9.109375 C 0.523438 -10.222656 1.265625 -11.128906 2.203125 -11.828125 C 3.140625 -12.535156 4.207031 -12.890625 5.40625 -12.890625 C 6.4375 -12.890625 7.253906 -12.597656 7.859375 -12.015625 C 8.472656 -11.441406 8.78125 -10.765625 8.78125 -9.984375 C 8.78125 -9.359375 8.601562 -8.765625 8.25 -8.203125 C 7.894531 -7.640625 7.453125 -7.164062 6.921875 -6.78125 C 6.390625 -6.394531 5.863281 -6.113281 5.34375 -5.9375 C 4.625 -5.726562 4.015625 -5.625 3.515625 -5.625 C 3.171875 -5.625 2.878906 -5.640625 2.640625 -5.671875 C 2.398438 -5.703125 2.179688 -5.726562 1.984375 -5.75 C 1.753906 -5.789062 1.640625 -5.695312 1.640625 -5.46875 C 1.597656 -4.875 1.71875 -4.3125 2 -3.78125 C 2.289062 -3.257812 2.695312 -2.828125 3.21875 -2.484375 C 3.75 -2.148438 4.351562 -1.984375 5.03125 -1.984375 C 6.019531 -1.984375 6.90625 -2.210938 7.6875 -2.671875 C 8.476562 -3.140625 9.210938 -3.753906 9.890625 -4.515625 C 10.566406 -5.273438 11.203125 -6.078125 11.796875 -6.921875 C 12.085938 -7.335938 12.300781 -7.546875 12.4375 -7.546875 C 12.570312 -7.546875 12.671875 -7.546875 12.734375 -7.546875 C 13.179688 -7.546875 13.503906 -7.335938 13.703125 -6.921875 C 13.898438 -6.503906 13.863281 -6.101562 13.59375 -5.71875 C 12.894531 -4.726562 12.097656 -3.773438 11.203125 -2.859375 C 10.304688 -1.941406 9.335938 -1.195312 8.296875 -0.625 C 7.253906 -0.0625 6.164062 0.21875 5.03125 0.21875 Z M 3.578125 -7.78125 C 4.015625 -7.78125 4.46875 -7.851562 4.9375 -8 C 5.414062 -8.144531 5.816406 -8.359375 6.140625 -8.640625 C 6.472656 -8.929688 6.640625 -9.296875 6.640625 -9.734375 C 6.640625 -10.046875 6.507812 -10.28125 6.25 -10.4375 C 6 -10.601562 5.695312 -10.6875 5.34375 -10.6875 C 4.894531 -10.6875 4.46875 -10.550781 4.0625 -10.28125 C 3.65625 -10.019531 3.296875 -9.695312 2.984375 -9.3125 C 2.679688 -8.9375 2.445312 -8.582031 2.28125 -8.25 C 2.175781 -8.039062 2.238281 -7.914062 2.46875 -7.875 C 2.84375 -7.8125 3.210938 -7.78125 3.578125 -7.78125 Z M 3.578125 -7.78125 "/></g></g></g><g fill="#ff0000" fill-opacity="1"><g transform="translate(120.864722, 34.977396)"><g><path d="M 5.03125 0.21875 C 4 0.21875 3.039062 -0.0195312 2.15625 -0.5 C 1.269531 -0.988281 0.550781 -1.675781 0 -2.5625 C -0.550781 -3.445312 -0.828125 -4.476562 -0.828125 -5.65625 C -0.828125 -6.851562 -0.554688 -8.003906 -0.015625 -9.109375 C 0.523438 -10.222656 1.265625 -11.128906 2.203125 -11.828125 C 3.140625 -12.535156 4.207031 -12.890625 5.40625 -12.890625 C 6.4375 -12.890625 7.253906 -12.597656 7.859375 -12.015625 C 8.472656 -11.441406 8.78125 -10.765625 8.78125 -9.984375 C 8.78125 -9.359375 8.601562 -8.765625 8.25 -8.203125 C 7.894531 -7.640625 7.453125 -7.164062 6.921875 -6.78125 C 6.390625 -6.394531 5.863281 -6.113281 5.34375 -5.9375 C 4.625 -5.726562 4.015625 -5.625 3.515625 -5.625 C 3.171875 -5.625 2.878906 -5.640625 2.640625 -5.671875 C 2.398438 -5.703125 2.179688 -5.726562 1.984375 -5.75 C 1.753906 -5.789062 1.640625 -5.695312 1.640625 -5.46875 C 1.597656 -4.875 1.71875 -4.3125 2 -3.78125 C 2.289062 -3.257812 2.695312 -2.828125 3.21875 -2.484375 C 3.75 -2.148438 4.351562 -1.984375 5.03125 -1.984375 C 6.019531 -1.984375 6.90625 -2.210938 7.6875 -2.671875 C 8.476562 -3.140625 9.210938 -3.753906 9.890625 -4.515625 C 10.566406 -5.273438 11.203125 -6.078125 11.796875 -6.921875 C 12.085938 -7.335938 12.300781 -7.546875 12.4375 -7.546875 C 12.570312 -7.546875 12.671875 -7.546875 12.734375 -7.546875 C 13.179688 -7.546875 13.503906 -7.335938 13.703125 -6.921875 C 13.898438 -6.503906 13.863281 -6.101562 13.59375 -5.71875 C 12.894531 -4.726562 12.097656 -3.773438 11.203125 -2.859375 C 10.304688 -1.941406 9.335938 -1.195312 8.296875 -0.625 C 7.253906 -0.0625 6.164062 0.21875 5.03125 0.21875 Z M 3.578125 -7.78125 C 4.015625 -7.78125 4.46875 -7.851562 4.9375 -8 C 5.414062 -8.144531 5.816406 -8.359375 6.140625 -8.640625 C 6.472656 -8.929688 6.640625 -9.296875 6.640625 -9.734375 C 6.640625 -10.046875 6.507812 -10.28125 6.25 -10.4375 C 6 -10.601562 5.695312 -10.6875 5.34375 -10.6875 C 4.894531 -10.6875 4.46875 -10.550781 4.0625 -10.28125 C 3.65625 -10.019531 3.296875 -9.695312 2.984375 -9.3125 C 2.679688 -8.9375 2.445312 -8.582031 2.28125 -8.25 C 2.175781 -8.039062 2.238281 -7.914062 2.46875 -7.875 C 2.84375 -7.8125 3.210938 -7.78125 3.578125 -7.78125 Z M 3.578125 -7.78125 "/></g></g></g><g fill="#ff0000" fill-opacity="1"><g transform="translate(133.50694, 34.977396)"><g><path d="M 13.09375 -6.921875 C 13.34375 -7.296875 13.617188 -7.503906 13.921875 -7.546875 C 14.222656 -7.597656 14.484375 -7.53125 14.703125 -7.34375 C 14.929688 -7.164062 15.078125 -6.929688 15.140625 -6.640625 C 15.203125 -6.347656 15.117188 -6.039062 14.890625 -5.71875 C 14.023438 -4.4375 13.15625 -3.316406 12.28125 -2.359375 C 11.40625 -1.398438 10.484375 -0.644531 9.515625 -0.09375 C 8.546875 0.457031 7.472656 0.734375 6.296875 0.734375 C 5.410156 0.734375 4.632812 0.484375 3.96875 -0.015625 C 3.300781 -0.515625 2.785156 -1.179688 2.421875 -2.015625 C 2.066406 -2.859375 1.890625 -3.773438 1.890625 -4.765625 C 1.890625 -5.003906 1.910156 -5.300781 1.953125 -5.65625 C 1.992188 -6.019531 2.050781 -6.398438 2.125 -6.796875 C 2.164062 -6.960938 2.132812 -7.0625 2.03125 -7.09375 C 1.9375 -7.125 1.847656 -7.078125 1.765625 -6.953125 L 0.953125 -5.71875 C 0.628906 -5.28125 0.300781 -5.023438 -0.03125 -4.953125 C -0.363281 -4.878906 -0.640625 -4.925781 -0.859375 -5.09375 C -1.085938 -5.257812 -1.210938 -5.507812 -1.234375 -5.84375 C -1.253906 -6.1875 -1.128906 -6.546875 -0.859375 -6.921875 C -0.367188 -7.578125 0.195312 -8.363281 0.84375 -9.28125 C 1.5 -10.195312 2.238281 -11.285156 3.0625 -12.546875 C 3.1875 -12.773438 3.226562 -12.890625 3.1875 -12.890625 C 3.164062 -12.890625 3.148438 -12.894531 3.140625 -12.90625 C 3.128906 -12.914062 3.113281 -12.921875 3.09375 -12.921875 C 2.945312 -12.941406 2.71875 -12.90625 2.40625 -12.8125 C 2.101562 -12.71875 1.796875 -12.585938 1.484375 -12.421875 C 1.148438 -12.234375 0.828125 -12.046875 0.515625 -11.859375 C 0.210938 -11.679688 -0.0703125 -11.582031 -0.34375 -11.5625 C -0.550781 -11.539062 -0.757812 -11.601562 -0.96875 -11.75 C -1.1875 -11.90625 -1.316406 -12.179688 -1.359375 -12.578125 C -1.378906 -13.003906 -1.226562 -13.375 -0.90625 -13.6875 C -0.59375 -14 -0.195312 -14.253906 0.28125 -14.453125 C 0.769531 -14.660156 1.273438 -14.816406 1.796875 -14.921875 C 2.328125 -15.023438 2.78125 -15.078125 3.15625 -15.078125 C 3.394531 -15.097656 3.613281 -15.101562 3.8125 -15.09375 C 4.007812 -15.082031 4.203125 -15.078125 4.390625 -15.078125 C 4.554688 -15.054688 4.679688 -15.117188 4.765625 -15.265625 C 5.234375 -16.066406 5.5625 -16.703125 5.75 -17.171875 C 5.9375 -17.648438 6.117188 -18.078125 6.296875 -18.453125 C 6.484375 -18.859375 6.691406 -19.242188 6.921875 -19.609375 C 7.148438 -19.984375 7.539062 -20.171875 8.09375 -20.171875 C 8.550781 -20.171875 8.875 -19.972656 9.0625 -19.578125 C 9.257812 -19.191406 9.359375 -18.796875 9.359375 -18.390625 C 9.359375 -17.953125 9.160156 -17.445312 8.765625 -16.875 C 8.378906 -16.3125 7.941406 -15.679688 7.453125 -14.984375 C 7.285156 -14.753906 7.34375 -14.617188 7.625 -14.578125 C 8.164062 -14.515625 8.679688 -14.515625 9.171875 -14.578125 C 9.566406 -14.640625 9.914062 -14.773438 10.21875 -14.984375 C 10.53125 -15.191406 10.820312 -15.390625 11.09375 -15.578125 C 11.363281 -15.773438 11.640625 -15.875 11.921875 -15.875 C 12.296875 -15.894531 12.566406 -15.789062 12.734375 -15.5625 C 12.898438 -15.34375 12.992188 -15.117188 13.015625 -14.890625 C 13.066406 -14.398438 12.867188 -13.976562 12.421875 -13.625 C 11.984375 -13.269531 11.472656 -12.984375 10.890625 -12.765625 C 10.304688 -12.554688 9.816406 -12.429688 9.421875 -12.390625 C 8.804688 -12.347656 8.203125 -12.359375 7.609375 -12.421875 C 7.023438 -12.484375 6.554688 -12.535156 6.203125 -12.578125 C 6.046875 -12.597656 5.9375 -12.566406 5.875 -12.484375 C 5.875 -12.484375 5.851562 -12.441406 5.8125 -12.359375 C 5.476562 -11.660156 5.179688 -10.859375 4.921875 -9.953125 C 4.671875 -9.046875 4.484375 -8.132812 4.359375 -7.21875 C 4.234375 -6.300781 4.171875 -5.453125 4.171875 -4.671875 C 4.171875 -3.660156 4.359375 -2.882812 4.734375 -2.34375 C 5.117188 -1.8125 5.742188 -1.546875 6.609375 -1.546875 C 7.410156 -1.546875 8.171875 -1.796875 8.890625 -2.296875 C 9.617188 -2.804688 10.332031 -3.472656 11.03125 -4.296875 C 11.726562 -5.117188 12.414062 -5.992188 13.09375 -6.921875 Z M 13.09375 -6.921875 "/></g></g></g><g fill="#00ffff" fill-opacity="1"><g transform="translate(2.550913, 37.672705)"><g><path d="M 3.375 1.578125 C 2.40625 1.578125 1.65625 1.207031 1.125 0.46875 C 0.601562 -0.257812 0.34375 -1.097656 0.34375 -2.046875 C 0.34375 -2.660156 0.453125 -3.269531 0.671875 -3.875 C 0.898438 -4.488281 1.234375 -5.03125 1.671875 -5.5 C 2.328125 -6.175781 3.046875 -6.722656 3.828125 -7.140625 C 4.609375 -7.566406 5.410156 -7.929688 6.234375 -8.234375 C 7.066406 -8.535156 7.882812 -8.847656 8.6875 -9.171875 C 8.863281 -9.234375 8.960938 -9.335938 8.984375 -9.484375 C 9.398438 -10.660156 9.78125 -11.851562 10.125 -13.0625 C 10.476562 -14.28125 10.78125 -15.488281 11.03125 -16.6875 C 11.070312 -16.8125 11.054688 -16.898438 10.984375 -16.953125 C 10.910156 -17.003906 10.820312 -17 10.71875 -16.9375 C 10.289062 -16.769531 9.742188 -16.566406 9.078125 -16.328125 C 8.421875 -16.085938 7.707031 -15.875 6.9375 -15.6875 C 6.164062 -15.507812 5.390625 -15.421875 4.609375 -15.421875 C 3.878906 -15.421875 3.226562 -15.523438 2.65625 -15.734375 C 2.226562 -15.910156 2.015625 -16.21875 2.015625 -16.65625 C 2.015625 -16.84375 2.078125 -17.054688 2.203125 -17.296875 C 2.335938 -17.546875 2.5625 -17.671875 2.875 -17.671875 C 3.84375 -17.648438 4.816406 -17.6875 5.796875 -17.78125 C 6.773438 -17.875 7.664062 -18.085938 8.46875 -18.421875 C 9.375 -18.765625 10.28125 -19.238281 11.1875 -19.84375 C 11.4375 -20.0625 11.675781 -20.234375 11.90625 -20.359375 C 12.144531 -20.484375 12.359375 -20.546875 12.546875 -20.546875 C 12.796875 -20.546875 13.082031 -20.453125 13.40625 -20.265625 C 13.738281 -20.078125 13.875 -19.738281 13.8125 -19.25 C 13.601562 -17.644531 13.296875 -16.179688 12.890625 -14.859375 C 12.492188 -13.546875 12.117188 -12.207031 11.765625 -10.84375 C 11.722656 -10.71875 11.734375 -10.628906 11.796875 -10.578125 C 11.859375 -10.523438 11.953125 -10.519531 12.078125 -10.5625 C 12.898438 -10.832031 13.628906 -11.101562 14.265625 -11.375 C 14.910156 -11.65625 15.570312 -11.984375 16.25 -12.359375 C 16.925781 -12.734375 17.679688 -13.195312 18.515625 -13.75 C 18.628906 -13.789062 18.726562 -13.875 18.8125 -14 C 19.0625 -14.363281 19.296875 -14.859375 19.515625 -15.484375 C 19.734375 -16.117188 19.984375 -16.757812 20.265625 -17.40625 C 20.554688 -18.0625 20.898438 -18.617188 21.296875 -19.078125 C 21.703125 -19.546875 22.203125 -19.78125 22.796875 -19.78125 C 23.148438 -19.78125 23.476562 -19.65625 23.78125 -19.40625 C 24.09375 -19.15625 24.25 -18.753906 24.25 -18.203125 C 24.25 -17.847656 24.15625 -17.425781 23.96875 -16.9375 C 23.789062 -16.457031 23.492188 -15.910156 23.078125 -15.296875 C 22.847656 -14.878906 22.570312 -14.515625 22.25 -14.203125 C 21.9375 -13.898438 21.632812 -13.597656 21.34375 -13.296875 C 21.0625 -13.003906 20.816406 -12.640625 20.609375 -12.203125 C 20.484375 -11.890625 20.3125 -11.414062 20.09375 -10.78125 C 19.882812 -10.144531 19.664062 -9.429688 19.4375 -8.640625 C 19.207031 -7.847656 19.019531 -7.046875 18.875 -6.234375 C 18.726562 -5.429688 18.65625 -4.703125 18.65625 -4.046875 C 18.65625 -3.492188 18.773438 -2.945312 19.015625 -2.40625 C 19.253906 -1.875 19.617188 -1.609375 20.109375 -1.609375 C 20.878906 -1.609375 21.597656 -1.898438 22.265625 -2.484375 C 22.929688 -3.078125 23.5625 -3.820312 24.15625 -4.71875 C 24.757812 -5.613281 25.359375 -6.492188 25.953125 -7.359375 C 26.179688 -7.703125 26.425781 -7.875 26.6875 -7.875 C 26.957031 -7.875 27.1875 -7.757812 27.375 -7.53125 C 27.5625 -7.3125 27.679688 -7.039062 27.734375 -6.71875 C 27.785156 -6.394531 27.707031 -6.070312 27.5 -5.75 C 26.507812 -4.21875 25.617188 -2.972656 24.828125 -2.015625 C 24.035156 -1.066406 23.257812 -0.382812 22.5 0.03125 C 21.75 0.445312 20.910156 0.65625 19.984375 0.65625 C 18.796875 0.65625 17.910156 0.21875 17.328125 -0.65625 C 16.753906 -1.539062 16.46875 -2.703125 16.46875 -4.140625 C 16.46875 -4.921875 16.550781 -5.800781 16.71875 -6.78125 C 16.882812 -7.757812 17.148438 -8.828125 17.515625 -9.984375 C 17.597656 -10.328125 17.492188 -10.421875 17.203125 -10.265625 C 16.097656 -9.679688 15.035156 -9.21875 14.015625 -8.875 C 12.992188 -8.539062 11.988281 -8.164062 11 -7.75 C 10.851562 -7.6875 10.75 -7.585938 10.6875 -7.453125 C 10.300781 -6.523438 9.894531 -5.535156 9.46875 -4.484375 C 9.050781 -3.429688 8.566406 -2.445312 8.015625 -1.53125 C 7.472656 -0.613281 6.828125 0.128906 6.078125 0.703125 C 5.335938 1.285156 4.4375 1.578125 3.375 1.578125 Z M 3.703125 -0.65625 C 4.117188 -0.65625 4.539062 -0.851562 4.96875 -1.25 C 5.40625 -1.65625 5.8125 -2.160156 6.1875 -2.765625 C 6.570312 -3.367188 6.910156 -3.976562 7.203125 -4.59375 C 7.503906 -5.21875 7.726562 -5.753906 7.875 -6.203125 C 7.914062 -6.328125 7.90625 -6.421875 7.84375 -6.484375 C 7.78125 -6.546875 7.679688 -6.546875 7.546875 -6.484375 C 7.046875 -6.265625 6.503906 -6.015625 5.921875 -5.734375 C 5.347656 -5.453125 4.800781 -5.132812 4.28125 -4.78125 C 3.769531 -4.4375 3.347656 -4.054688 3.015625 -3.640625 C 2.691406 -3.234375 2.53125 -2.78125 2.53125 -2.28125 C 2.53125 -2 2.609375 -1.65625 2.765625 -1.25 C 2.921875 -0.851562 3.234375 -0.65625 3.703125 -0.65625 Z M 3.703125 -0.65625 "/></g></g></g><g fill="#00ffff" fill-opacity="1"><g transform="translate(29.099568, 37.672705)"><g><path d="M 8.65625 0.59375 C 7.988281 0.59375 7.4375 0.421875 7 0.078125 C 6.570312 -0.265625 6.242188 -0.675781 6.015625 -1.15625 C 5.796875 -1.644531 5.65625 -2.101562 5.59375 -2.53125 C 5.570312 -2.757812 5.46875 -2.78125 5.28125 -2.59375 C 4.582031 -1.726562 3.914062 -1.15625 3.28125 -0.875 C 2.65625 -0.601562 2.097656 -0.46875 1.609375 -0.46875 C 0.679688 -0.46875 -0.0859375 -0.773438 -0.703125 -1.390625 C -1.328125 -2.003906 -1.640625 -2.765625 -1.640625 -3.671875 C -1.640625 -4.617188 -1.445312 -5.550781 -1.0625 -6.46875 C -0.6875 -7.382812 -0.175781 -8.207031 0.46875 -8.9375 C 1.125 -9.675781 1.859375 -10.265625 2.671875 -10.703125 C 3.484375 -11.148438 4.332031 -11.375 5.21875 -11.375 C 5.53125 -11.375 5.867188 -11.34375 6.234375 -11.28125 C 6.609375 -11.21875 6.929688 -11.101562 7.203125 -10.9375 C 7.410156 -10.832031 7.5625 -10.875 7.65625 -11.0625 C 7.988281 -11.65625 8.285156 -12.050781 8.546875 -12.25 C 8.816406 -12.445312 9.054688 -12.546875 9.265625 -12.546875 C 9.515625 -12.546875 9.753906 -12.460938 9.984375 -12.296875 C 10.222656 -12.128906 10.390625 -11.898438 10.484375 -11.609375 C 10.578125 -11.328125 10.53125 -11.019531 10.34375 -10.6875 C 9.914062 -9.882812 9.5 -9.046875 9.09375 -8.171875 C 8.695312 -7.296875 8.375 -6.453125 8.125 -5.640625 C 7.875 -4.828125 7.75 -4.109375 7.75 -3.484375 C 7.75 -2.972656 7.851562 -2.546875 8.0625 -2.203125 C 8.269531 -1.867188 8.550781 -1.703125 8.90625 -1.703125 C 9.4375 -1.703125 9.992188 -1.96875 10.578125 -2.5 C 11.171875 -3.039062 11.78125 -3.710938 12.40625 -4.515625 C 13.03125 -5.316406 13.644531 -6.117188 14.25 -6.921875 C 14.507812 -7.253906 14.789062 -7.453125 15.09375 -7.515625 C 15.394531 -7.585938 15.664062 -7.546875 15.90625 -7.390625 C 16.15625 -7.242188 16.304688 -7.023438 16.359375 -6.734375 C 16.410156 -6.441406 16.3125 -6.101562 16.0625 -5.71875 C 14.769531 -3.84375 13.535156 -2.320312 12.359375 -1.15625 C 11.179688 0.0078125 9.945312 0.59375 8.65625 0.59375 Z M 1.953125 -2.65625 C 2.460938 -2.65625 2.953125 -2.882812 3.421875 -3.34375 C 3.898438 -3.8125 4.34375 -4.375 4.75 -5.03125 C 5.164062 -5.695312 5.519531 -6.347656 5.8125 -6.984375 C 6.113281 -7.617188 6.328125 -8.113281 6.453125 -8.46875 C 6.535156 -8.65625 6.484375 -8.789062 6.296875 -8.875 C 6.078125 -8.988281 5.847656 -9.070312 5.609375 -9.125 C 5.367188 -9.175781 5.15625 -9.203125 4.96875 -9.203125 C 4.4375 -9.203125 3.910156 -9.007812 3.390625 -8.625 C 2.878906 -8.25 2.421875 -7.773438 2.015625 -7.203125 C 1.617188 -6.640625 1.320312 -6.050781 1.125 -5.4375 C 0.925781 -4.820312 0.859375 -4.285156 0.921875 -3.828125 C 0.984375 -3.398438 1.109375 -3.097656 1.296875 -2.921875 C 1.484375 -2.742188 1.703125 -2.65625 1.953125 -2.65625 Z M 1.953125 -2.65625 "/></g></g></g><g fill="#00ffff" fill-opacity="1"><g transform="translate(44.207015, 37.672705)"><g><path d="M 3.734375 1.265625 C 3.140625 1.265625 2.554688 1.148438 1.984375 0.921875 C 1.421875 0.703125 0.96875 0.40625 0.625 0.03125 C 0.289062 -0.382812 0.0703125 -0.757812 -0.03125 -1.09375 C -0.132812 -1.4375 -0.1875 -1.742188 -0.1875 -2.015625 C -0.1875 -2.753906 0.0820312 -3.359375 0.625 -3.828125 C 1.175781 -4.304688 1.875 -4.546875 2.71875 -4.546875 C 3.332031 -4.546875 3.910156 -4.492188 4.453125 -4.390625 C 5.003906 -4.285156 5.539062 -4.171875 6.0625 -4.046875 C 6.300781 -4.003906 6.429688 -4.085938 6.453125 -4.296875 C 6.472656 -4.398438 6.484375 -4.503906 6.484375 -4.609375 C 6.484375 -4.710938 6.484375 -4.820312 6.484375 -4.9375 C 6.484375 -5.5625 6.382812 -6.273438 6.1875 -7.078125 C 6 -7.878906 5.785156 -8.65625 5.546875 -9.40625 C 5.304688 -10.15625 5.113281 -10.738281 4.96875 -11.15625 C 4.925781 -11.28125 4.859375 -11.347656 4.765625 -11.359375 C 4.679688 -11.367188 4.609375 -11.320312 4.546875 -11.21875 C 4.046875 -10.4375 3.503906 -9.597656 2.921875 -8.703125 C 2.335938 -7.804688 1.679688 -6.8125 0.953125 -5.71875 C 0.804688 -5.507812 0.65625 -5.34375 0.5 -5.21875 C 0.351562 -5.09375 0.175781 -5.019531 -0.03125 -5 C -0.445312 -4.976562 -0.738281 -5.085938 -0.90625 -5.328125 C -1.082031 -5.566406 -1.15625 -5.84375 -1.125 -6.15625 C -1.09375 -6.476562 -1.015625 -6.734375 -0.890625 -6.921875 C 0.078125 -8.316406 0.875 -9.484375 1.5 -10.421875 C 2.125 -11.359375 2.625 -12.128906 3 -12.734375 C 3.382812 -13.347656 3.671875 -13.84375 3.859375 -14.21875 C 4.253906 -15.039062 4.597656 -15.601562 4.890625 -15.90625 C 5.191406 -16.21875 5.519531 -16.375 5.875 -16.375 C 6.488281 -16.375 6.898438 -16.234375 7.109375 -15.953125 C 7.316406 -15.679688 7.421875 -15.421875 7.421875 -15.171875 C 7.421875 -14.835938 7.304688 -14.503906 7.078125 -14.171875 C 6.847656 -13.847656 6.679688 -13.582031 6.578125 -13.375 C 6.554688 -13.25 6.566406 -13.117188 6.609375 -12.984375 C 7.066406 -11.617188 7.507812 -10.238281 7.9375 -8.84375 C 8.375 -7.457031 8.59375 -6.035156 8.59375 -4.578125 C 8.59375 -4.472656 8.59375 -4.375 8.59375 -4.28125 C 8.59375 -4.1875 8.59375 -4.085938 8.59375 -3.984375 C 8.550781 -3.753906 8.613281 -3.640625 8.78125 -3.640625 C 8.84375 -3.617188 8.929688 -3.609375 9.046875 -3.609375 C 9.972656 -3.609375 10.8125 -3.945312 11.5625 -4.625 C 12.320312 -5.3125 13 -6.078125 13.59375 -6.921875 C 14.09375 -7.597656 14.609375 -7.9375 15.140625 -7.9375 C 15.390625 -7.9375 15.597656 -7.84375 15.765625 -7.65625 C 15.941406 -7.476562 16.03125 -7.285156 16.03125 -7.078125 C 16.03125 -6.890625 15.96875 -6.675781 15.84375 -6.4375 C 15.726562 -6.207031 15.578125 -5.96875 15.390625 -5.71875 C 14.421875 -4.332031 13.335938 -3.28125 12.140625 -2.5625 C 10.941406 -1.84375 9.59375 -1.472656 8.09375 -1.453125 C 7.945312 -1.453125 7.8125 -1.359375 7.6875 -1.171875 C 7.21875 -0.367188 6.628906 0.234375 5.921875 0.640625 C 5.222656 1.054688 4.492188 1.265625 3.734375 1.265625 Z M 3.734375 -0.859375 C 4.003906 -0.859375 4.269531 -0.910156 4.53125 -1.015625 C 4.800781 -1.117188 5.050781 -1.304688 5.28125 -1.578125 C 5.382812 -1.679688 5.414062 -1.773438 5.375 -1.859375 C 5.332031 -1.941406 5.25 -1.992188 5.125 -2.015625 C 4.71875 -2.109375 4.304688 -2.207031 3.890625 -2.3125 C 3.484375 -2.414062 3.070312 -2.476562 2.65625 -2.5 C 2.382812 -2.519531 2.1875 -2.472656 2.0625 -2.359375 C 1.945312 -2.242188 1.890625 -2.117188 1.890625 -1.984375 C 1.890625 -1.753906 2.070312 -1.507812 2.4375 -1.25 C 2.8125 -0.988281 3.242188 -0.859375 3.734375 -0.859375 Z M 3.734375 -0.859375 "/></g></g></g><g fill="#00ffff" fill-opacity="1"><g transform="translate(58.650751, 37.672705)"><g><path d="M 20.171875 -7.625 C 20.546875 -7.625 20.800781 -7.5 20.9375 -7.25 C 21.070312 -7.007812 21.125 -6.734375 21.09375 -6.421875 C 21.0625 -6.117188 20.992188 -5.882812 20.890625 -5.71875 C 20.191406 -4.644531 19.429688 -3.597656 18.609375 -2.578125 C 17.796875 -1.554688 16.929688 -0.707031 16.015625 -0.03125 C 15.097656 0.644531 14.125 0.984375 13.09375 0.984375 C 12.113281 0.984375 11.300781 0.660156 10.65625 0.015625 C 10.019531 -0.628906 9.703125 -1.476562 9.703125 -2.53125 C 9.703125 -3.457031 9.816406 -4.359375 10.046875 -5.234375 C 10.285156 -6.109375 10.40625 -7.03125 10.40625 -8 C 10.40625 -8.4375 10.332031 -8.789062 10.1875 -9.0625 C 10.050781 -9.34375 9.753906 -9.484375 9.296875 -9.484375 C 8.828125 -9.484375 8.335938 -9.328125 7.828125 -9.015625 C 7.328125 -8.710938 6.835938 -8.335938 6.359375 -7.890625 C 5.890625 -7.453125 5.472656 -7.019531 5.109375 -6.59375 C 4.753906 -6.175781 4.492188 -5.851562 4.328125 -5.625 C 4.304688 -5.5625 4.285156 -5.503906 4.265625 -5.453125 C 4.242188 -5.398438 4.210938 -5.34375 4.171875 -5.28125 C 4.003906 -4.5625 3.875 -3.910156 3.78125 -3.328125 C 3.6875 -2.753906 3.597656 -2.140625 3.515625 -1.484375 C 3.492188 -0.765625 3.351562 -0.238281 3.09375 0.09375 C 2.84375 0.425781 2.5625 0.59375 2.25 0.59375 C 1.882812 0.59375 1.566406 0.457031 1.296875 0.1875 C 1.191406 0.0625 1.125 -0.0546875 1.09375 -0.171875 C 1.0625 -0.285156 1.046875 -0.414062 1.046875 -0.5625 C 1.085938 -1.488281 1.207031 -2.410156 1.40625 -3.328125 C 1.601562 -4.242188 1.84375 -5.390625 2.125 -6.765625 C 2.164062 -6.929688 2.140625 -7.03125 2.046875 -7.0625 C 1.960938 -7.09375 1.878906 -7.046875 1.796875 -6.921875 C 1.398438 -6.367188 1.117188 -5.96875 0.953125 -5.71875 C 0.734375 -5.382812 0.460938 -5.1875 0.140625 -5.125 C -0.179688 -5.0625 -0.46875 -5.097656 -0.71875 -5.234375 C -0.976562 -5.367188 -1.140625 -5.582031 -1.203125 -5.875 C -1.265625 -6.175781 -1.148438 -6.523438 -0.859375 -6.921875 C -0.265625 -7.722656 0.4375 -8.691406 1.25 -9.828125 C 2.0625 -10.960938 2.890625 -12.207031 3.734375 -13.5625 C 3.796875 -13.664062 3.835938 -13.78125 3.859375 -13.90625 C 4.003906 -14.582031 4.21875 -15.351562 4.5 -16.21875 C 4.789062 -17.082031 5.144531 -17.957031 5.5625 -18.84375 C 5.988281 -19.726562 6.46875 -20.539062 7 -21.28125 C 7.539062 -22.03125 8.144531 -22.632812 8.8125 -23.09375 C 9.488281 -23.5625 10.226562 -23.796875 11.03125 -23.796875 C 11.894531 -23.796875 12.535156 -23.492188 12.953125 -22.890625 C 13.378906 -22.296875 13.59375 -21.585938 13.59375 -20.765625 C 13.59375 -19.691406 13.226562 -18.640625 12.5 -17.609375 C 11.769531 -16.578125 10.828125 -15.578125 9.671875 -14.609375 C 8.515625 -13.640625 7.269531 -12.710938 5.9375 -11.828125 C 5.8125 -11.710938 5.71875 -11.601562 5.65625 -11.5 C 5.507812 -11.019531 5.40625 -10.566406 5.34375 -10.140625 C 5.320312 -9.992188 5.347656 -9.90625 5.421875 -9.875 C 5.492188 -9.84375 5.59375 -9.867188 5.71875 -9.953125 C 6.539062 -10.628906 7.238281 -11.082031 7.8125 -11.3125 C 8.394531 -11.539062 8.972656 -11.65625 9.546875 -11.65625 C 10.285156 -11.65625 10.882812 -11.472656 11.34375 -11.109375 C 11.8125 -10.742188 12.148438 -10.28125 12.359375 -9.71875 C 12.566406 -9.15625 12.671875 -8.570312 12.671875 -7.96875 C 12.671875 -6.875 12.570312 -5.851562 12.375 -4.90625 C 12.175781 -3.957031 12.078125 -3.113281 12.078125 -2.375 C 12.078125 -1.96875 12.203125 -1.6875 12.453125 -1.53125 C 12.703125 -1.375 12.957031 -1.296875 13.21875 -1.296875 C 13.695312 -1.296875 14.210938 -1.492188 14.765625 -1.890625 C 15.328125 -2.296875 15.882812 -2.800781 16.4375 -3.40625 C 16.988281 -4.019531 17.488281 -4.644531 17.9375 -5.28125 C 18.394531 -5.914062 18.769531 -6.460938 19.0625 -6.921875 C 19.226562 -7.191406 19.40625 -7.375 19.59375 -7.46875 C 19.78125 -7.570312 19.972656 -7.625 20.171875 -7.625 Z M 10.75 -21.59375 C 10.257812 -21.59375 9.742188 -21.273438 9.203125 -20.640625 C 8.671875 -20.003906 8.171875 -19.203125 7.703125 -18.234375 C 7.242188 -17.265625 6.867188 -16.273438 6.578125 -15.265625 C 6.535156 -15.117188 6.550781 -15.019531 6.625 -14.96875 C 6.695312 -14.914062 6.796875 -14.929688 6.921875 -15.015625 C 7.722656 -15.609375 8.457031 -16.234375 9.125 -16.890625 C 9.800781 -17.554688 10.351562 -18.210938 10.78125 -18.859375 C 11.21875 -19.515625 11.445312 -20.085938 11.46875 -20.578125 C 11.488281 -20.992188 11.410156 -21.265625 11.234375 -21.390625 C 11.054688 -21.523438 10.894531 -21.59375 10.75 -21.59375 Z M 10.75 -21.59375 "/></g></g></g><g fill="#00ffff" fill-opacity="1"><g transform="translate(78.562244, 37.672705)"><g><path d="M 2.84375 0.4375 C 2.488281 0.4375 2.191406 0.289062 1.953125 0 C 1.804688 -0.144531 1.734375 -0.351562 1.734375 -0.625 C 1.734375 -0.945312 1.796875 -1.289062 1.921875 -1.65625 C 2.054688 -2.03125 2.191406 -2.382812 2.328125 -2.71875 C 2.460938 -3.050781 2.5625 -3.296875 2.625 -3.453125 C 3.039062 -4.566406 3.394531 -5.617188 3.6875 -6.609375 C 3.988281 -7.597656 4.210938 -8.472656 4.359375 -9.234375 C 4.441406 -9.671875 4.429688 -9.984375 4.328125 -10.171875 C 4.222656 -10.367188 3.953125 -10.160156 3.515625 -9.546875 C 3.023438 -8.890625 2.578125 -8.253906 2.171875 -7.640625 C 1.773438 -7.035156 1.367188 -6.394531 0.953125 -5.71875 C 0.710938 -5.34375 0.4375 -5.117188 0.125 -5.046875 C -0.1875 -4.972656 -0.460938 -5.007812 -0.703125 -5.15625 C -0.953125 -5.300781 -1.101562 -5.53125 -1.15625 -5.84375 C -1.207031 -6.164062 -1.097656 -6.523438 -0.828125 -6.921875 C -0.148438 -7.929688 0.390625 -8.738281 0.796875 -9.34375 C 1.210938 -9.957031 1.566406 -10.46875 1.859375 -10.875 C 2.160156 -11.289062 2.476562 -11.691406 2.8125 -12.078125 C 3.300781 -12.640625 3.710938 -12.976562 4.046875 -13.09375 C 4.378906 -13.21875 4.6875 -13.28125 4.96875 -13.28125 C 5.382812 -13.28125 5.75 -13.140625 6.0625 -12.859375 C 6.382812 -12.585938 6.609375 -12.1875 6.734375 -11.65625 C 6.773438 -11.550781 6.796875 -11.453125 6.796875 -11.359375 C 6.796875 -11.265625 6.796875 -11.164062 6.796875 -11.0625 C 6.796875 -10.851562 6.796875 -10.648438 6.796875 -10.453125 C 6.796875 -10.265625 6.773438 -10.078125 6.734375 -9.890625 C 6.710938 -9.742188 6.742188 -9.65625 6.828125 -9.625 C 6.910156 -9.59375 6.992188 -9.628906 7.078125 -9.734375 C 7.753906 -10.410156 8.40625 -10.90625 9.03125 -11.21875 C 9.664062 -11.539062 10.25 -11.703125 10.78125 -11.703125 C 11.394531 -11.703125 11.929688 -11.5 12.390625 -11.09375 C 12.859375 -10.695312 13.21875 -10.160156 13.46875 -9.484375 C 13.570312 -9.234375 13.707031 -9.210938 13.875 -9.421875 C 14.71875 -10.492188 15.535156 -11.300781 16.328125 -11.84375 C 17.117188 -12.394531 17.835938 -12.671875 18.484375 -12.671875 C 19.410156 -12.671875 20.097656 -12.394531 20.546875 -11.84375 C 21.003906 -11.300781 21.234375 -10.554688 21.234375 -9.609375 C 21.234375 -8.867188 21.160156 -8.113281 21.015625 -7.34375 C 20.867188 -6.582031 20.722656 -5.875 20.578125 -5.21875 C 20.429688 -4.5625 20.347656 -4.023438 20.328125 -3.609375 C 20.304688 -3.203125 20.398438 -2.921875 20.609375 -2.765625 C 20.816406 -2.609375 21.046875 -2.53125 21.296875 -2.53125 C 21.703125 -2.53125 22.269531 -2.84375 23 -3.46875 C 23.726562 -4.101562 24.703125 -5.253906 25.921875 -6.921875 C 26.148438 -7.234375 26.410156 -7.40625 26.703125 -7.4375 C 27.003906 -7.46875 27.269531 -7.40625 27.5 -7.25 C 27.726562 -7.09375 27.878906 -6.878906 27.953125 -6.609375 C 28.023438 -6.335938 27.945312 -6.039062 27.71875 -5.71875 C 26.707031 -4.269531 25.785156 -3.15625 24.953125 -2.375 C 24.117188 -1.59375 23.375 -1.046875 22.71875 -0.734375 C 22.070312 -0.429688 21.492188 -0.28125 20.984375 -0.28125 C 20.078125 -0.28125 19.363281 -0.601562 18.84375 -1.25 C 18.332031 -1.894531 18.078125 -2.640625 18.078125 -3.484375 C 18.078125 -4.253906 18.15625 -5.003906 18.3125 -5.734375 C 18.46875 -6.460938 18.617188 -7.15625 18.765625 -7.8125 C 18.921875 -8.476562 19 -9.109375 19 -9.703125 C 19 -9.910156 18.953125 -10.082031 18.859375 -10.21875 C 18.765625 -10.363281 18.597656 -10.4375 18.359375 -10.4375 C 17.921875 -10.4375 17.460938 -10.226562 16.984375 -9.8125 C 16.515625 -9.40625 16.066406 -8.921875 15.640625 -8.359375 C 15.222656 -7.796875 14.859375 -7.265625 14.546875 -6.765625 C 14.242188 -6.273438 14.03125 -5.945312 13.90625 -5.78125 C 13.164062 -4.625 12.703125 -3.507812 12.515625 -2.4375 C 12.472656 -2.132812 12.398438 -1.796875 12.296875 -1.421875 C 12.191406 -1.046875 12.035156 -0.71875 11.828125 -0.4375 C 11.628906 -0.164062 11.351562 -0.03125 11 -0.03125 C 10.382812 -0.03125 10.015625 -0.238281 9.890625 -0.65625 C 9.765625 -1.082031 9.785156 -1.609375 9.953125 -2.234375 C 10.117188 -2.867188 10.34375 -3.515625 10.625 -4.171875 C 10.976562 -4.910156 11.226562 -5.644531 11.375 -6.375 C 11.519531 -7.113281 11.570312 -7.78125 11.53125 -8.375 C 11.507812 -8.863281 11.40625 -9.175781 11.21875 -9.3125 C 11.03125 -9.445312 10.832031 -9.515625 10.625 -9.515625 C 10.320312 -9.515625 9.957031 -9.382812 9.53125 -9.125 C 9.113281 -8.875 8.707031 -8.578125 8.3125 -8.234375 C 7.914062 -7.890625 7.578125 -7.546875 7.296875 -7.203125 C 6.796875 -6.554688 6.40625 -6.015625 6.125 -5.578125 C 5.851562 -5.148438 5.644531 -4.773438 5.5 -4.453125 C 5.351562 -4.140625 5.207031 -3.828125 5.0625 -3.515625 C 4.882812 -3.109375 4.726562 -2.664062 4.59375 -2.1875 C 4.457031 -1.71875 4.320312 -1.28125 4.1875 -0.875 C 4.050781 -0.476562 3.890625 -0.175781 3.703125 0.03125 C 3.554688 0.195312 3.40625 0.304688 3.25 0.359375 C 3.101562 0.410156 2.96875 0.4375 2.84375 0.4375 Z M 2.84375 0.4375 "/></g></g></g><g fill="#00ffff" fill-opacity="1"><g transform="translate(105.332136, 37.672705)"><g><path d="M 5.03125 0.21875 C 4 0.21875 3.039062 -0.0195312 2.15625 -0.5 C 1.269531 -0.988281 0.550781 -1.675781 0 -2.5625 C -0.550781 -3.445312 -0.828125 -4.476562 -0.828125 -5.65625 C -0.828125 -6.851562 -0.554688 -8.003906 -0.015625 -9.109375 C 0.523438 -10.222656 1.265625 -11.128906 2.203125 -11.828125 C 3.140625 -12.535156 4.207031 -12.890625 5.40625 -12.890625 C 6.4375 -12.890625 7.253906 -12.597656 7.859375 -12.015625 C 8.472656 -11.441406 8.78125 -10.765625 8.78125 -9.984375 C 8.78125 -9.359375 8.601562 -8.765625 8.25 -8.203125 C 7.894531 -7.640625 7.453125 -7.164062 6.921875 -6.78125 C 6.390625 -6.394531 5.863281 -6.113281 5.34375 -5.9375 C 4.625 -5.726562 4.015625 -5.625 3.515625 -5.625 C 3.171875 -5.625 2.878906 -5.640625 2.640625 -5.671875 C 2.398438 -5.703125 2.179688 -5.726562 1.984375 -5.75 C 1.753906 -5.789062 1.640625 -5.695312 1.640625 -5.46875 C 1.597656 -4.875 1.71875 -4.3125 2 -3.78125 C 2.289062 -3.257812 2.695312 -2.828125 3.21875 -2.484375 C 3.75 -2.148438 4.351562 -1.984375 5.03125 -1.984375 C 6.019531 -1.984375 6.90625 -2.210938 7.6875 -2.671875 C 8.476562 -3.140625 9.210938 -3.753906 9.890625 -4.515625 C 10.566406 -5.273438 11.203125 -6.078125 11.796875 -6.921875 C 12.085938 -7.335938 12.300781 -7.546875 12.4375 -7.546875 C 12.570312 -7.546875 12.671875 -7.546875 12.734375 -7.546875 C 13.179688 -7.546875 13.503906 -7.335938 13.703125 -6.921875 C 13.898438 -6.503906 13.863281 -6.101562 13.59375 -5.71875 C 12.894531 -4.726562 12.097656 -3.773438 11.203125 -2.859375 C 10.304688 -1.941406 9.335938 -1.195312 8.296875 -0.625 C 7.253906 -0.0625 6.164062 0.21875 5.03125 0.21875 Z M 3.578125 -7.78125 C 4.015625 -7.78125 4.46875 -7.851562 4.9375 -8 C 5.414062 -8.144531 5.816406 -8.359375 6.140625 -8.640625 C 6.472656 -8.929688 6.640625 -9.296875 6.640625 -9.734375 C 6.640625 -10.046875 6.507812 -10.28125 6.25 -10.4375 C 6 -10.601562 5.695312 -10.6875 5.34375 -10.6875 C 4.894531 -10.6875 4.46875 -10.550781 4.0625 -10.28125 C 3.65625 -10.019531 3.296875 -9.695312 2.984375 -9.3125 C 2.679688 -8.9375 2.445312 -8.582031 2.28125 -8.25 C 2.175781 -8.039062 2.238281 -7.914062 2.46875 -7.875 C 2.84375 -7.8125 3.210938 -7.78125 3.578125 -7.78125 Z M 3.578125 -7.78125 "/></g></g></g><g fill="#00ffff" fill-opacity="1"><g transform="translate(117.974355, 37.672705)"><g><path d="M 5.03125 0.21875 C 4 0.21875 3.039062 -0.0195312 2.15625 -0.5 C 1.269531 -0.988281 0.550781 -1.675781 0 -2.5625 C -0.550781 -3.445312 -0.828125 -4.476562 -0.828125 -5.65625 C -0.828125 -6.851562 -0.554688 -8.003906 -0.015625 -9.109375 C 0.523438 -10.222656 1.265625 -11.128906 2.203125 -11.828125 C 3.140625 -12.535156 4.207031 -12.890625 5.40625 -12.890625 C 6.4375 -12.890625 7.253906 -12.597656 7.859375 -12.015625 C 8.472656 -11.441406 8.78125 -10.765625 8.78125 -9.984375 C 8.78125 -9.359375 8.601562 -8.765625 8.25 -8.203125 C 7.894531 -7.640625 7.453125 -7.164062 6.921875 -6.78125 C 6.390625 -6.394531 5.863281 -6.113281 5.34375 -5.9375 C 4.625 -5.726562 4.015625 -5.625 3.515625 -5.625 C 3.171875 -5.625 2.878906 -5.640625 2.640625 -5.671875 C 2.398438 -5.703125 2.179688 -5.726562 1.984375 -5.75 C 1.753906 -5.789062 1.640625 -5.695312 1.640625 -5.46875 C 1.597656 -4.875 1.71875 -4.3125 2 -3.78125 C 2.289062 -3.257812 2.695312 -2.828125 3.21875 -2.484375 C 3.75 -2.148438 4.351562 -1.984375 5.03125 -1.984375 C 6.019531 -1.984375 6.90625 -2.210938 7.6875 -2.671875 C 8.476562 -3.140625 9.210938 -3.753906 9.890625 -4.515625 C 10.566406 -5.273438 11.203125 -6.078125 11.796875 -6.921875 C 12.085938 -7.335938 12.300781 -7.546875 12.4375 -7.546875 C 12.570312 -7.546875 12.671875 -7.546875 12.734375 -7.546875 C 13.179688 -7.546875 13.503906 -7.335938 13.703125 -6.921875 C 13.898438 -6.503906 13.863281 -6.101562 13.59375 -5.71875 C 12.894531 -4.726562 12.097656 -3.773438 11.203125 -2.859375 C 10.304688 -1.941406 9.335938 -1.195312 8.296875 -0.625 C 7.253906 -0.0625 6.164062 0.21875 5.03125 0.21875 Z M 3.578125 -7.78125 C 4.015625 -7.78125 4.46875 -7.851562 4.9375 -8 C 5.414062 -8.144531 5.816406 -8.359375 6.140625 -8.640625 C 6.472656 -8.929688 6.640625 -9.296875 6.640625 -9.734375 C 6.640625 -10.046875 6.507812 -10.28125 6.25 -10.4375 C 6 -10.601562 5.695312 -10.6875 5.34375 -10.6875 C 4.894531 -10.6875 4.46875 -10.550781 4.0625 -10.28125 C 3.65625 -10.019531 3.296875 -9.695312 2.984375 -9.3125 C 2.679688 -8.9375 2.445312 -8.582031 2.28125 -8.25 C 2.175781 -8.039062 2.238281 -7.914062 2.46875 -7.875 C 2.84375 -7.8125 3.210938 -7.78125 3.578125 -7.78125 Z M 3.578125 -7.78125 "/></g></g></g><g fill="#00ffff" fill-opacity="1"><g transform="translate(130.616574, 37.672705)"><g><path d="M 13.09375 -6.921875 C 13.34375 -7.296875 13.617188 -7.503906 13.921875 -7.546875 C 14.222656 -7.597656 14.484375 -7.53125 14.703125 -7.34375 C 14.929688 -7.164062 15.078125 -6.929688 15.140625 -6.640625 C 15.203125 -6.347656 15.117188 -6.039062 14.890625 -5.71875 C 14.023438 -4.4375 13.15625 -3.316406 12.28125 -2.359375 C 11.40625 -1.398438 10.484375 -0.644531 9.515625 -0.09375 C 8.546875 0.457031 7.472656 0.734375 6.296875 0.734375 C 5.410156 0.734375 4.632812 0.484375 3.96875 -0.015625 C 3.300781 -0.515625 2.785156 -1.179688 2.421875 -2.015625 C 2.066406 -2.859375 1.890625 -3.773438 1.890625 -4.765625 C 1.890625 -5.003906 1.910156 -5.300781 1.953125 -5.65625 C 1.992188 -6.019531 2.050781 -6.398438 2.125 -6.796875 C 2.164062 -6.960938 2.132812 -7.0625 2.03125 -7.09375 C 1.9375 -7.125 1.847656 -7.078125 1.765625 -6.953125 L 0.953125 -5.71875 C 0.628906 -5.28125 0.300781 -5.023438 -0.03125 -4.953125 C -0.363281 -4.878906 -0.640625 -4.925781 -0.859375 -5.09375 C -1.085938 -5.257812 -1.210938 -5.507812 -1.234375 -5.84375 C -1.253906 -6.1875 -1.128906 -6.546875 -0.859375 -6.921875 C -0.367188 -7.578125 0.195312 -8.363281 0.84375 -9.28125 C 1.5 -10.195312 2.238281 -11.285156 3.0625 -12.546875 C 3.1875 -12.773438 3.226562 -12.890625 3.1875 -12.890625 C 3.164062 -12.890625 3.148438 -12.894531 3.140625 -12.90625 C 3.128906 -12.914062 3.113281 -12.921875 3.09375 -12.921875 C 2.945312 -12.941406 2.71875 -12.90625 2.40625 -12.8125 C 2.101562 -12.71875 1.796875 -12.585938 1.484375 -12.421875 C 1.148438 -12.234375 0.828125 -12.046875 0.515625 -11.859375 C 0.210938 -11.679688 -0.0703125 -11.582031 -0.34375 -11.5625 C -0.550781 -11.539062 -0.757812 -11.601562 -0.96875 -11.75 C -1.1875 -11.90625 -1.316406 -12.179688 -1.359375 -12.578125 C -1.378906 -13.003906 -1.226562 -13.375 -0.90625 -13.6875 C -0.59375 -14 -0.195312 -14.253906 0.28125 -14.453125 C 0.769531 -14.660156 1.273438 -14.816406 1.796875 -14.921875 C 2.328125 -15.023438 2.78125 -15.078125 3.15625 -15.078125 C 3.394531 -15.097656 3.613281 -15.101562 3.8125 -15.09375 C 4.007812 -15.082031 4.203125 -15.078125 4.390625 -15.078125 C 4.554688 -15.054688 4.679688 -15.117188 4.765625 -15.265625 C 5.234375 -16.066406 5.5625 -16.703125 5.75 -17.171875 C 5.9375 -17.648438 6.117188 -18.078125 6.296875 -18.453125 C 6.484375 -18.859375 6.691406 -19.242188 6.921875 -19.609375 C 7.148438 -19.984375 7.539062 -20.171875 8.09375 -20.171875 C 8.550781 -20.171875 8.875 -19.972656 9.0625 -19.578125 C 9.257812 -19.191406 9.359375 -18.796875 9.359375 -18.390625 C 9.359375 -17.953125 9.160156 -17.445312 8.765625 -16.875 C 8.378906 -16.3125 7.941406 -15.679688 7.453125 -14.984375 C 7.285156 -14.753906 7.34375 -14.617188 7.625 -14.578125 C 8.164062 -14.515625 8.679688 -14.515625 9.171875 -14.578125 C 9.566406 -14.640625 9.914062 -14.773438 10.21875 -14.984375 C 10.53125 -15.191406 10.820312 -15.390625 11.09375 -15.578125 C 11.363281 -15.773438 11.640625 -15.875 11.921875 -15.875 C 12.296875 -15.894531 12.566406 -15.789062 12.734375 -15.5625 C 12.898438 -15.34375 12.992188 -15.117188 13.015625 -14.890625 C 13.066406 -14.398438 12.867188 -13.976562 12.421875 -13.625 C 11.984375 -13.269531 11.472656 -12.984375 10.890625 -12.765625 C 10.304688 -12.554688 9.816406 -12.429688 9.421875 -12.390625 C 8.804688 -12.347656 8.203125 -12.359375 7.609375 -12.421875 C 7.023438 -12.484375 6.554688 -12.535156 6.203125 -12.578125 C 6.046875 -12.597656 5.9375 -12.566406 5.875 -12.484375 C 5.875 -12.484375 5.851562 -12.441406 5.8125 -12.359375 C 5.476562 -11.660156 5.179688 -10.859375 4.921875 -9.953125 C 4.671875 -9.046875 4.484375 -8.132812 4.359375 -7.21875 C 4.234375 -6.300781 4.171875 -5.453125 4.171875 -4.671875 C 4.171875 -3.660156 4.359375 -2.882812 4.734375 -2.34375 C 5.117188 -1.8125 5.742188 -1.546875 6.609375 -1.546875 C 7.410156 -1.546875 8.171875 -1.796875 8.890625 -2.296875 C 9.617188 -2.804688 10.332031 -3.472656 11.03125 -4.296875 C 11.726562 -5.117188 12.414062 -5.992188 13.09375 -6.921875 Z M 13.09375 -6.921875 "/></g></g></g><g fill="#000000" fill-opacity="1"><g transform="translate(3.996096, 36.32505)"><g><path d="M 3.375 1.578125 C 2.40625 1.578125 1.65625 1.207031 1.125 0.46875 C 0.601562 -0.257812 0.34375 -1.097656 0.34375 -2.046875 C 0.34375 -2.660156 0.453125 -3.269531 0.671875 -3.875 C 0.898438 -4.488281 1.234375 -5.03125 1.671875 -5.5 C 2.328125 -6.175781 3.046875 -6.722656 3.828125 -7.140625 C 4.609375 -7.566406 5.410156 -7.929688 6.234375 -8.234375 C 7.066406 -8.535156 7.882812 -8.847656 8.6875 -9.171875 C 8.863281 -9.234375 8.960938 -9.335938 8.984375 -9.484375 C 9.398438 -10.660156 9.78125 -11.851562 10.125 -13.0625 C 10.476562 -14.28125 10.78125 -15.488281 11.03125 -16.6875 C 11.070312 -16.8125 11.054688 -16.898438 10.984375 -16.953125 C 10.910156 -17.003906 10.820312 -17 10.71875 -16.9375 C 10.289062 -16.769531 9.742188 -16.566406 9.078125 -16.328125 C 8.421875 -16.085938 7.707031 -15.875 6.9375 -15.6875 C 6.164062 -15.507812 5.390625 -15.421875 4.609375 -15.421875 C 3.878906 -15.421875 3.226562 -15.523438 2.65625 -15.734375 C 2.226562 -15.910156 2.015625 -16.21875 2.015625 -16.65625 C 2.015625 -16.84375 2.078125 -17.054688 2.203125 -17.296875 C 2.335938 -17.546875 2.5625 -17.671875 2.875 -17.671875 C 3.84375 -17.648438 4.816406 -17.6875 5.796875 -17.78125 C 6.773438 -17.875 7.664062 -18.085938 8.46875 -18.421875 C 9.375 -18.765625 10.28125 -19.238281 11.1875 -19.84375 C 11.4375 -20.0625 11.675781 -20.234375 11.90625 -20.359375 C 12.144531 -20.484375 12.359375 -20.546875 12.546875 -20.546875 C 12.796875 -20.546875 13.082031 -20.453125 13.40625 -20.265625 C 13.738281 -20.078125 13.875 -19.738281 13.8125 -19.25 C 13.601562 -17.644531 13.296875 -16.179688 12.890625 -14.859375 C 12.492188 -13.546875 12.117188 -12.207031 11.765625 -10.84375 C 11.722656 -10.71875 11.734375 -10.628906 11.796875 -10.578125 C 11.859375 -10.523438 11.953125 -10.519531 12.078125 -10.5625 C 12.898438 -10.832031 13.628906 -11.101562 14.265625 -11.375 C 14.910156 -11.65625 15.570312 -11.984375 16.25 -12.359375 C 16.925781 -12.734375 17.679688 -13.195312 18.515625 -13.75 C 18.628906 -13.789062 18.726562 -13.875 18.8125 -14 C 19.0625 -14.363281 19.296875 -14.859375 19.515625 -15.484375 C 19.734375 -16.117188 19.984375 -16.757812 20.265625 -17.40625 C 20.554688 -18.0625 20.898438 -18.617188 21.296875 -19.078125 C 21.703125 -19.546875 22.203125 -19.78125 22.796875 -19.78125 C 23.148438 -19.78125 23.476562 -19.65625 23.78125 -19.40625 C 24.09375 -19.15625 24.25 -18.753906 24.25 -18.203125 C 24.25 -17.847656 24.15625 -17.425781 23.96875 -16.9375 C 23.789062 -16.457031 23.492188 -15.910156 23.078125 -15.296875 C 22.847656 -14.878906 22.570312 -14.515625 22.25 -14.203125 C 21.9375 -13.898438 21.632812 -13.597656 21.34375 -13.296875 C 21.0625 -13.003906 20.816406 -12.640625 20.609375 -12.203125 C 20.484375 -11.890625 20.3125 -11.414062 20.09375 -10.78125 C 19.882812 -10.144531 19.664062 -9.429688 19.4375 -8.640625 C 19.207031 -7.847656 19.019531 -7.046875 18.875 -6.234375 C 18.726562 -5.429688 18.65625 -4.703125 18.65625 -4.046875 C 18.65625 -3.492188 18.773438 -2.945312 19.015625 -2.40625 C 19.253906 -1.875 19.617188 -1.609375 20.109375 -1.609375 C 20.878906 -1.609375 21.597656 -1.898438 22.265625 -2.484375 C 22.929688 -3.078125 23.5625 -3.820312 24.15625 -4.71875 C 24.757812 -5.613281 25.359375 -6.492188 25.953125 -7.359375 C 26.179688 -7.703125 26.425781 -7.875 26.6875 -7.875 C 26.957031 -7.875 27.1875 -7.757812 27.375 -7.53125 C 27.5625 -7.3125 27.679688 -7.039062 27.734375 -6.71875 C 27.785156 -6.394531 27.707031 -6.070312 27.5 -5.75 C 26.507812 -4.21875 25.617188 -2.972656 24.828125 -2.015625 C 24.035156 -1.066406 23.257812 -0.382812 22.5 0.03125 C 21.75 0.445312 20.910156 0.65625 19.984375 0.65625 C 18.796875 0.65625 17.910156 0.21875 17.328125 -0.65625 C 16.753906 -1.539062 16.46875 -2.703125 16.46875 -4.140625 C 16.46875 -4.921875 16.550781 -5.800781 16.71875 -6.78125 C 16.882812 -7.757812 17.148438 -8.828125 17.515625 -9.984375 C 17.597656 -10.328125 17.492188 -10.421875 17.203125 -10.265625 C 16.097656 -9.679688 15.035156 -9.21875 14.015625 -8.875 C 12.992188 -8.539062 11.988281 -8.164062 11 -7.75 C 10.851562 -7.6875 10.75 -7.585938 10.6875 -7.453125 C 10.300781 -6.523438 9.894531 -5.535156 9.46875 -4.484375 C 9.050781 -3.429688 8.566406 -2.445312 8.015625 -1.53125 C 7.472656 -0.613281 6.828125 0.128906 6.078125 0.703125 C 5.335938 1.285156 4.4375 1.578125 3.375 1.578125 Z M 3.703125 -0.65625 C 4.117188 -0.65625 4.539062 -0.851562 4.96875 -1.25 C 5.40625 -1.65625 5.8125 -2.160156 6.1875 -2.765625 C 6.570312 -3.367188 6.910156 -3.976562 7.203125 -4.59375 C 7.503906 -5.21875 7.726562 -5.753906 7.875 -6.203125 C 7.914062 -6.328125 7.90625 -6.421875 7.84375 -6.484375 C 7.78125 -6.546875 7.679688 -6.546875 7.546875 -6.484375 C 7.046875 -6.265625 6.503906 -6.015625 5.921875 -5.734375 C 5.347656 -5.453125 4.800781 -5.132812 4.28125 -4.78125 C 3.769531 -4.4375 3.347656 -4.054688 3.015625 -3.640625 C 2.691406 -3.234375 2.53125 -2.78125 2.53125 -2.28125 C 2.53125 -2 2.609375 -1.65625 2.765625 -1.25 C 2.921875 -0.851562 3.234375 -0.65625 3.703125 -0.65625 Z M 3.703125 -0.65625 "/></g></g></g><g fill="#000000" fill-opacity="1"><g transform="translate(30.544751, 36.32505)"><g><path d="M 8.65625 0.59375 C 7.988281 0.59375 7.4375 0.421875 7 0.078125 C 6.570312 -0.265625 6.242188 -0.675781 6.015625 -1.15625 C 5.796875 -1.644531 5.65625 -2.101562 5.59375 -2.53125 C 5.570312 -2.757812 5.46875 -2.78125 5.28125 -2.59375 C 4.582031 -1.726562 3.914062 -1.15625 3.28125 -0.875 C 2.65625 -0.601562 2.097656 -0.46875 1.609375 -0.46875 C 0.679688 -0.46875 -0.0859375 -0.773438 -0.703125 -1.390625 C -1.328125 -2.003906 -1.640625 -2.765625 -1.640625 -3.671875 C -1.640625 -4.617188 -1.445312 -5.550781 -1.0625 -6.46875 C -0.6875 -7.382812 -0.175781 -8.207031 0.46875 -8.9375 C 1.125 -9.675781 1.859375 -10.265625 2.671875 -10.703125 C 3.484375 -11.148438 4.332031 -11.375 5.21875 -11.375 C 5.53125 -11.375 5.867188 -11.34375 6.234375 -11.28125 C 6.609375 -11.21875 6.929688 -11.101562 7.203125 -10.9375 C 7.410156 -10.832031 7.5625 -10.875 7.65625 -11.0625 C 7.988281 -11.65625 8.285156 -12.050781 8.546875 -12.25 C 8.816406 -12.445312 9.054688 -12.546875 9.265625 -12.546875 C 9.515625 -12.546875 9.753906 -12.460938 9.984375 -12.296875 C 10.222656 -12.128906 10.390625 -11.898438 10.484375 -11.609375 C 10.578125 -11.328125 10.53125 -11.019531 10.34375 -10.6875 C 9.914062 -9.882812 9.5 -9.046875 9.09375 -8.171875 C 8.695312 -7.296875 8.375 -6.453125 8.125 -5.640625 C 7.875 -4.828125 7.75 -4.109375 7.75 -3.484375 C 7.75 -2.972656 7.851562 -2.546875 8.0625 -2.203125 C 8.269531 -1.867188 8.550781 -1.703125 8.90625 -1.703125 C 9.4375 -1.703125 9.992188 -1.96875 10.578125 -2.5 C 11.171875 -3.039062 11.78125 -3.710938 12.40625 -4.515625 C 13.03125 -5.316406 13.644531 -6.117188 14.25 -6.921875 C 14.507812 -7.253906 14.789062 -7.453125 15.09375 -7.515625 C 15.394531 -7.585938 15.664062 -7.546875 15.90625 -7.390625 C 16.15625 -7.242188 16.304688 -7.023438 16.359375 -6.734375 C 16.410156 -6.441406 16.3125 -6.101562 16.0625 -5.71875 C 14.769531 -3.84375 13.535156 -2.320312 12.359375 -1.15625 C 11.179688 0.0078125 9.945312 0.59375 8.65625 0.59375 Z M 1.953125 -2.65625 C 2.460938 -2.65625 2.953125 -2.882812 3.421875 -3.34375 C 3.898438 -3.8125 4.34375 -4.375 4.75 -5.03125 C 5.164062 -5.695312 5.519531 -6.347656 5.8125 -6.984375 C 6.113281 -7.617188 6.328125 -8.113281 6.453125 -8.46875 C 6.535156 -8.65625 6.484375 -8.789062 6.296875 -8.875 C 6.078125 -8.988281 5.847656 -9.070312 5.609375 -9.125 C 5.367188 -9.175781 5.15625 -9.203125 4.96875 -9.203125 C 4.4375 -9.203125 3.910156 -9.007812 3.390625 -8.625 C 2.878906 -8.25 2.421875 -7.773438 2.015625 -7.203125 C 1.617188 -6.640625 1.320312 -6.050781 1.125 -5.4375 C 0.925781 -4.820312 0.859375 -4.285156 0.921875 -3.828125 C 0.984375 -3.398438 1.109375 -3.097656 1.296875 -2.921875 C 1.484375 -2.742188 1.703125 -2.65625 1.953125 -2.65625 Z M 1.953125 -2.65625 "/></g></g></g><g fill="#000000" fill-opacity="1"><g transform="translate(45.652199, 36.32505)"><g><path d="M 3.734375 1.265625 C 3.140625 1.265625 2.554688 1.148438 1.984375 0.921875 C 1.421875 0.703125 0.96875 0.40625 0.625 0.03125 C 0.289062 -0.382812 0.0703125 -0.757812 -0.03125 -1.09375 C -0.132812 -1.4375 -0.1875 -1.742188 -0.1875 -2.015625 C -0.1875 -2.753906 0.0820312 -3.359375 0.625 -3.828125 C 1.175781 -4.304688 1.875 -4.546875 2.71875 -4.546875 C 3.332031 -4.546875 3.910156 -4.492188 4.453125 -4.390625 C 5.003906 -4.285156 5.539062 -4.171875 6.0625 -4.046875 C 6.300781 -4.003906 6.429688 -4.085938 6.453125 -4.296875 C 6.472656 -4.398438 6.484375 -4.503906 6.484375 -4.609375 C 6.484375 -4.710938 6.484375 -4.820312 6.484375 -4.9375 C 6.484375 -5.5625 6.382812 -6.273438 6.1875 -7.078125 C 6 -7.878906 5.785156 -8.65625 5.546875 -9.40625 C 5.304688 -10.15625 5.113281 -10.738281 4.96875 -11.15625 C 4.925781 -11.28125 4.859375 -11.347656 4.765625 -11.359375 C 4.679688 -11.367188 4.609375 -11.320312 4.546875 -11.21875 C 4.046875 -10.4375 3.503906 -9.597656 2.921875 -8.703125 C 2.335938 -7.804688 1.679688 -6.8125 0.953125 -5.71875 C 0.804688 -5.507812 0.65625 -5.34375 0.5 -5.21875 C 0.351562 -5.09375 0.175781 -5.019531 -0.03125 -5 C -0.445312 -4.976562 -0.738281 -5.085938 -0.90625 -5.328125 C -1.082031 -5.566406 -1.15625 -5.84375 -1.125 -6.15625 C -1.09375 -6.476562 -1.015625 -6.734375 -0.890625 -6.921875 C 0.078125 -8.316406 0.875 -9.484375 1.5 -10.421875 C 2.125 -11.359375 2.625 -12.128906 3 -12.734375 C 3.382812 -13.347656 3.671875 -13.84375 3.859375 -14.21875 C 4.253906 -15.039062 4.597656 -15.601562 4.890625 -15.90625 C 5.191406 -16.21875 5.519531 -16.375 5.875 -16.375 C 6.488281 -16.375 6.898438 -16.234375 7.109375 -15.953125 C 7.316406 -15.679688 7.421875 -15.421875 7.421875 -15.171875 C 7.421875 -14.835938 7.304688 -14.503906 7.078125 -14.171875 C 6.847656 -13.847656 6.679688 -13.582031 6.578125 -13.375 C 6.554688 -13.25 6.566406 -13.117188 6.609375 -12.984375 C 7.066406 -11.617188 7.507812 -10.238281 7.9375 -8.84375 C 8.375 -7.457031 8.59375 -6.035156 8.59375 -4.578125 C 8.59375 -4.472656 8.59375 -4.375 8.59375 -4.28125 C 8.59375 -4.1875 8.59375 -4.085938 8.59375 -3.984375 C 8.550781 -3.753906 8.613281 -3.640625 8.78125 -3.640625 C 8.84375 -3.617188 8.929688 -3.609375 9.046875 -3.609375 C 9.972656 -3.609375 10.8125 -3.945312 11.5625 -4.625 C 12.320312 -5.3125 13 -6.078125 13.59375 -6.921875 C 14.09375 -7.597656 14.609375 -7.9375 15.140625 -7.9375 C 15.390625 -7.9375 15.597656 -7.84375 15.765625 -7.65625 C 15.941406 -7.476562 16.03125 -7.285156 16.03125 -7.078125 C 16.03125 -6.890625 15.96875 -6.675781 15.84375 -6.4375 C 15.726562 -6.207031 15.578125 -5.96875 15.390625 -5.71875 C 14.421875 -4.332031 13.335938 -3.28125 12.140625 -2.5625 C 10.941406 -1.84375 9.59375 -1.472656 8.09375 -1.453125 C 7.945312 -1.453125 7.8125 -1.359375 7.6875 -1.171875 C 7.21875 -0.367188 6.628906 0.234375 5.921875 0.640625 C 5.222656 1.054688 4.492188 1.265625 3.734375 1.265625 Z M 3.734375 -0.859375 C 4.003906 -0.859375 4.269531 -0.910156 4.53125 -1.015625 C 4.800781 -1.117188 5.050781 -1.304688 5.28125 -1.578125 C 5.382812 -1.679688 5.414062 -1.773438 5.375 -1.859375 C 5.332031 -1.941406 5.25 -1.992188 5.125 -2.015625 C 4.71875 -2.109375 4.304688 -2.207031 3.890625 -2.3125 C 3.484375 -2.414062 3.070312 -2.476562 2.65625 -2.5 C 2.382812 -2.519531 2.1875 -2.472656 2.0625 -2.359375 C 1.945312 -2.242188 1.890625 -2.117188 1.890625 -1.984375 C 1.890625 -1.753906 2.070312 -1.507812 2.4375 -1.25 C 2.8125 -0.988281 3.242188 -0.859375 3.734375 -0.859375 Z M 3.734375 -0.859375 "/></g></g></g><g fill="#000000" fill-opacity="1"><g transform="translate(60.095934, 36.32505)"><g><path d="M 20.171875 -7.625 C 20.546875 -7.625 20.800781 -7.5 20.9375 -7.25 C 21.070312 -7.007812 21.125 -6.734375 21.09375 -6.421875 C 21.0625 -6.117188 20.992188 -5.882812 20.890625 -5.71875 C 20.191406 -4.644531 19.429688 -3.597656 18.609375 -2.578125 C 17.796875 -1.554688 16.929688 -0.707031 16.015625 -0.03125 C 15.097656 0.644531 14.125 0.984375 13.09375 0.984375 C 12.113281 0.984375 11.300781 0.660156 10.65625 0.015625 C 10.019531 -0.628906 9.703125 -1.476562 9.703125 -2.53125 C 9.703125 -3.457031 9.816406 -4.359375 10.046875 -5.234375 C 10.285156 -6.109375 10.40625 -7.03125 10.40625 -8 C 10.40625 -8.4375 10.332031 -8.789062 10.1875 -9.0625 C 10.050781 -9.34375 9.753906 -9.484375 9.296875 -9.484375 C 8.828125 -9.484375 8.335938 -9.328125 7.828125 -9.015625 C 7.328125 -8.710938 6.835938 -8.335938 6.359375 -7.890625 C 5.890625 -7.453125 5.472656 -7.019531 5.109375 -6.59375 C 4.753906 -6.175781 4.492188 -5.851562 4.328125 -5.625 C 4.304688 -5.5625 4.285156 -5.503906 4.265625 -5.453125 C 4.242188 -5.398438 4.210938 -5.34375 4.171875 -5.28125 C 4.003906 -4.5625 3.875 -3.910156 3.78125 -3.328125 C 3.6875 -2.753906 3.597656 -2.140625 3.515625 -1.484375 C 3.492188 -0.765625 3.351562 -0.238281 3.09375 0.09375 C 2.84375 0.425781 2.5625 0.59375 2.25 0.59375 C 1.882812 0.59375 1.566406 0.457031 1.296875 0.1875 C 1.191406 0.0625 1.125 -0.0546875 1.09375 -0.171875 C 1.0625 -0.285156 1.046875 -0.414062 1.046875 -0.5625 C 1.085938 -1.488281 1.207031 -2.410156 1.40625 -3.328125 C 1.601562 -4.242188 1.84375 -5.390625 2.125 -6.765625 C 2.164062 -6.929688 2.140625 -7.03125 2.046875 -7.0625 C 1.960938 -7.09375 1.878906 -7.046875 1.796875 -6.921875 C 1.398438 -6.367188 1.117188 -5.96875 0.953125 -5.71875 C 0.734375 -5.382812 0.460938 -5.1875 0.140625 -5.125 C -0.179688 -5.0625 -0.46875 -5.097656 -0.71875 -5.234375 C -0.976562 -5.367188 -1.140625 -5.582031 -1.203125 -5.875 C -1.265625 -6.175781 -1.148438 -6.523438 -0.859375 -6.921875 C -0.265625 -7.722656 0.4375 -8.691406 1.25 -9.828125 C 2.0625 -10.960938 2.890625 -12.207031 3.734375 -13.5625 C 3.796875 -13.664062 3.835938 -13.78125 3.859375 -13.90625 C 4.003906 -14.582031 4.21875 -15.351562 4.5 -16.21875 C 4.789062 -17.082031 5.144531 -17.957031 5.5625 -18.84375 C 5.988281 -19.726562 6.46875 -20.539062 7 -21.28125 C 7.539062 -22.03125 8.144531 -22.632812 8.8125 -23.09375 C 9.488281 -23.5625 10.226562 -23.796875 11.03125 -23.796875 C 11.894531 -23.796875 12.535156 -23.492188 12.953125 -22.890625 C 13.378906 -22.296875 13.59375 -21.585938 13.59375 -20.765625 C 13.59375 -19.691406 13.226562 -18.640625 12.5 -17.609375 C 11.769531 -16.578125 10.828125 -15.578125 9.671875 -14.609375 C 8.515625 -13.640625 7.269531 -12.710938 5.9375 -11.828125 C 5.8125 -11.710938 5.71875 -11.601562 5.65625 -11.5 C 5.507812 -11.019531 5.40625 -10.566406 5.34375 -10.140625 C 5.320312 -9.992188 5.347656 -9.90625 5.421875 -9.875 C 5.492188 -9.84375 5.59375 -9.867188 5.71875 -9.953125 C 6.539062 -10.628906 7.238281 -11.082031 7.8125 -11.3125 C 8.394531 -11.539062 8.972656 -11.65625 9.546875 -11.65625 C 10.285156 -11.65625 10.882812 -11.472656 11.34375 -11.109375 C 11.8125 -10.742188 12.148438 -10.28125 12.359375 -9.71875 C 12.566406 -9.15625 12.671875 -8.570312 12.671875 -7.96875 C 12.671875 -6.875 12.570312 -5.851562 12.375 -4.90625 C 12.175781 -3.957031 12.078125 -3.113281 12.078125 -2.375 C 12.078125 -1.96875 12.203125 -1.6875 12.453125 -1.53125 C 12.703125 -1.375 12.957031 -1.296875 13.21875 -1.296875 C 13.695312 -1.296875 14.210938 -1.492188 14.765625 -1.890625 C 15.328125 -2.296875 15.882812 -2.800781 16.4375 -3.40625 C 16.988281 -4.019531 17.488281 -4.644531 17.9375 -5.28125 C 18.394531 -5.914062 18.769531 -6.460938 19.0625 -6.921875 C 19.226562 -7.191406 19.40625 -7.375 19.59375 -7.46875 C 19.78125 -7.570312 19.972656 -7.625 20.171875 -7.625 Z M 10.75 -21.59375 C 10.257812 -21.59375 9.742188 -21.273438 9.203125 -20.640625 C 8.671875 -20.003906 8.171875 -19.203125 7.703125 -18.234375 C 7.242188 -17.265625 6.867188 -16.273438 6.578125 -15.265625 C 6.535156 -15.117188 6.550781 -15.019531 6.625 -14.96875 C 6.695312 -14.914062 6.796875 -14.929688 6.921875 -15.015625 C 7.722656 -15.609375 8.457031 -16.234375 9.125 -16.890625 C 9.800781 -17.554688 10.351562 -18.210938 10.78125 -18.859375 C 11.21875 -19.515625 11.445312 -20.085938 11.46875 -20.578125 C 11.488281 -20.992188 11.410156 -21.265625 11.234375 -21.390625 C 11.054688 -21.523438 10.894531 -21.59375 10.75 -21.59375 Z M 10.75 -21.59375 "/></g></g></g><g fill="#000000" fill-opacity="1"><g transform="translate(80.007428, 36.32505)"><g><path d="M 2.84375 0.4375 C 2.488281 0.4375 2.191406 0.289062 1.953125 0 C 1.804688 -0.144531 1.734375 -0.351562 1.734375 -0.625 C 1.734375 -0.945312 1.796875 -1.289062 1.921875 -1.65625 C 2.054688 -2.03125 2.191406 -2.382812 2.328125 -2.71875 C 2.460938 -3.050781 2.5625 -3.296875 2.625 -3.453125 C 3.039062 -4.566406 3.394531 -5.617188 3.6875 -6.609375 C 3.988281 -7.597656 4.210938 -8.472656 4.359375 -9.234375 C 4.441406 -9.671875 4.429688 -9.984375 4.328125 -10.171875 C 4.222656 -10.367188 3.953125 -10.160156 3.515625 -9.546875 C 3.023438 -8.890625 2.578125 -8.253906 2.171875 -7.640625 C 1.773438 -7.035156 1.367188 -6.394531 0.953125 -5.71875 C 0.710938 -5.34375 0.4375 -5.117188 0.125 -5.046875 C -0.1875 -4.972656 -0.460938 -5.007812 -0.703125 -5.15625 C -0.953125 -5.300781 -1.101562 -5.53125 -1.15625 -5.84375 C -1.207031 -6.164062 -1.097656 -6.523438 -0.828125 -6.921875 C -0.148438 -7.929688 0.390625 -8.738281 0.796875 -9.34375 C 1.210938 -9.957031 1.566406 -10.46875 1.859375 -10.875 C 2.160156 -11.289062 2.476562 -11.691406 2.8125 -12.078125 C 3.300781 -12.640625 3.710938 -12.976562 4.046875 -13.09375 C 4.378906 -13.21875 4.6875 -13.28125 4.96875 -13.28125 C 5.382812 -13.28125 5.75 -13.140625 6.0625 -12.859375 C 6.382812 -12.585938 6.609375 -12.1875 6.734375 -11.65625 C 6.773438 -11.550781 6.796875 -11.453125 6.796875 -11.359375 C 6.796875 -11.265625 6.796875 -11.164062 6.796875 -11.0625 C 6.796875 -10.851562 6.796875 -10.648438 6.796875 -10.453125 C 6.796875 -10.265625 6.773438 -10.078125 6.734375 -9.890625 C 6.710938 -9.742188 6.742188 -9.65625 6.828125 -9.625 C 6.910156 -9.59375 6.992188 -9.628906 7.078125 -9.734375 C 7.753906 -10.410156 8.40625 -10.90625 9.03125 -11.21875 C 9.664062 -11.539062 10.25 -11.703125 10.78125 -11.703125 C 11.394531 -11.703125 11.929688 -11.5 12.390625 -11.09375 C 12.859375 -10.695312 13.21875 -10.160156 13.46875 -9.484375 C 13.570312 -9.234375 13.707031 -9.210938 13.875 -9.421875 C 14.71875 -10.492188 15.535156 -11.300781 16.328125 -11.84375 C 17.117188 -12.394531 17.835938 -12.671875 18.484375 -12.671875 C 19.410156 -12.671875 20.097656 -12.394531 20.546875 -11.84375 C 21.003906 -11.300781 21.234375 -10.554688 21.234375 -9.609375 C 21.234375 -8.867188 21.160156 -8.113281 21.015625 -7.34375 C 20.867188 -6.582031 20.722656 -5.875 20.578125 -5.21875 C 20.429688 -4.5625 20.347656 -4.023438 20.328125 -3.609375 C 20.304688 -3.203125 20.398438 -2.921875 20.609375 -2.765625 C 20.816406 -2.609375 21.046875 -2.53125 21.296875 -2.53125 C 21.703125 -2.53125 22.269531 -2.84375 23 -3.46875 C 23.726562 -4.101562 24.703125 -5.253906 25.921875 -6.921875 C 26.148438 -7.234375 26.410156 -7.40625 26.703125 -7.4375 C 27.003906 -7.46875 27.269531 -7.40625 27.5 -7.25 C 27.726562 -7.09375 27.878906 -6.878906 27.953125 -6.609375 C 28.023438 -6.335938 27.945312 -6.039062 27.71875 -5.71875 C 26.707031 -4.269531 25.785156 -3.15625 24.953125 -2.375 C 24.117188 -1.59375 23.375 -1.046875 22.71875 -0.734375 C 22.070312 -0.429688 21.492188 -0.28125 20.984375 -0.28125 C 20.078125 -0.28125 19.363281 -0.601562 18.84375 -1.25 C 18.332031 -1.894531 18.078125 -2.640625 18.078125 -3.484375 C 18.078125 -4.253906 18.15625 -5.003906 18.3125 -5.734375 C 18.46875 -6.460938 18.617188 -7.15625 18.765625 -7.8125 C 18.921875 -8.476562 19 -9.109375 19 -9.703125 C 19 -9.910156 18.953125 -10.082031 18.859375 -10.21875 C 18.765625 -10.363281 18.597656 -10.4375 18.359375 -10.4375 C 17.921875 -10.4375 17.460938 -10.226562 16.984375 -9.8125 C 16.515625 -9.40625 16.066406 -8.921875 15.640625 -8.359375 C 15.222656 -7.796875 14.859375 -7.265625 14.546875 -6.765625 C 14.242188 -6.273438 14.03125 -5.945312 13.90625 -5.78125 C 13.164062 -4.625 12.703125 -3.507812 12.515625 -2.4375 C 12.472656 -2.132812 12.398438 -1.796875 12.296875 -1.421875 C 12.191406 -1.046875 12.035156 -0.71875 11.828125 -0.4375 C 11.628906 -0.164062 11.351562 -0.03125 11 -0.03125 C 10.382812 -0.03125 10.015625 -0.238281 9.890625 -0.65625 C 9.765625 -1.082031 9.785156 -1.609375 9.953125 -2.234375 C 10.117188 -2.867188 10.34375 -3.515625 10.625 -4.171875 C 10.976562 -4.910156 11.226562 -5.644531 11.375 -6.375 C 11.519531 -7.113281 11.570312 -7.78125 11.53125 -8.375 C 11.507812 -8.863281 11.40625 -9.175781 11.21875 -9.3125 C 11.03125 -9.445312 10.832031 -9.515625 10.625 -9.515625 C 10.320312 -9.515625 9.957031 -9.382812 9.53125 -9.125 C 9.113281 -8.875 8.707031 -8.578125 8.3125 -8.234375 C 7.914062 -7.890625 7.578125 -7.546875 7.296875 -7.203125 C 6.796875 -6.554688 6.40625 -6.015625 6.125 -5.578125 C 5.851562 -5.148438 5.644531 -4.773438 5.5 -4.453125 C 5.351562 -4.140625 5.207031 -3.828125 5.0625 -3.515625 C 4.882812 -3.109375 4.726562 -2.664062 4.59375 -2.1875 C 4.457031 -1.71875 4.320312 -1.28125 4.1875 -0.875 C 4.050781 -0.476562 3.890625 -0.175781 3.703125 0.03125 C 3.554688 0.195312 3.40625 0.304688 3.25 0.359375 C 3.101562 0.410156 2.96875 0.4375 2.84375 0.4375 Z M 2.84375 0.4375 "/></g></g></g><g fill="#000000" fill-opacity="1"><g transform="translate(106.77732, 36.32505)"><g><path d="M 5.03125 0.21875 C 4 0.21875 3.039062 -0.0195312 2.15625 -0.5 C 1.269531 -0.988281 0.550781 -1.675781 0 -2.5625 C -0.550781 -3.445312 -0.828125 -4.476562 -0.828125 -5.65625 C -0.828125 -6.851562 -0.554688 -8.003906 -0.015625 -9.109375 C 0.523438 -10.222656 1.265625 -11.128906 2.203125 -11.828125 C 3.140625 -12.535156 4.207031 -12.890625 5.40625 -12.890625 C 6.4375 -12.890625 7.253906 -12.597656 7.859375 -12.015625 C 8.472656 -11.441406 8.78125 -10.765625 8.78125 -9.984375 C 8.78125 -9.359375 8.601562 -8.765625 8.25 -8.203125 C 7.894531 -7.640625 7.453125 -7.164062 6.921875 -6.78125 C 6.390625 -6.394531 5.863281 -6.113281 5.34375 -5.9375 C 4.625 -5.726562 4.015625 -5.625 3.515625 -5.625 C 3.171875 -5.625 2.878906 -5.640625 2.640625 -5.671875 C 2.398438 -5.703125 2.179688 -5.726562 1.984375 -5.75 C 1.753906 -5.789062 1.640625 -5.695312 1.640625 -5.46875 C 1.597656 -4.875 1.71875 -4.3125 2 -3.78125 C 2.289062 -3.257812 2.695312 -2.828125 3.21875 -2.484375 C 3.75 -2.148438 4.351562 -1.984375 5.03125 -1.984375 C 6.019531 -1.984375 6.90625 -2.210938 7.6875 -2.671875 C 8.476562 -3.140625 9.210938 -3.753906 9.890625 -4.515625 C 10.566406 -5.273438 11.203125 -6.078125 11.796875 -6.921875 C 12.085938 -7.335938 12.300781 -7.546875 12.4375 -7.546875 C 12.570312 -7.546875 12.671875 -7.546875 12.734375 -7.546875 C 13.179688 -7.546875 13.503906 -7.335938 13.703125 -6.921875 C 13.898438 -6.503906 13.863281 -6.101562 13.59375 -5.71875 C 12.894531 -4.726562 12.097656 -3.773438 11.203125 -2.859375 C 10.304688 -1.941406 9.335938 -1.195312 8.296875 -0.625 C 7.253906 -0.0625 6.164062 0.21875 5.03125 0.21875 Z M 3.578125 -7.78125 C 4.015625 -7.78125 4.46875 -7.851562 4.9375 -8 C 5.414062 -8.144531 5.816406 -8.359375 6.140625 -8.640625 C 6.472656 -8.929688 6.640625 -9.296875 6.640625 -9.734375 C 6.640625 -10.046875 6.507812 -10.28125 6.25 -10.4375 C 6 -10.601562 5.695312 -10.6875 5.34375 -10.6875 C 4.894531 -10.6875 4.46875 -10.550781 4.0625 -10.28125 C 3.65625 -10.019531 3.296875 -9.695312 2.984375 -9.3125 C 2.679688 -8.9375 2.445312 -8.582031 2.28125 -8.25 C 2.175781 -8.039062 2.238281 -7.914062 2.46875 -7.875 C 2.84375 -7.8125 3.210938 -7.78125 3.578125 -7.78125 Z M 3.578125 -7.78125 "/></g></g></g><g fill="#000000" fill-opacity="1"><g transform="translate(119.419538, 36.32505)"><g><path d="M 5.03125 0.21875 C 4 0.21875 3.039062 -0.0195312 2.15625 -0.5 C 1.269531 -0.988281 0.550781 -1.675781 0 -2.5625 C -0.550781 -3.445312 -0.828125 -4.476562 -0.828125 -5.65625 C -0.828125 -6.851562 -0.554688 -8.003906 -0.015625 -9.109375 C 0.523438 -10.222656 1.265625 -11.128906 2.203125 -11.828125 C 3.140625 -12.535156 4.207031 -12.890625 5.40625 -12.890625 C 6.4375 -12.890625 7.253906 -12.597656 7.859375 -12.015625 C 8.472656 -11.441406 8.78125 -10.765625 8.78125 -9.984375 C 8.78125 -9.359375 8.601562 -8.765625 8.25 -8.203125 C 7.894531 -7.640625 7.453125 -7.164062 6.921875 -6.78125 C 6.390625 -6.394531 5.863281 -6.113281 5.34375 -5.9375 C 4.625 -5.726562 4.015625 -5.625 3.515625 -5.625 C 3.171875 -5.625 2.878906 -5.640625 2.640625 -5.671875 C 2.398438 -5.703125 2.179688 -5.726562 1.984375 -5.75 C 1.753906 -5.789062 1.640625 -5.695312 1.640625 -5.46875 C 1.597656 -4.875 1.71875 -4.3125 2 -3.78125 C 2.289062 -3.257812 2.695312 -2.828125 3.21875 -2.484375 C 3.75 -2.148438 4.351562 -1.984375 5.03125 -1.984375 C 6.019531 -1.984375 6.90625 -2.210938 7.6875 -2.671875 C 8.476562 -3.140625 9.210938 -3.753906 9.890625 -4.515625 C 10.566406 -5.273438 11.203125 -6.078125 11.796875 -6.921875 C 12.085938 -7.335938 12.300781 -7.546875 12.4375 -7.546875 C 12.570312 -7.546875 12.671875 -7.546875 12.734375 -7.546875 C 13.179688 -7.546875 13.503906 -7.335938 13.703125 -6.921875 C 13.898438 -6.503906 13.863281 -6.101562 13.59375 -5.71875 C 12.894531 -4.726562 12.097656 -3.773438 11.203125 -2.859375 C 10.304688 -1.941406 9.335938 -1.195312 8.296875 -0.625 C 7.253906 -0.0625 6.164062 0.21875 5.03125 0.21875 Z M 3.578125 -7.78125 C 4.015625 -7.78125 4.46875 -7.851562 4.9375 -8 C 5.414062 -8.144531 5.816406 -8.359375 6.140625 -8.640625 C 6.472656 -8.929688 6.640625 -9.296875 6.640625 -9.734375 C 6.640625 -10.046875 6.507812 -10.28125 6.25 -10.4375 C 6 -10.601562 5.695312 -10.6875 5.34375 -10.6875 C 4.894531 -10.6875 4.46875 -10.550781 4.0625 -10.28125 C 3.65625 -10.019531 3.296875 -9.695312 2.984375 -9.3125 C 2.679688 -8.9375 2.445312 -8.582031 2.28125 -8.25 C 2.175781 -8.039062 2.238281 -7.914062 2.46875 -7.875 C 2.84375 -7.8125 3.210938 -7.78125 3.578125 -7.78125 Z M 3.578125 -7.78125 "/></g></g></g><g fill="#000000" fill-opacity="1"><g transform="translate(132.061757, 36.32505)"><g><path d="M 13.09375 -6.921875 C 13.34375 -7.296875 13.617188 -7.503906 13.921875 -7.546875 C 14.222656 -7.597656 14.484375 -7.53125 14.703125 -7.34375 C 14.929688 -7.164062 15.078125 -6.929688 15.140625 -6.640625 C 15.203125 -6.347656 15.117188 -6.039062 14.890625 -5.71875 C 14.023438 -4.4375 13.15625 -3.316406 12.28125 -2.359375 C 11.40625 -1.398438 10.484375 -0.644531 9.515625 -0.09375 C 8.546875 0.457031 7.472656 0.734375 6.296875 0.734375 C 5.410156 0.734375 4.632812 0.484375 3.96875 -0.015625 C 3.300781 -0.515625 2.785156 -1.179688 2.421875 -2.015625 C 2.066406 -2.859375 1.890625 -3.773438 1.890625 -4.765625 C 1.890625 -5.003906 1.910156 -5.300781 1.953125 -5.65625 C 1.992188 -6.019531 2.050781 -6.398438 2.125 -6.796875 C 2.164062 -6.960938 2.132812 -7.0625 2.03125 -7.09375 C 1.9375 -7.125 1.847656 -7.078125 1.765625 -6.953125 L 0.953125 -5.71875 C 0.628906 -5.28125 0.300781 -5.023438 -0.03125 -4.953125 C -0.363281 -4.878906 -0.640625 -4.925781 -0.859375 -5.09375 C -1.085938 -5.257812 -1.210938 -5.507812 -1.234375 -5.84375 C -1.253906 -6.1875 -1.128906 -6.546875 -0.859375 -6.921875 C -0.367188 -7.578125 0.195312 -8.363281 0.84375 -9.28125 C 1.5 -10.195312 2.238281 -11.285156 3.0625 -12.546875 C 3.1875 -12.773438 3.226562 -12.890625 3.1875 -12.890625 C 3.164062 -12.890625 3.148438 -12.894531 3.140625 -12.90625 C 3.128906 -12.914062 3.113281 -12.921875 3.09375 -12.921875 C 2.945312 -12.941406 2.71875 -12.90625 2.40625 -12.8125 C 2.101562 -12.71875 1.796875 -12.585938 1.484375 -12.421875 C 1.148438 -12.234375 0.828125 -12.046875 0.515625 -11.859375 C 0.210938 -11.679688 -0.0703125 -11.582031 -0.34375 -11.5625 C -0.550781 -11.539062 -0.757812 -11.601562 -0.96875 -11.75 C -1.1875 -11.90625 -1.316406 -12.179688 -1.359375 -12.578125 C -1.378906 -13.003906 -1.226562 -13.375 -0.90625 -13.6875 C -0.59375 -14 -0.195312 -14.253906 0.28125 -14.453125 C 0.769531 -14.660156 1.273438 -14.816406 1.796875 -14.921875 C 2.328125 -15.023438 2.78125 -15.078125 3.15625 -15.078125 C 3.394531 -15.097656 3.613281 -15.101562 3.8125 -15.09375 C 4.007812 -15.082031 4.203125 -15.078125 4.390625 -15.078125 C 4.554688 -15.054688 4.679688 -15.117188 4.765625 -15.265625 C 5.234375 -16.066406 5.5625 -16.703125 5.75 -17.171875 C 5.9375 -17.648438 6.117188 -18.078125 6.296875 -18.453125 C 6.484375 -18.859375 6.691406 -19.242188 6.921875 -19.609375 C 7.148438 -19.984375 7.539062 -20.171875 8.09375 -20.171875 C 8.550781 -20.171875 8.875 -19.972656 9.0625 -19.578125 C 9.257812 -19.191406 9.359375 -18.796875 9.359375 -18.390625 C 9.359375 -17.953125 9.160156 -17.445312 8.765625 -16.875 C 8.378906 -16.3125 7.941406 -15.679688 7.453125 -14.984375 C 7.285156 -14.753906 7.34375 -14.617188 7.625 -14.578125 C 8.164062 -14.515625 8.679688 -14.515625 9.171875 -14.578125 C 9.566406 -14.640625 9.914062 -14.773438 10.21875 -14.984375 C 10.53125 -15.191406 10.820312 -15.390625 11.09375 -15.578125 C 11.363281 -15.773438 11.640625 -15.875 11.921875 -15.875 C 12.296875 -15.894531 12.566406 -15.789062 12.734375 -15.5625 C 12.898438 -15.34375 12.992188 -15.117188 13.015625 -14.890625 C 13.066406 -14.398438 12.867188 -13.976562 12.421875 -13.625 C 11.984375 -13.269531 11.472656 -12.984375 10.890625 -12.765625 C 10.304688 -12.554688 9.816406 -12.429688 9.421875 -12.390625 C 8.804688 -12.347656 8.203125 -12.359375 7.609375 -12.421875 C 7.023438 -12.484375 6.554688 -12.535156 6.203125 -12.578125 C 6.046875 -12.597656 5.9375 -12.566406 5.875 -12.484375 C 5.875 -12.484375 5.851562 -12.441406 5.8125 -12.359375 C 5.476562 -11.660156 5.179688 -10.859375 4.921875 -9.953125 C 4.671875 -9.046875 4.484375 -8.132812 4.359375 -7.21875 C 4.234375 -6.300781 4.171875 -5.453125 4.171875 -4.671875 C 4.171875 -3.660156 4.359375 -2.882812 4.734375 -2.34375 C 5.117188 -1.8125 5.742188 -1.546875 6.609375 -1.546875 C 7.410156 -1.546875 8.171875 -1.796875 8.890625 -2.296875 C 9.617188 -2.804688 10.332031 -3.472656 11.03125 -4.296875 C 11.726562 -5.117188 12.414062 -5.992188 13.09375 -6.921875 Z M 13.09375 -6.921875 "/></g></g></g><g fill="#ff0000" fill-opacity="1"><g transform="translate(38.247809, 54.234192)"><g><path d="M 0 -4.734375 L 1.578125 -4.734375 L 1.578125 -1.578125 L 0 -1.578125 Z M 0 -9.46875 L 0 -14.203125 L 1.578125 -14.203125 L 1.578125 -9.46875 Z M 1.578125 0 L 1.578125 -1.578125 L 7.890625 -1.578125 L 7.890625 0 Z M 1.578125 -7.890625 L 1.578125 -9.46875 L 7.890625 -9.46875 L 7.890625 -7.890625 Z M 1.578125 -14.203125 L 1.578125 -15.78125 L 7.890625 -15.78125 L 7.890625 -14.203125 Z M 7.890625 -1.578125 L 7.890625 -7.890625 L 9.46875 -7.890625 L 9.46875 -1.578125 Z M 7.890625 -12.625 L 7.890625 -14.203125 L 9.46875 -14.203125 L 9.46875 -12.625 Z M 7.890625 -12.625 "/></g></g></g><g fill="#ff0000" fill-opacity="1"><g transform="translate(50.89103, 54.234192)"><g><path d="M 0 -1.578125 L 1.578125 -1.578125 L 1.578125 0 L 0 0 Z M 0 -1.578125 "/></g></g></g><g fill="#ff0000" fill-opacity="1"><g transform="translate(55.64892, 54.234192)"><g/></g></g><g fill="#ff0000" fill-opacity="1"><g transform="translate(61.983875, 54.234192)"><g><path d="M 0 -4.734375 L 1.578125 -4.734375 L 1.578125 -1.578125 L 0 -1.578125 Z M 0 -9.46875 L 0 -14.203125 L 1.578125 -14.203125 L 1.578125 -9.46875 Z M 1.578125 0 L 1.578125 -1.578125 L 7.890625 -1.578125 L 7.890625 0 Z M 1.578125 -7.890625 L 1.578125 -9.46875 L 7.890625 -9.46875 L 7.890625 -7.890625 Z M 1.578125 -14.203125 L 1.578125 -15.78125 L 7.890625 -15.78125 L 7.890625 -14.203125 Z M 7.890625 -1.578125 L 7.890625 -7.890625 L 9.46875 -7.890625 L 9.46875 -1.578125 Z M 7.890625 -12.625 L 7.890625 -14.203125 L 9.46875 -14.203125 L 9.46875 -12.625 Z M 7.890625 -12.625 "/></g></g></g><g fill="#ff0000" fill-opacity="1"><g transform="translate(74.627096, 54.234192)"><g><path d="M 0 -14.203125 L 1.578125 -14.203125 L 1.578125 -11.046875 L 7.890625 -11.046875 L 7.890625 -14.203125 L 9.46875 -14.203125 L 9.46875 0 L 7.890625 0 L 7.890625 -9.46875 L 1.578125 -9.46875 L 1.578125 0 L 0 0 Z M 1.578125 -14.203125 L 1.578125 -15.78125 L 7.890625 -15.78125 L 7.890625 -14.203125 Z M 1.578125 -14.203125 "/></g></g></g><g fill="#ff0000" fill-opacity="1"><g transform="translate(87.270317, 54.234192)"><g><path d="M 3.15625 -1.578125 L 4.734375 -1.578125 L 4.734375 0 L 0 0 L 0 -1.578125 L 1.578125 -1.578125 L 1.578125 -14.203125 L 0 -14.203125 L 0 -15.78125 L 4.734375 -15.78125 L 4.734375 -14.203125 L 3.15625 -14.203125 Z M 3.15625 -1.578125 "/></g></g></g><g fill="#ff0000" fill-opacity="1"><g transform="translate(95.182337, 54.234192)"><g><path d="M 0 -14.203125 L 1.578125 -14.203125 L 1.578125 0 L 0 0 Z M 1.578125 -14.203125 L 1.578125 -15.78125 L 7.890625 -15.78125 L 7.890625 -14.203125 Z M 7.890625 0 L 7.890625 -14.203125 L 9.46875 -14.203125 L 9.46875 0 Z M 7.890625 0 "/></g></g></g><g fill="#ff0000" fill-opacity="1"><g transform="translate(107.825557, 54.234192)"><g><path d="M 3.15625 -1.578125 L 4.734375 -1.578125 L 4.734375 0 L 0 0 L 0 -1.578125 L 1.578125 -1.578125 L 1.578125 -14.203125 L 0 -14.203125 L 0 -15.78125 L 4.734375 -15.78125 L 4.734375 -14.203125 L 3.15625 -14.203125 Z M 3.15625 -1.578125 "/></g></g></g><g fill="#00ffff" fill-opacity="1"><g transform="translate(35.844301, 56.475499)"><g><path d="M 0 -4.734375 L 1.578125 -4.734375 L 1.578125 -1.578125 L 0 -1.578125 Z M 0 -9.46875 L 0 -14.203125 L 1.578125 -14.203125 L 1.578125 -9.46875 Z M 1.578125 0 L 1.578125 -1.578125 L 7.890625 -1.578125 L 7.890625 0 Z M 1.578125 -7.890625 L 1.578125 -9.46875 L 7.890625 -9.46875 L 7.890625 -7.890625 Z M 1.578125 -14.203125 L 1.578125 -15.78125 L 7.890625 -15.78125 L 7.890625 -14.203125 Z M 7.890625 -1.578125 L 7.890625 -7.890625 L 9.46875 -7.890625 L 9.46875 -1.578125 Z M 7.890625 -12.625 L 7.890625 -14.203125 L 9.46875 -14.203125 L 9.46875 -12.625 Z M 7.890625 -12.625 "/></g></g></g><g fill="#00ffff" fill-opacity="1"><g transform="translate(48.487522, 56.475499)"><g><path d="M 0 -1.578125 L 1.578125 -1.578125 L 1.578125 0 L 0 0 Z M 0 -1.578125 "/></g></g></g><g fill="#00ffff" fill-opacity="1"><g transform="translate(53.245412, 56.475499)"><g/></g></g><g fill="#00ffff" fill-opacity="1"><g transform="translate(59.580368, 56.475499)"><g><path d="M 0 -4.734375 L 1.578125 -4.734375 L 1.578125 -1.578125 L 0 -1.578125 Z M 0 -9.46875 L 0 -14.203125 L 1.578125 -14.203125 L 1.578125 -9.46875 Z M 1.578125 0 L 1.578125 -1.578125 L 7.890625 -1.578125 L 7.890625 0 Z M 1.578125 -7.890625 L 1.578125 -9.46875 L 7.890625 -9.46875 L 7.890625 -7.890625 Z M 1.578125 -14.203125 L 1.578125 -15.78125 L 7.890625 -15.78125 L 7.890625 -14.203125 Z M 7.890625 -1.578125 L 7.890625 -7.890625 L 9.46875 -7.890625 L 9.46875 -1.578125 Z M 7.890625 -12.625 L 7.890625 -14.203125 L 9.46875 -14.203125 L 9.46875 -12.625 Z M 7.890625 -12.625 "/></g></g></g><g fill="#00ffff" fill-opacity="1"><g transform="translate(72.223588, 56.475499)"><g><path d="M 0 -14.203125 L 1.578125 -14.203125 L 1.578125 -11.046875 L 7.890625 -11.046875 L 7.890625 -14.203125 L 9.46875 -14.203125 L 9.46875 0 L 7.890625 0 L 7.890625 -9.46875 L 1.578125 -9.46875 L 1.578125 0 L 0 0 Z M 1.578125 -14.203125 L 1.578125 -15.78125 L 7.890625 -15.78125 L 7.890625 -14.203125 Z M 1.578125 -14.203125 "/></g></g></g><g fill="#00ffff" fill-opacity="1"><g transform="translate(84.866809, 56.475499)"><g><path d="M 3.15625 -1.578125 L 4.734375 -1.578125 L 4.734375 0 L 0 0 L 0 -1.578125 L 1.578125 -1.578125 L 1.578125 -14.203125 L 0 -14.203125 L 0 -15.78125 L 4.734375 -15.78125 L 4.734375 -14.203125 L 3.15625 -14.203125 Z M 3.15625 -1.578125 "/></g></g></g><g fill="#00ffff" fill-opacity="1"><g transform="translate(92.778829, 56.475499)"><g><path d="M 0 -14.203125 L 1.578125 -14.203125 L 1.578125 0 L 0 0 Z M 1.578125 -14.203125 L 1.578125 -15.78125 L 7.890625 -15.78125 L 7.890625 -14.203125 Z M 7.890625 0 L 7.890625 -14.203125 L 9.46875 -14.203125 L 9.46875 0 Z M 7.890625 0 "/></g></g></g><g fill="#00ffff" fill-opacity="1"><g transform="translate(105.42205, 56.475499)"><g><path d="M 3.15625 -1.578125 L 4.734375 -1.578125 L 4.734375 0 L 0 0 L 0 -1.578125 L 1.578125 -1.578125 L 1.578125 -14.203125 L 0 -14.203125 L 0 -15.78125 L 4.734375 -15.78125 L 4.734375 -14.203125 L 3.15625 -14.203125 Z M 3.15625 -1.578125 "/></g></g></g><g fill="#000000" fill-opacity="1"><g transform="translate(37.046055, 55.354845)"><g><path d="M 0 -4.734375 L 1.578125 -4.734375 L 1.578125 -1.578125 L 0 -1.578125 Z M 0 -9.46875 L 0 -14.203125 L 1.578125 -14.203125 L 1.578125 -9.46875 Z M 1.578125 0 L 1.578125 -1.578125 L 7.890625 -1.578125 L 7.890625 0 Z M 1.578125 -7.890625 L 1.578125 -9.46875 L 7.890625 -9.46875 L 7.890625 -7.890625 Z M 1.578125 -14.203125 L 1.578125 -15.78125 L 7.890625 -15.78125 L 7.890625 -14.203125 Z M 7.890625 -1.578125 L 7.890625 -7.890625 L 9.46875 -7.890625 L 9.46875 -1.578125 Z M 7.890625 -12.625 L 7.890625 -14.203125 L 9.46875 -14.203125 L 9.46875 -12.625 Z M 7.890625 -12.625 "/></g></g></g><g fill="#000000" fill-opacity="1"><g transform="translate(49.689276, 55.354845)"><g><path d="M 0 -1.578125 L 1.578125 -1.578125 L 1.578125 0 L 0 0 Z M 0 -1.578125 "/></g></g></g><g fill="#000000" fill-opacity="1"><g transform="translate(54.447166, 55.354845)"><g/></g></g><g fill="#000000" fill-opacity="1"><g transform="translate(60.782122, 55.354845)"><g><path d="M 0 -4.734375 L 1.578125 -4.734375 L 1.578125 -1.578125 L 0 -1.578125 Z M 0 -9.46875 L 0 -14.203125 L 1.578125 -14.203125 L 1.578125 -9.46875 Z M 1.578125 0 L 1.578125 -1.578125 L 7.890625 -1.578125 L 7.890625 0 Z M 1.578125 -7.890625 L 1.578125 -9.46875 L 7.890625 -9.46875 L 7.890625 -7.890625 Z M 1.578125 -14.203125 L 1.578125 -15.78125 L 7.890625 -15.78125 L 7.890625 -14.203125 Z M 7.890625 -1.578125 L 7.890625 -7.890625 L 9.46875 -7.890625 L 9.46875 -1.578125 Z M 7.890625 -12.625 L 7.890625 -14.203125 L 9.46875 -14.203125 L 9.46875 -12.625 Z M 7.890625 -12.625 "/></g></g></g><g fill="#000000" fill-opacity="1"><g transform="translate(73.425342, 55.354845)"><g><path d="M 0 -14.203125 L 1.578125 -14.203125 L 1.578125 -11.046875 L 7.890625 -11.046875 L 7.890625 -14.203125 L 9.46875 -14.203125 L 9.46875 0 L 7.890625 0 L 7.890625 -9.46875 L 1.578125 -9.46875 L 1.578125 0 L 0 0 Z M 1.578125 -14.203125 L 1.578125 -15.78125 L 7.890625 -15.78125 L 7.890625 -14.203125 Z M 1.578125 -14.203125 "/></g></g></g><g fill="#000000" fill-opacity="1"><g transform="translate(86.068563, 55.354845)"><g><path d="M 3.15625 -1.578125 L 4.734375 -1.578125 L 4.734375 0 L 0 0 L 0 -1.578125 L 1.578125 -1.578125 L 1.578125 -14.203125 L 0 -14.203125 L 0 -15.78125 L 4.734375 -15.78125 L 4.734375 -14.203125 L 3.15625 -14.203125 Z M 3.15625 -1.578125 "/></g></g></g><g fill="#000000" fill-opacity="1"><g transform="translate(93.980583, 55.354845)"><g><path d="M 0 -14.203125 L 1.578125 -14.203125 L 1.578125 0 L 0 0 Z M 1.578125 -14.203125 L 1.578125 -15.78125 L 7.890625 -15.78125 L 7.890625 -14.203125 Z M 7.890625 0 L 7.890625 -14.203125 L 9.46875 -14.203125 L 9.46875 0 Z M 7.890625 0 "/></g></g></g><g fill="#000000" fill-opacity="1"><g transform="translate(106.623804, 55.354845)"><g><path d="M 3.15625 -1.578125 L 4.734375 -1.578125 L 4.734375 0 L 0 0 L 0 -1.578125 L 1.578125 -1.578125 L 1.578125 -14.203125 L 0 -14.203125 L 0 -15.78125 L 4.734375 -15.78125 L 4.734375 -14.203125 L 3.15625 -14.203125 Z M 3.15625 -1.578125 "/></g></g></g></svg>