<svg xmlns="http://www.w3.org/2000/svg" xmlns:xlink="http://www.w3.org/1999/xlink" width="500" zoomAndPan="magnify" viewBox="0 0 375 374.999991" height="500" preserveAspectRatio="xMidYMid meet" version="1.0"><path fill="#004aad" d="M 340.992188 82.824219 L 204.304688 6 C 193.9375 0.195312 181.0625 0.195312 170.695312 6 L 34.007812 82.824219 C 23.546875 88.691406 17.046875 99.691406 17.046875 111.488281 L 17.046875 265.136719 C 17.046875 276.929688 23.546875 287.933594 34.007812 293.800781 L 170.695312 370.625 C 175.894531 373.542969 181.699219 375 187.5 375 C 193.300781 375 199.105469 373.542969 204.304688 370.625 L 340.992188 293.800781 C 351.453125 287.933594 357.953125 276.929688 357.953125 265.136719 L 357.953125 111.488281 C 357.953125 99.691406 351.453125 88.691406 340.992188 82.824219 Z M 187.5 285.714844 C 133.789062 285.714844 90.097656 242.023438 90.097656 188.3125 C 90.097656 134.601562 133.789062 90.910156 187.5 90.910156 C 218.191406 90.910156 246.539062 105.144531 264.960938 129.402344 L 229.382812 149.976562 C 218.699219 138.277344 203.511719 131.492188 187.5 131.492188 C 156.175781 131.492188 130.683594 156.984375 130.683594 188.3125 C 130.683594 219.636719 156.175781 245.128906 187.5 245.128906 C 203.511719 245.128906 218.699219 238.34375 229.382812 226.644531 L 264.960938 247.222656 C 246.539062 271.476562 218.191406 285.714844 187.5 285.714844 Z M 284.902344 196.429688 L 268.667969 196.429688 L 268.667969 212.664062 L 252.433594 212.664062 L 252.433594 196.429688 L 236.203125 196.429688 L 236.203125 180.195312 L 252.433594 180.195312 L 252.433594 163.960938 L 268.667969 163.960938 L 268.667969 180.195312 L 284.902344 180.195312 Z M 341.722656 196.429688 L 325.488281 196.429688 L 325.488281 212.664062 L 309.253906 212.664062 L 309.253906 196.429688 L 293.019531 196.429688 L 293.019531 180.195312 L 309.253906 180.195312 L 309.253906 163.960938 L 325.488281 163.960938 L 325.488281 180.195312 L 341.722656 180.195312 Z M 341.722656 196.429688 " fill-opacity="1" fill-rule="nonzero"/></svg>