<svg xmlns="http://www.w3.org/2000/svg" xmlns:xlink="http://www.w3.org/1999/xlink" width="500" zoomAndPan="magnify" viewBox="0 0 375 374.999991" height="500" preserveAspectRatio="xMidYMid meet" version="1.0"><defs><clipPath id="c138aac9ee"><path d="M 274.472656 152.421875 L 347.894531 152.421875 L 347.894531 227.726562 L 274.472656 227.726562 Z M 274.472656 152.421875 " clip-rule="nonzero"/></clipPath><clipPath id="d4ca55a61e"><path d="M 347.851562 178.949219 C 347.925781 202.648438 345.148438 208.726562 341.625 213.300781 C 338.023438 217.875 332.773438 221.925781 327.449219 224.324219 C 322.199219 226.726562 315.601562 227.925781 309.824219 227.550781 C 304.050781 227.25 297.675781 225.226562 292.648438 222.226562 C 287.699219 219.226562 282.976562 214.5 279.976562 209.550781 C 276.976562 204.601562 275.023438 198.226562 274.648438 192.375 C 274.273438 186.601562 275.476562 180.074219 277.875 174.75 C 280.273438 169.425781 284.398438 164.175781 288.976562 160.648438 C 293.550781 157.050781 299.625 154.273438 305.324219 153.226562 C 311.023438 152.175781 317.699219 152.625 323.25 154.351562 C 328.800781 156.074219 338.625 163.648438 338.625 163.648438 " clip-rule="nonzero"/></clipPath><clipPath id="141ebf1145"><path d="M 235 153.097656 L 308.609375 153.097656 L 308.609375 228.402344 L 235 228.402344 Z M 235 153.097656 " clip-rule="nonzero"/></clipPath><clipPath id="a4397fd2d9"><path d="M 308.324219 179.625 C 308.324219 203.25 305.625 209.398438 302.023438 213.976562 C 298.425781 218.550781 293.175781 222.601562 287.925781 225 C 282.601562 227.398438 276.074219 228.601562 270.226562 228.226562 C 264.449219 227.925781 258.074219 225.898438 253.125 222.898438 C 248.101562 219.898438 243.449219 215.175781 240.449219 210.226562 C 237.375 205.199219 235.425781 198.898438 235.050781 193.050781 C 234.75 187.273438 235.949219 180.75 238.351562 175.425781 C 240.675781 170.101562 244.800781 164.851562 249.375 161.324219 C 253.949219 157.726562 260.023438 154.949219 265.726562 153.898438 C 271.5 152.851562 278.101562 153.300781 283.648438 155.023438 C 289.199219 156.75 299.023438 164.324219 299.023438 164.324219 " clip-rule="nonzero"/></clipPath></defs><path fill="#387eb8" d="M 340.992188 82.824219 L 204.304688 6 C 193.9375 0.195312 181.0625 0.195312 170.695312 6 L 34.007812 82.824219 C 23.546875 88.691406 17.046875 99.691406 17.046875 111.488281 L 17.046875 265.136719 C 17.046875 276.929688 23.546875 287.933594 34.007812 293.800781 L 170.695312 370.625 C 175.894531 373.542969 181.699219 375 187.5 375 C 193.300781 375 199.105469 373.542969 204.304688 370.625 L 340.992188 293.800781 C 351.453125 287.933594 357.953125 276.929688 357.953125 265.136719 L 357.953125 111.488281 C 357.953125 99.691406 351.453125 88.691406 340.992188 82.824219 Z M 187.5 285.714844 C 133.789062 285.714844 90.097656 242.023438 90.097656 188.3125 C 90.097656 134.601562 133.789062 90.910156 187.5 90.910156 C 218.191406 90.910156 246.539062 105.144531 264.960938 129.402344 L 229.382812 149.976562 C 218.699219 138.277344 203.511719 131.492188 187.5 131.492188 C 156.175781 131.492188 130.683594 156.984375 130.683594 188.3125 C 130.683594 219.636719 156.175781 245.128906 187.5 245.128906 C 203.511719 245.128906 218.699219 238.34375 229.382812 226.644531 L 264.960938 247.222656 C 246.539062 271.476562 218.191406 285.714844 187.5 285.714844 Z M 284.902344 196.429688 L 268.667969 196.429688 L 268.667969 212.664062 L 252.433594 212.664062 L 252.433594 196.429688 L 236.203125 196.429688 L 236.203125 180.195312 L 252.433594 180.195312 L 252.433594 163.960938 L 268.667969 163.960938 L 268.667969 180.195312 L 284.902344 180.195312 Z M 341.722656 196.429688 L 325.488281 196.429688 L 325.488281 212.664062 L 309.253906 212.664062 L 309.253906 196.429688 L 293.019531 196.429688 L 293.019531 180.195312 L 309.253906 180.195312 L 309.253906 163.960938 L 325.488281 163.960938 L 325.488281 180.195312 L 341.722656 180.195312 Z M 341.722656 196.429688 " fill-opacity="1" fill-rule="nonzero"/><g clip-path="url(#c138aac9ee)"><g clip-path="url(#d4ca55a61e)"><path fill="#387eb8" d="M 271.648438 150.226562 L 351.976562 150.226562 L 351.976562 230.550781 L 271.648438 230.550781 Z M 271.648438 150.226562 " fill-opacity="1" fill-rule="nonzero"/></g></g><g clip-path="url(#141ebf1145)"><g clip-path="url(#a4397fd2d9)"><path fill="#387eb8" d="M 232.050781 150.898438 L 312.375 150.898438 L 312.375 231.226562 L 232.050781 231.226562 Z M 232.050781 150.898438 " fill-opacity="1" fill-rule="nonzero"/></g></g></svg>