<svg xmlns="http://www.w3.org/2000/svg" xmlns:xlink="http://www.w3.org/1999/xlink" width="500" zoomAndPan="magnify" viewBox="0 0 375 374.999991" height="500" preserveAspectRatio="xMidYMid meet" version="1.0"><path fill="#ffc331" d="M 104.648438 326.03125 C 98.144531 326.03125 91.640625 324.382812 85.679688 321.054688 L 77.542969 316.492188 C 71.925781 313.351562 69.917969 306.253906 73.0625 300.605469 C 76.1875 295.003906 83.300781 292.96875 88.949219 296.125 L 97.070312 300.667969 C 101.988281 303.390625 107.621094 303.359375 112.503906 300.496094 C 117.40625 297.605469 120.238281 292.671875 120.238281 286.945312 L 120.238281 119.78125 C 120.238281 113.339844 125.46875 108.113281 131.910156 108.113281 C 138.351562 108.113281 143.578125 113.339844 143.578125 119.78125 L 143.578125 286.945312 C 143.578125 300.949219 136.375 313.539062 124.316406 320.617188 C 118.183594 324.210938 111.417969 326.03125 104.648438 326.03125 Z M 104.648438 326.03125 " fill-opacity="1" fill-rule="nonzero"/><path fill="#ffc331" d="M 185.03125 374.984375 C 180.160156 374.984375 175.292969 373.722656 170.964844 371.1875 L 133.574219 349.292969 C 128.019531 346.027344 126.136719 338.886719 129.386719 333.328125 C 132.640625 327.757812 139.78125 325.90625 145.351562 329.144531 L 182.746094 351.039062 C 184.144531 351.878906 185.824219 351.894531 187.289062 351.039062 L 322.644531 271.773438 C 324.125 270.917969 325.042969 269.300781 325.042969 267.496094 L 325.042969 109.015625 C 325.042969 107.242188 324.109375 105.589844 322.613281 104.71875 L 187.320312 25.519531 C 185.886719 24.695312 184.175781 24.679688 182.804688 25.503906 L 47.308594 104.75 C 45.863281 105.605469 44.960938 107.226562 44.960938 108.984375 L 44.960938 267.496094 C 44.960938 269.238281 45.894531 270.917969 47.324219 271.742188 L 89.148438 296.234375 C 94.703125 299.503906 96.585938 306.644531 93.335938 312.199219 C 90.066406 317.738281 82.925781 319.605469 77.371094 316.386719 L 35.546875 291.894531 C 26.957031 286.867188 21.617188 277.5 21.617188 267.496094 L 21.617188 109.015625 C 21.585938 99.023438 26.925781 89.65625 35.515625 84.617188 L 170.949219 5.382812 C 179.632812 0.296875 190.398438 0.28125 199.113281 5.367188 L 334.441406 84.585938 C 343.0625 89.65625 348.382812 99.023438 348.382812 109.015625 L 348.382812 267.527344 C 348.351562 277.53125 343.03125 286.835938 334.488281 291.894531 L 199.082031 371.1875 C 194.757812 373.722656 189.886719 374.984375 185.03125 374.984375 Z M 185.03125 374.984375 " fill-opacity="1" fill-rule="nonzero"/><path fill="#ffc331" d="M 222.9375 268.445312 C 187.957031 268.445312 150.582031 256.386719 150.582031 222.527344 C 150.582031 216.085938 155.808594 210.855469 162.25 210.855469 C 168.695312 210.855469 173.921875 216.085938 173.921875 222.527344 C 173.921875 240.359375 204.730469 245.105469 222.9375 245.105469 C 255.457031 245.105469 271.949219 241.601562 271.949219 222.527344 C 271.949219 212.941406 260.25 209.191406 231.511719 202.34375 L 220.121094 199.589844 C 216.632812 198.734375 212.945312 197.925781 209.164062 197.085938 C 184.441406 191.625 150.566406 184.171875 150.566406 154.015625 C 150.566406 120.15625 187.941406 108.097656 222.921875 108.097656 C 257.898438 108.097656 295.277344 120.15625 295.277344 154.015625 C 295.277344 160.457031 290.046875 165.683594 283.605469 165.683594 C 277.164062 165.683594 271.933594 160.457031 271.933594 154.015625 C 271.933594 136.183594 241.125 131.4375 222.921875 131.4375 C 204.714844 131.4375 173.90625 136.199219 173.90625 154.015625 C 173.90625 164.5625 191.363281 169.246094 214.191406 174.289062 C 218.191406 175.175781 222.082031 176.03125 225.738281 176.949219 L 236.910156 179.640625 C 266.941406 186.785156 295.292969 193.539062 295.292969 222.527344 C 295.292969 268.445312 246.417969 268.445312 222.9375 268.445312 Z M 222.9375 268.445312 " fill-opacity="1" fill-rule="nonzero"/></svg>