<svg xmlns="http://www.w3.org/2000/svg" xmlns:xlink="http://www.w3.org/1999/xlink" width="500" zoomAndPan="magnify" viewBox="0 0 375 374.999991" height="500" preserveAspectRatio="xMidYMid meet" version="1.0"><defs><clipPath id="61db2a1893"><path d="M 140 0.410156 L 273 0.410156 L 273 218 L 140 218 Z M 140 0.410156 " clip-rule="nonzero"/></clipPath></defs><path fill="#4e7896" d="M 140.324219 287.066406 C 140.324219 287.066406 126.046875 295.730469 150.246094 298.210938 C 179.382812 301.917969 194.902344 301.304688 227.148438 295.117188 C 233.644531 299.089844 240.464844 302.390625 247.613281 305.023438 C 175.0625 335.984375 83.246094 303.171875 140.3125 287.066406 Z M 131.035156 246.824219 C 131.035156 246.824219 115.527344 258.585938 139.71875 261.078125 C 171.351562 264.171875 196.15625 264.785156 238.964844 256.128906 C 243.1875 260.402344 248.148438 263.496094 253.84375 265.410156 C 166.394531 291.410156 68.402344 267.890625 131.035156 246.835938 Z M 302.214844 317.386719 C 302.214844 317.386719 312.753906 326.054688 290.433594 332.867188 C 248.878906 345.265625 116.15625 348.972656 78.941406 332.867188 C 65.917969 327.304688 90.722656 319.253906 98.675781 318.011719 C 106.742188 316.160156 111.09375 316.160156 111.09375 316.160156 C 96.816406 306.253906 16.203125 336.585938 70.164062 345.242188 C 218.394531 369.390625 340.578125 334.722656 302.121094 317.386719 Z M 147.03125 204.71875 C 147.03125 204.71875 79.429688 220.824219 122.839844 226.386719 C 141.449219 228.867188 178.035156 228.238281 212.152344 225.773438 C 240.054688 223.292969 267.984375 218.355469 267.984375 218.355469 C 267.984375 218.355469 258.058594 222.691406 251.234375 227.023438 C 182.398438 244.984375 50.28125 236.929688 88.121094 218.355469 C 120.367188 202.875 147.042969 204.742188 147.042969 204.742188 Z M 267.984375 272.199219 C 337.445312 236.28125 305.199219 201.636719 282.863281 205.957031 C 277.292969 207.199219 274.796875 208.4375 274.796875 208.4375 C 274.796875 208.4375 276.65625 204.730469 280.996094 203.492188 C 325.035156 188.011719 359.765625 249.917969 266.71875 274.054688 C 266.71875 274.054688 267.332031 273.4375 267.960938 272.199219 Z M 153.878906 370.015625 C 220.855469 374.347656 323.203125 367.535156 325.675781 335.949219 C 325.675781 335.949219 320.71875 348.347656 270.480469 357.617188 C 213.417969 368.136719 142.714844 366.886719 101.160156 360.097656 C 101.160156 360.097656 109.839844 367.511719 153.878906 370.003906 Z M 153.878906 370.015625 " fill-opacity="1" fill-rule="nonzero"/><g clip-path="url(#61db2a1893)"><path fill="#f58219" d="M 225.917969 0.421875 C 225.917969 0.421875 264.375 39.421875 189.332031 98.238281 C 129.167969 145.90625 175.691406 173.144531 189.332031 204.105469 C 153.972656 172.53125 128.550781 144.664062 145.917969 118.675781 C 171.339844 80.277344 241.425781 61.820312 225.917969 0.421875 Z M 206.183594 178.105469 C 224.175781 198.53125 201.226562 217.105469 201.226562 217.105469 C 201.226562 217.105469 247.125 193.582031 226.035156 164.476562 C 206.8125 136.625 191.90625 122.996094 272.546875 76.570312 C 272.546875 76.570312 145.40625 108.144531 206.183594 178.105469 Z M 206.183594 178.105469 " fill-opacity="1" fill-rule="nonzero"/></g></svg>