<svg xmlns="http://www.w3.org/2000/svg" xmlns:xlink="http://www.w3.org/1999/xlink" width="500" zoomAndPan="magnify" viewBox="0 0 375 374.999991" height="500" preserveAspectRatio="xMidYMid meet" version="1.0"><defs><clipPath id="32600590da"><path d="M 0 74.414062 L 375 74.414062 L 375 300.914062 L 0 300.914062 Z M 0 74.414062 " clip-rule="nonzero"/></clipPath></defs><g clip-path="url(#32600590da)"><path fill="#d9d9d9" d="M 88.515625 133.398438 L 159.222656 133.398438 L 159.222656 139.019531 L 94.996094 139.019531 L 94.996094 181.3125 L 155.394531 181.3125 L 155.394531 186.9375 L 94.996094 186.9375 L 94.996094 233.371094 L 159.957031 233.371094 L 159.957031 238.996094 L 88.515625 238.996094 Z M 165.554688 133.398438 L 173.070312 133.398438 L 206.359375 179.835938 L 240.386719 133.398438 L 286.667969 74.414062 L 210.628906 184.71875 L 249.816406 238.996094 L 242.003906 238.996094 L 206.359375 189.59375 L 170.566406 238.996094 L 162.90625 238.996094 L 202.378906 184.71875 Z M 252.613281 139.019531 L 252.613281 133.398438 L 333.191406 133.398438 L 333.191406 139.019531 L 296.066406 139.019531 L 296.066406 238.992188 L 289.589844 238.992188 L 289.589844 139.019531 Z M 0.0625 133.398438 L 8.164062 133.398438 L 119.878906 300.570312 L 73.714844 238.996094 L 6.839844 141.386719 L 6.546875 238.996094 L 0.0625 238.996094 Z M 332.53125 231.679688 C 331.214844 231.679688 330.21875 230.648438 330.21875 229.324219 C 330.21875 227.996094 331.214844 226.972656 332.53125 226.972656 C 333.871094 226.972656 334.851562 227.996094 334.851562 229.324219 C 334.851562 230.648438 333.871094 231.679688 332.53125 231.679688 Z M 338.902344 225.488281 L 342.371094 225.488281 C 342.414062 227.367188 343.792969 228.628906 345.804688 228.628906 C 348.0625 228.628906 349.335938 227.273438 349.335938 224.730469 L 349.335938 208.632812 L 352.871094 208.632812 L 352.871094 224.746094 C 352.871094 229.324219 350.222656 231.957031 345.84375 231.957031 C 341.726562 231.957031 338.902344 229.402344 338.902344 225.488281 Z M 357.492188 225.28125 L 360.992188 225.28125 C 361.285156 227.449219 363.398438 228.816406 366.445312 228.816406 C 369.28125 228.816406 371.359375 227.351562 371.359375 225.332031 C 371.359375 223.597656 370.035156 222.550781 367.023438 221.839844 L 364.09375 221.128906 C 359.980469 220.171875 358.105469 218.179688 358.105469 214.832031 C 358.105469 210.777344 361.414062 208.082031 366.378906 208.082031 C 371 208.082031 374.367188 210.777344 374.574219 214.613281 L 371.140625 214.613281 C 370.808594 212.511719 368.980469 211.203125 366.328125 211.203125 C 363.539062 211.203125 361.679688 212.546875 361.679688 214.597656 C 361.679688 216.222656 362.878906 217.152344 365.84375 217.851562 L 368.347656 218.464844 C 373.011719 219.554688 374.9375 221.453125 374.9375 224.871094 C 374.9375 229.226562 371.5625 231.957031 366.175781 231.957031 C 361.128906 231.957031 357.742188 229.359375 357.492188 225.28125 Z M 357.492188 225.28125 " fill-opacity="1" fill-rule="nonzero"/></g></svg>