<svg xmlns="http://www.w3.org/2000/svg" xmlns:xlink="http://www.w3.org/1999/xlink" width="500" zoomAndPan="magnify" viewBox="0 0 375 374.999991" height="500" preserveAspectRatio="xMidYMid meet" version="1.0"><defs><clipPath id="cbd9f5e95e"><path d="M 1 135 L 295 135 L 295 240 L 1 240 Z M 1 135 " clip-rule="nonzero"/></clipPath></defs><path fill="#83cd29" d="M 343.179688 172.167969 C 342.277344 172.167969 341.398438 172.351562 340.621094 172.792969 L 316.03125 186.992188 C 314.4375 187.910156 313.472656 189.640625 313.472656 191.484375 L 313.472656 219.835938 C 313.472656 221.675781 314.4375 223.40625 316.03125 224.324219 L 322.453125 228.023438 C 325.570312 229.5625 326.722656 229.539062 328.144531 229.539062 C 332.761719 229.539062 335.398438 226.734375 335.398438 221.863281 L 335.398438 193.890625 C 335.398438 193.496094 335.058594 193.214844 334.667969 193.214844 L 331.589844 193.214844 C 331.195312 193.214844 330.859375 193.503906 330.859375 193.890625 L 330.859375 221.875 C 330.859375 224.035156 328.609375 226.207031 324.957031 224.382812 L 318.28125 220.46875 C 318.046875 220.339844 317.863281 220.105469 317.863281 219.839844 L 317.863281 191.488281 C 317.863281 191.222656 318.042969 190.945312 318.28125 190.8125 L 342.820312 176.660156 C 343.050781 176.527344 343.324219 176.527344 343.550781 176.660156 L 368.089844 190.8125 C 368.324219 190.949219 368.507812 191.210938 368.507812 191.488281 L 368.507812 219.839844 C 368.507812 220.113281 368.375 220.386719 368.144531 220.519531 L 343.554688 234.667969 C 343.335938 234.796875 343.042969 234.796875 342.820312 234.667969 L 336.503906 230.910156 C 336.316406 230.800781 336.058594 230.808594 335.878906 230.910156 C 334.132812 231.898438 333.804688 232.011719 332.171875 232.582031 C 331.769531 232.722656 331.15625 232.941406 332.378906 233.625 L 340.628906 238.488281 C 341.414062 238.941406 342.289062 239.167969 343.1875 239.167969 C 344.097656 239.167969 344.960938 238.949219 345.746094 238.488281 L 370.339844 224.335938 C 371.929688 223.410156 372.898438 221.6875 372.898438 219.847656 L 372.898438 191.496094 C 372.898438 189.65625 371.929688 187.925781 370.339844 187.007812 L 345.746094 172.804688 C 344.976562 172.367188 344.09375 172.179688 343.1875 172.179688 Z M 349.757812 192.425781 C 342.753906 192.425781 338.585938 195.40625 338.585938 200.359375 C 338.585938 205.730469 342.722656 207.214844 349.445312 207.878906 C 357.484375 208.664062 358.113281 209.847656 358.113281 211.429688 C 358.113281 214.175781 355.921875 215.34375 350.75 215.34375 C 344.25 215.34375 342.824219 213.722656 342.34375 210.484375 C 342.289062 210.136719 342.019531 209.855469 341.667969 209.855469 L 338.472656 209.855469 C 338.273438 209.859375 338.101562 209.933594 337.960938 210.074219 C 337.820312 210.214844 337.746094 210.386719 337.742188 210.585938 C 337.742188 214.726562 339.992188 219.621094 350.742188 219.621094 C 358.523438 219.621094 363.011719 216.570312 363.011719 211.214844 C 363.011719 205.917969 359.386719 204.484375 351.839844 203.484375 C 344.21875 202.46875 343.484375 201.984375 343.484375 200.195312 C 343.484375 198.722656 344.101562 196.75 349.75 196.75 C 354.796875 196.75 356.660156 197.835938 357.425781 201.238281 C 357.492188 201.558594 357.773438 201.820312 358.105469 201.820312 L 361.296875 201.820312 C 361.492188 201.820312 361.683594 201.699219 361.820312 201.558594 C 361.953125 201.410156 362.046875 201.238281 362.03125 201.035156 C 361.535156 195.175781 357.628906 192.421875 349.761719 192.421875 Z M 349.757812 192.425781 " fill-opacity="1" fill-rule="nonzero"/><g clip-path="url(#cbd9f5e95e)"><path fill="#404137" d="M 198.609375 135 C 198.328125 135 198.066406 135.070312 197.824219 135.210938 C 197.582031 135.351562 197.394531 135.542969 197.253906 135.785156 C 197.113281 136.027344 197.042969 136.289062 197.042969 136.566406 L 197.042969 176.507812 C 197.042969 176.898438 196.859375 177.25 196.519531 177.449219 C 196.152344 177.660156 195.789062 177.660156 195.421875 177.449219 L 188.894531 173.6875 C 188.410156 173.410156 187.890625 173.269531 187.328125 173.269531 C 186.769531 173.269531 186.246094 173.410156 185.761719 173.6875 L 159.710938 188.726562 C 158.738281 189.289062 158.144531 190.367188 158.144531 191.492188 L 158.144531 221.566406 C 158.144531 222.125 158.285156 222.648438 158.5625 223.132812 C 158.84375 223.617188 159.226562 224 159.710938 224.28125 L 185.765625 239.316406 C 186.25 239.597656 186.769531 239.738281 187.332031 239.738281 C 187.890625 239.738281 188.414062 239.597656 188.898438 239.316406 L 214.949219 224.28125 C 215.4375 224 215.820312 223.617188 216.097656 223.132812 C 216.378906 222.648438 216.519531 222.125 216.515625 221.566406 L 216.515625 146.589844 C 216.515625 145.449219 215.894531 144.378906 214.898438 143.824219 L 199.390625 135.152344 C 199.148438 135.019531 198.878906 134.992188 198.609375 134.996094 Z M 31.011719 172.539062 C 30.515625 172.558594 30.046875 172.644531 29.601562 172.90625 L 3.546875 187.941406 C 3.0625 188.222656 2.679688 188.601562 2.398438 189.089844 C 2.121094 189.574219 1.980469 190.097656 1.984375 190.65625 L 2.035156 231.015625 C 2.035156 231.578125 2.324219 232.097656 2.820312 232.375 C 3.304688 232.664062 3.902344 232.664062 4.386719 232.375 L 19.839844 223.496094 C 20.820312 222.917969 21.457031 221.902344 21.457031 220.785156 L 21.457031 201.933594 C 21.457031 200.808594 22.050781 199.777344 23.023438 199.21875 L 29.605469 195.40625 C 30.085938 195.125 30.609375 194.988281 31.167969 194.988281 C 31.730469 194.988281 32.253906 195.125 32.738281 195.40625 L 39.3125 199.21875 C 40.285156 199.777344 40.878906 200.808594 40.878906 201.929688 L 40.878906 220.777344 C 40.878906 221.902344 41.53125 222.917969 42.496094 223.492188 L 57.949219 232.367188 C 58.4375 232.660156 59.035156 232.660156 59.515625 232.367188 C 59.996094 232.09375 60.300781 231.574219 60.300781 231.011719 L 60.351562 190.652344 C 60.355469 190.09375 60.21875 189.570312 59.9375 189.085938 C 59.65625 188.597656 59.273438 188.214844 58.785156 187.9375 L 32.734375 172.90625 C 32.292969 172.648438 31.824219 172.5625 31.324219 172.542969 L 31.011719 172.542969 Z M 265.121094 172.90625 C 264.5625 172.902344 264.039062 173.042969 263.554688 173.324219 L 237.5 188.359375 C 236.527344 188.921875 235.933594 189.949219 235.933594 191.074219 L 235.933594 221.148438 C 235.933594 222.277344 236.570312 223.304688 237.550781 223.863281 L 263.394531 238.59375 C 264.351562 239.136719 265.515625 239.179688 266.476562 238.644531 L 282.140625 229.921875 C 282.636719 229.648438 282.972656 229.132812 282.972656 228.566406 C 282.976562 228 282.679688 227.492188 282.191406 227.210938 L 255.980469 212.171875 C 255.488281 211.894531 255.144531 211.324219 255.144531 210.761719 L 255.144531 201.359375 C 255.144531 200.796875 255.492188 200.28125 255.980469 200 L 264.125 195.300781 C 264.609375 195.023438 265.203125 195.023438 265.691406 195.300781 L 273.855469 200 C 274.097656 200.140625 274.289062 200.332031 274.429688 200.574219 C 274.570312 200.816406 274.640625 201.078125 274.636719 201.359375 L 274.636719 208.773438 C 274.636719 209.050781 274.707031 209.3125 274.847656 209.554688 C 274.988281 209.796875 275.179688 209.988281 275.421875 210.128906 C 275.910156 210.410156 276.5 210.414062 276.988281 210.128906 L 292.597656 201.042969 C 293.566406 200.480469 294.164062 199.449219 294.164062 198.332031 L 294.164062 191.074219 C 294.164062 190.515625 294.023438 189.992188 293.746094 189.507812 C 293.464844 189.023438 293.082031 188.640625 292.597656 188.359375 L 266.703125 173.320312 C 266.21875 173.042969 265.695312 172.902344 265.136719 172.902344 Z M 187.222656 195.355469 C 187.371094 195.355469 187.507812 195.390625 187.640625 195.460938 L 196.566406 200.628906 C 196.808594 200.769531 196.984375 201.027344 196.984375 201.308594 L 196.984375 211.644531 C 196.984375 211.925781 196.8125 212.183594 196.566406 212.324219 L 187.640625 217.492188 C 187.398438 217.632812 187.101562 217.632812 186.855469 217.492188 L 177.929688 212.324219 C 177.683594 212.183594 177.511719 211.925781 177.511719 211.644531 L 177.511719 201.3125 C 177.511719 201.03125 177.6875 200.773438 177.929688 200.632812 L 186.855469 195.464844 C 186.976562 195.394531 187.085938 195.359375 187.222656 195.359375 Z M 187.222656 195.355469 " fill-opacity="1" fill-rule="nonzero"/></g><path fill="#83cd29" d="M 109.273438 172.75 C 108.710938 172.746094 108.191406 172.886719 107.703125 173.167969 L 81.652344 188.152344 C 80.679688 188.710938 80.085938 189.792969 80.085938 190.917969 L 80.085938 220.992188 C 80.085938 221.550781 80.222656 222.074219 80.503906 222.558594 C 80.785156 223.042969 81.167969 223.425781 81.652344 223.703125 L 107.703125 238.742188 C 108.1875 239.023438 108.710938 239.164062 109.269531 239.164062 C 109.832031 239.164062 110.351562 239.023438 110.835938 238.742188 L 136.890625 223.703125 C 137.375 223.425781 137.757812 223.042969 138.039062 222.558594 C 138.320312 222.074219 138.457031 221.550781 138.457031 220.988281 L 138.457031 190.917969 C 138.457031 189.792969 137.867188 188.714844 136.890625 188.152344 L 110.835938 173.167969 C 110.351562 172.886719 109.828125 172.746094 109.269531 172.75 Z M 265.070312 199.585938 C 264.964844 199.585938 264.851562 199.585938 264.757812 199.636719 L 259.746094 202.558594 C 259.539062 202.671875 259.433594 202.847656 259.429688 203.082031 L 259.429688 208.824219 C 259.429688 209.042969 259.554688 209.238281 259.746094 209.347656 L 264.757812 212.21875 C 264.949219 212.335938 265.136719 212.335938 265.328125 212.21875 L 270.339844 209.347656 C 270.527344 209.242188 270.65625 209.042969 270.65625 208.824219 L 270.65625 203.082031 C 270.65625 202.867188 270.527344 202.667969 270.339844 202.558594 L 265.328125 199.636719 C 265.238281 199.578125 265.171875 199.585938 265.070312 199.585938 Z M 265.070312 199.585938 " fill-opacity="1" fill-rule="nonzero"/></svg>