<svg xmlns="http://www.w3.org/2000/svg" xmlns:xlink="http://www.w3.org/1999/xlink" width="500" zoomAndPan="magnify" viewBox="0 0 375 374.999991" height="500" preserveAspectRatio="xMidYMid meet" version="1.0"><defs><clipPath id="b39bf44a9c"><path d="M 3.164062 23 L 372 23 L 372 352 L 3.164062 352 Z M 3.164062 23 " clip-rule="nonzero"/></clipPath></defs><g clip-path="url(#b39bf44a9c)"><path fill="#00d8ff" d="M 306.304688 129.921875 C 302.492188 128.609375 298.539062 127.367188 294.453125 126.191406 C 295.128906 123.457031 295.746094 120.761719 296.292969 118.109375 C 305.253906 74.582031 299.402344 39.515625 279.363281 27.96875 C 260.144531 16.902344 228.730469 28.445312 197 56.039062 C 193.949219 58.691406 190.886719 61.5 187.835938 64.445312 C 185.792969 62.496094 183.765625 60.613281 181.738281 58.8125 C 148.480469 29.308594 115.148438 16.875 95.132812 28.453125 C 75.941406 39.554688 70.257812 72.519531 78.335938 113.773438 C 79.117188 117.757812 80.027344 121.824219 81.058594 125.960938 C 76.339844 127.300781 71.785156 128.726562 67.429688 130.246094 C 28.441406 143.828125 3.542969 165.117188 3.542969 187.199219 C 3.542969 209.996094 30.273438 232.882812 70.878906 246.753906 C 74.082031 247.84375 77.410156 248.878906 80.835938 249.859375 C 79.722656 254.328125 78.757812 258.710938 77.945312 262.996094 C 70.242188 303.53125 76.257812 335.714844 95.398438 346.742188 C 115.167969 358.140625 148.351562 346.425781 180.660156 318.207031 C 183.21875 315.980469 185.777344 313.609375 188.339844 311.136719 C 191.675781 314.328125 195 317.359375 198.292969 320.207031 C 229.59375 347.117188 260.503906 357.984375 279.621094 346.929688 C 299.371094 335.5 305.800781 300.914062 297.457031 258.855469 C 296.824219 255.636719 296.078125 252.359375 295.257812 249.023438 C 297.589844 248.335938 299.875 247.617188 302.105469 246.882812 C 344.324219 232.894531 371.78125 210.3125 371.78125 187.199219 C 371.78125 165.035156 346.078125 143.605469 306.304688 129.921875 Z M 297.15625 231.960938 C 295.144531 232.621094 293.070312 233.269531 290.972656 233.886719 C 286.3125 219.152344 280.023438 203.472656 272.316406 187.269531 C 279.664062 171.460938 285.707031 155.984375 290.238281 141.335938 C 294.007812 142.425781 297.660156 143.574219 301.183594 144.785156 C 335.261719 156.511719 356.046875 173.84375 356.046875 187.199219 C 356.046875 201.414062 333.605469 219.886719 297.15625 231.960938 Z M 282.023438 261.902344 C 285.722656 280.503906 286.238281 297.324219 283.792969 310.476562 C 281.609375 322.289062 277.191406 330.167969 271.738281 333.316406 C 260.132812 340.027344 235.320312 331.304688 208.5625 308.289062 C 205.484375 305.644531 202.394531 302.828125 199.300781 299.851562 C 209.671875 288.511719 220.042969 275.328125 230.167969 260.683594 C 247.960938 259.113281 264.777344 256.527344 280.039062 253.003906 C 280.789062 256.039062 281.449219 259 282.023438 261.902344 Z M 129.089844 332.152344 C 117.753906 336.160156 108.722656 336.277344 103.265625 333.128906 C 91.648438 326.429688 86.820312 300.585938 93.40625 265.929688 C 94.160156 261.960938 95.058594 257.878906 96.09375 253.710938 C 111.179688 257.046875 127.875 259.445312 145.71875 260.882812 C 155.910156 275.214844 166.582031 288.382812 177.328125 299.910156 C 174.980469 302.179688 172.636719 304.335938 170.308594 306.363281 C 156.023438 318.855469 141.707031 327.710938 129.089844 332.152344 Z M 75.972656 231.875 C 58.019531 225.738281 43.1875 217.773438 33.023438 209.0625 C 23.890625 201.257812 19.28125 193.496094 19.28125 187.199219 C 19.28125 173.800781 39.269531 156.707031 72.613281 145.089844 C 76.660156 143.679688 80.894531 142.351562 85.289062 141.101562 C 89.894531 156.082031 95.941406 171.746094 103.234375 187.574219 C 95.847656 203.644531 89.714844 219.554688 85.0625 234.722656 C 81.929688 233.816406 78.894531 232.867188 75.972656 231.875 Z M 93.777344 110.753906 C 86.859375 75.410156 91.453125 48.75 103.019531 42.058594 C 115.339844 34.929688 142.582031 45.09375 171.285156 70.570312 C 173.125 72.199219 174.96875 73.902344 176.824219 75.664062 C 166.121094 87.144531 155.550781 100.214844 145.449219 114.457031 C 128.128906 116.0625 111.550781 118.640625 96.308594 122.089844 C 95.351562 118.238281 94.503906 114.453125 93.777344 110.753906 Z M 252.609375 149.949219 C 248.972656 143.660156 245.230469 137.519531 241.417969 131.542969 C 253.171875 133.027344 264.417969 135 274.992188 137.410156 C 271.828125 147.574219 267.871094 158.203125 263.210938 169.101562 C 259.875 162.761719 256.335938 156.371094 252.609375 149.949219 Z M 187.835938 86.898438 C 195.101562 94.753906 202.367188 103.527344 209.515625 113.042969 C 202.308594 112.703125 195.015625 112.527344 187.664062 112.527344 C 180.386719 112.527344 173.152344 112.699219 165.988281 113.03125 C 173.136719 103.605469 180.472656 94.847656 187.835938 86.898438 Z M 122.652344 150.058594 C 119.011719 156.363281 115.542969 162.71875 112.253906 169.085938 C 107.675781 158.230469 103.753906 147.554688 100.554688 137.242188 C 111.0625 134.894531 122.265625 132.972656 133.941406 131.515625 C 130.070312 137.546875 126.300781 143.730469 122.652344 150.054688 Z M 134.273438 243.992188 C 122.214844 242.65625 110.839844 240.832031 100.339844 238.546875 C 103.589844 228.050781 107.59375 217.15625 112.273438 206.058594 C 115.570312 212.425781 119.050781 218.78125 122.710938 225.105469 L 122.714844 225.105469 C 126.445312 231.542969 130.308594 237.839844 134.273438 243.992188 Z M 188.269531 288.597656 C 180.816406 280.5625 173.382812 271.664062 166.117188 262.105469 C 173.164062 262.378906 180.359375 262.523438 187.664062 262.523438 C 195.171875 262.523438 202.597656 262.347656 209.890625 262.03125 C 202.726562 271.765625 195.476562 280.675781 188.269531 288.597656 Z M 263.355469 205.5 C 268.273438 216.710938 272.433594 227.546875 275.726562 237.871094 C 265.050781 240.296875 253.515625 242.253906 241.375 243.71875 C 245.203125 237.667969 248.972656 231.414062 252.683594 224.988281 C 256.4375 218.492188 259.988281 211.980469 263.355469 205.5 Z M 239.046875 217.140625 C 233.292969 227.117188 227.378906 236.632812 221.382812 245.617188 C 210.464844 246.394531 199.171875 246.796875 187.664062 246.796875 C 176.199219 246.796875 165.054688 246.449219 154.320312 245.746094 C 148.078125 236.648438 142.046875 227.101562 136.324219 217.226562 L 136.328125 217.226562 C 130.621094 207.382812 125.371094 197.449219 120.617188 187.574219 C 125.371094 177.683594 130.609375 167.738281 136.28125 157.910156 L 136.277344 157.910156 C 141.964844 148.054688 147.949219 138.554688 154.136719 129.503906 C 165.082031 128.675781 176.316406 128.246094 187.664062 128.246094 C 199.070312 128.246094 210.304688 128.679688 221.253906 129.515625 C 227.351562 138.496094 233.292969 147.96875 239.003906 157.824219 C 244.769531 167.792969 250.078125 177.667969 254.867188 187.359375 C 250.09375 197.203125 244.800781 207.179688 239.046875 217.140625 Z M 271.496094 41.585938 C 283.839844 48.691406 288.628906 77.351562 280.875 114.933594 C 280.386719 117.332031 279.824219 119.773438 279.222656 122.25 C 263.945312 118.726562 247.359375 116.105469 230 114.476562 C 219.871094 100.078125 209.386719 86.988281 198.855469 75.652344 C 201.691406 72.933594 204.523438 70.339844 207.328125 67.890625 C 234.515625 44.25 259.933594 34.914062 271.496094 41.585938 Z M 187.664062 154.332031 C 205.816406 154.332031 220.546875 169.039062 220.546875 187.195312 C 220.546875 205.335938 205.816406 220.054688 187.664062 220.054688 C 169.511719 220.054688 154.78125 205.335938 154.78125 187.195312 C 154.78125 169.039062 169.511719 154.332031 187.664062 154.332031 Z M 187.664062 154.332031 " fill-opacity="1" fill-rule="nonzero"/></g></svg>