<svg xmlns="http://www.w3.org/2000/svg" xmlns:xlink="http://www.w3.org/1999/xlink" width="500" zoomAndPan="magnify" viewBox="0 0 375 374.999991" height="500" preserveAspectRatio="xMidYMid meet" version="1.0"><path fill="#5373fc" d="M 309.507812 0 L 65.492188 0 C 64.421875 0 63.347656 0.0273438 62.277344 0.078125 C 61.207031 0.132812 60.140625 0.210938 59.074219 0.316406 C 58.007812 0.421875 56.941406 0.550781 55.882812 0.707031 C 54.824219 0.867188 53.765625 1.050781 52.714844 1.257812 C 51.664062 1.46875 50.617188 1.703125 49.578125 1.960938 C 48.539062 2.222656 47.507812 2.507812 46.480469 2.820312 C 45.457031 3.132812 44.4375 3.46875 43.429688 3.828125 C 42.417969 4.191406 41.417969 4.574219 40.429688 4.984375 C 39.4375 5.394531 38.460938 5.828125 37.492188 6.289062 C 36.523438 6.746094 35.566406 7.226562 34.621094 7.734375 C 33.675781 8.238281 32.742188 8.765625 31.824219 9.316406 C 30.902344 9.867188 29.996094 10.441406 29.105469 11.039062 C 28.214844 11.632812 27.339844 12.25 26.480469 12.886719 C 25.617188 13.527344 24.773438 14.1875 23.945312 14.867188 C 23.117188 15.546875 22.304688 16.246094 21.511719 16.964844 C 20.714844 17.683594 19.941406 18.425781 19.183594 19.183594 C 18.425781 19.941406 17.683594 20.714844 16.964844 21.511719 C 16.246094 22.304688 15.546875 23.117188 14.867188 23.945312 C 14.1875 24.773438 13.527344 25.617188 12.886719 26.480469 C 12.25 27.339844 11.632812 28.214844 11.039062 29.105469 C 10.441406 29.996094 9.867188 30.902344 9.316406 31.824219 C 8.765625 32.742188 8.238281 33.675781 7.734375 34.621094 C 7.226562 35.566406 6.746094 36.523438 6.289062 37.492188 C 5.828125 38.460938 5.394531 39.4375 4.984375 40.429688 C 4.574219 41.417969 4.191406 42.417969 3.828125 43.429688 C 3.46875 44.4375 3.132812 45.457031 2.820312 46.480469 C 2.507812 47.507812 2.222656 48.539062 1.960938 49.578125 C 1.703125 50.617188 1.46875 51.664062 1.257812 52.714844 C 1.050781 53.765625 0.867188 54.824219 0.707031 55.882812 C 0.550781 56.941406 0.421875 58.007812 0.316406 59.074219 C 0.210938 60.140625 0.132812 61.207031 0.078125 62.277344 C 0.0273438 63.347656 0 64.421875 0 65.492188 L 0 309.507812 C 0 310.578125 0.0273438 311.652344 0.078125 312.722656 C 0.132812 313.792969 0.210938 314.859375 0.316406 315.925781 C 0.421875 316.992188 0.550781 318.058594 0.707031 319.117188 C 0.867188 320.175781 1.050781 321.234375 1.257812 322.285156 C 1.46875 323.335938 1.703125 324.382812 1.960938 325.421875 C 2.222656 326.460938 2.507812 327.492188 2.820312 328.519531 C 3.132812 329.542969 3.46875 330.5625 3.828125 331.570312 C 4.191406 332.582031 4.574219 333.582031 4.984375 334.570312 C 5.394531 335.5625 5.828125 336.539062 6.289062 337.507812 C 6.746094 338.476562 7.226562 339.433594 7.734375 340.378906 C 8.238281 341.324219 8.765625 342.257812 9.316406 343.175781 C 9.867188 344.097656 10.441406 345.003906 11.039062 345.894531 C 11.632812 346.785156 12.25 347.660156 12.886719 348.519531 C 13.527344 349.382812 14.1875 350.226562 14.867188 351.054688 C 15.546875 351.882812 16.246094 352.695312 16.964844 353.488281 C 17.683594 354.285156 18.425781 355.058594 19.183594 355.816406 C 19.941406 356.574219 20.714844 357.3125 21.511719 358.035156 C 22.304688 358.753906 23.117188 359.453125 23.945312 360.132812 C 24.773438 360.8125 25.617188 361.472656 26.480469 362.113281 C 27.339844 362.75 28.214844 363.367188 29.105469 363.960938 C 29.996094 364.558594 30.902344 365.132812 31.824219 365.683594 C 32.742188 366.234375 33.675781 366.761719 34.621094 367.265625 C 35.566406 367.773438 36.523438 368.253906 37.492188 368.710938 C 38.460938 369.171875 39.4375 369.605469 40.429688 370.015625 C 41.417969 370.425781 42.417969 370.808594 43.429688 371.171875 C 44.4375 371.53125 45.457031 371.867188 46.480469 372.179688 C 47.507812 372.492188 48.539062 372.777344 49.578125 373.039062 C 50.617188 373.296875 51.664062 373.53125 52.714844 373.742188 C 53.765625 373.949219 54.824219 374.132812 55.882812 374.292969 C 56.941406 374.449219 58.007812 374.578125 59.074219 374.683594 C 60.140625 374.789062 61.207031 374.867188 62.277344 374.921875 C 63.347656 374.972656 64.421875 375 65.492188 375 L 309.507812 375 C 310.578125 375 311.652344 374.972656 312.722656 374.921875 C 313.792969 374.867188 314.859375 374.789062 315.925781 374.683594 C 316.992188 374.578125 318.058594 374.449219 319.117188 374.292969 C 320.175781 374.132812 321.234375 373.949219 322.285156 373.742188 C 323.335938 373.53125 324.382812 373.296875 325.421875 373.039062 C 326.460938 372.777344 327.492188 372.492188 328.519531 372.179688 C 329.542969 371.867188 330.5625 371.53125 331.570312 371.171875 C 332.582031 370.808594 333.582031 370.425781 334.570312 370.015625 C 335.5625 369.605469 336.539062 369.171875 337.507812 368.710938 C 338.476562 368.253906 339.433594 367.773438 340.378906 367.265625 C 341.324219 366.761719 342.257812 366.234375 343.175781 365.683594 C 344.097656 365.132812 345.003906 364.558594 345.894531 363.960938 C 346.785156 363.367188 347.660156 362.75 348.519531 362.113281 C 349.382812 361.472656 350.226562 360.8125 351.054688 360.132812 C 351.882812 359.453125 352.695312 358.753906 353.488281 358.035156 C 354.285156 357.3125 355.058594 356.574219 355.816406 355.816406 C 356.574219 355.058594 357.3125 354.285156 358.035156 353.488281 C 358.753906 352.695312 359.453125 351.882812 360.132812 351.054688 C 360.8125 350.226562 361.472656 349.382812 362.113281 348.519531 C 362.75 347.660156 363.367188 346.785156 363.960938 345.894531 C 364.558594 345.003906 365.132812 344.097656 365.683594 343.175781 C 366.234375 342.257812 366.761719 341.324219 367.265625 340.378906 C 367.773438 339.433594 368.253906 338.476562 368.710938 337.507812 C 369.171875 336.539062 369.605469 335.5625 370.015625 334.570312 C 370.425781 333.582031 370.808594 332.582031 371.171875 331.570312 C 371.53125 330.5625 371.867188 329.542969 372.179688 328.519531 C 372.492188 327.492188 372.777344 326.460938 373.039062 325.421875 C 373.296875 324.382812 373.53125 323.335938 373.742188 322.285156 C 373.949219 321.234375 374.132812 320.175781 374.292969 319.117188 C 374.449219 318.058594 374.578125 316.992188 374.683594 315.925781 C 374.789062 314.859375 374.867188 313.792969 374.921875 312.722656 C 374.972656 311.652344 375 310.578125 375 309.507812 L 375 65.492188 C 375 64.421875 374.972656 63.347656 374.921875 62.277344 C 374.867188 61.207031 374.789062 60.140625 374.683594 59.074219 C 374.578125 58.007812 374.449219 56.941406 374.292969 55.882812 C 374.132812 54.824219 373.949219 53.765625 373.742188 52.714844 C 373.53125 51.664062 373.296875 50.617188 373.039062 49.578125 C 372.777344 48.539062 372.492188 47.507812 372.179688 46.480469 C 371.867188 45.457031 371.53125 44.4375 371.171875 43.429688 C 370.808594 42.417969 370.425781 41.417969 370.015625 40.429688 C 369.605469 39.4375 369.171875 38.460938 368.710938 37.492188 C 368.253906 36.523438 367.773438 35.566406 367.265625 34.621094 C 366.761719 33.675781 366.234375 32.742188 365.683594 31.824219 C 365.132812 30.902344 364.558594 29.996094 363.960938 29.105469 C 363.367188 28.214844 362.75 27.339844 362.113281 26.480469 C 361.472656 25.617188 360.8125 24.773438 360.132812 23.945312 C 359.453125 23.117188 358.753906 22.304688 358.035156 21.511719 C 357.3125 20.714844 356.574219 19.941406 355.816406 19.183594 C 355.058594 18.425781 354.285156 17.683594 353.488281 16.964844 C 352.695312 16.246094 351.882812 15.546875 351.054688 14.867188 C 350.226562 14.1875 349.382812 13.527344 348.519531 12.886719 C 347.660156 12.25 346.785156 11.632812 345.894531 11.039062 C 345.003906 10.441406 344.097656 9.867188 343.175781 9.316406 C 342.257812 8.765625 341.324219 8.238281 340.378906 7.734375 C 339.433594 7.226562 338.476562 6.746094 337.507812 6.289062 C 336.539062 5.828125 335.5625 5.394531 334.570312 4.984375 C 333.582031 4.574219 332.582031 4.191406 331.570312 3.828125 C 330.5625 3.46875 329.542969 3.132812 328.519531 2.820312 C 327.492188 2.507812 326.460938 2.222656 325.421875 1.960938 C 324.382812 1.703125 323.335938 1.46875 322.285156 1.257812 C 321.234375 1.050781 320.175781 0.867188 319.117188 0.707031 C 318.058594 0.550781 316.992188 0.421875 315.925781 0.316406 C 314.859375 0.210938 313.792969 0.132812 312.722656 0.078125 C 311.652344 0.0273438 310.578125 0 309.507812 0 Z M 258.445312 29.46875 L 301.136719 72.160156 L 258.445312 72.160156 Z M 22.917969 166.703125 L 22.917969 87.160156 L 203.257812 87.160156 L 203.257812 166.703125 Z M 305.910156 349.46875 L 68.902344 349.46875 L 68.902344 182.425781 C 68.921875 182.234375 68.921875 182.046875 68.902344 181.855469 L 210.832031 181.855469 C 211.332031 181.855469 211.824219 181.808594 212.3125 181.710938 C 212.800781 181.613281 213.273438 181.46875 213.734375 181.28125 C 214.191406 181.089844 214.628906 180.855469 215.042969 180.578125 C 215.457031 180.304688 215.839844 179.988281 216.191406 179.636719 C 216.542969 179.285156 216.855469 178.902344 217.132812 178.488281 C 217.410156 178.074219 217.640625 177.640625 217.832031 177.179688 C 218.023438 176.71875 218.167969 176.246094 218.261719 175.757812 C 218.359375 175.269531 218.410156 174.777344 218.410156 174.28125 L 218.410156 79.582031 C 218.410156 79.085938 218.359375 78.59375 218.261719 78.105469 C 218.167969 77.617188 218.023438 77.144531 217.832031 76.683594 C 217.640625 76.226562 217.410156 75.789062 217.132812 75.375 C 216.855469 74.960938 216.542969 74.578125 216.191406 74.226562 C 215.839844 73.875 215.457031 73.5625 215.042969 73.285156 C 214.628906 73.007812 214.191406 72.773438 213.734375 72.585938 C 213.273438 72.394531 212.800781 72.25 212.3125 72.152344 C 211.824219 72.054688 211.332031 72.007812 210.832031 72.007812 L 68.902344 72.007812 L 68.902344 25.53125 L 243.144531 25.53125 L 243.144531 79.734375 C 243.144531 80.230469 243.191406 80.726562 243.289062 81.210938 C 243.386719 81.699219 243.53125 82.175781 243.71875 82.632812 C 243.910156 83.09375 244.144531 83.53125 244.421875 83.945312 C 244.695312 84.355469 245.011719 84.738281 245.363281 85.089844 C 245.714844 85.445312 246.097656 85.757812 246.511719 86.035156 C 246.925781 86.308594 247.359375 86.542969 247.820312 86.734375 C 248.28125 86.925781 248.753906 87.066406 249.242188 87.164062 C 249.730469 87.261719 250.222656 87.3125 250.71875 87.3125 L 305.910156 87.3125 Z M 305.910156 349.46875 " fill-opacity="1" fill-rule="nonzero"/><path fill="#5373fc" d="M 113.21875 92.992188 L 69.773438 92.121094 C 69.273438 92.121094 68.78125 92.167969 68.292969 92.265625 C 67.808594 92.363281 67.332031 92.507812 66.875 92.699219 C 66.414062 92.886719 65.976562 93.121094 65.5625 93.398438 C 65.148438 93.675781 64.765625 93.988281 64.414062 94.339844 C 64.0625 94.691406 63.75 95.074219 63.472656 95.488281 C 63.199219 95.902344 62.964844 96.339844 62.773438 96.796875 C 62.582031 97.257812 62.441406 97.730469 62.34375 98.21875 C 62.246094 98.707031 62.195312 99.199219 62.195312 99.695312 C 62.195312 100.195312 62.246094 100.6875 62.34375 101.175781 C 62.441406 101.664062 62.582031 102.136719 62.773438 102.597656 C 62.964844 103.054688 63.199219 103.492188 63.472656 103.90625 C 63.75 104.320312 64.0625 104.703125 64.414062 105.054688 C 64.765625 105.40625 65.148438 105.71875 65.5625 105.996094 C 65.976562 106.273438 66.414062 106.503906 66.875 106.695312 C 67.332031 106.886719 67.808594 107.03125 68.292969 107.128906 C 68.78125 107.222656 69.273438 107.273438 69.773438 107.273438 L 84.167969 107.539062 L 84.925781 157.195312 C 84.925781 157.695312 84.972656 158.1875 85.070312 158.675781 C 85.167969 159.164062 85.308594 159.636719 85.5 160.097656 C 85.691406 160.554688 85.925781 160.992188 86.199219 161.40625 C 86.476562 161.820312 86.792969 162.203125 87.144531 162.554688 C 87.496094 162.90625 87.878906 163.21875 88.292969 163.496094 C 88.703125 163.773438 89.140625 164.003906 89.601562 164.195312 C 90.058594 164.386719 90.535156 164.53125 91.023438 164.628906 C 91.511719 164.722656 92.003906 164.773438 92.5 164.773438 L 92.804688 164.773438 C 93.292969 164.761719 93.777344 164.703125 94.253906 164.59375 C 94.730469 164.488281 95.195312 164.339844 95.644531 164.144531 C 96.09375 163.945312 96.519531 163.710938 96.921875 163.429688 C 97.324219 163.152344 97.695312 162.839844 98.039062 162.488281 C 98.378906 162.136719 98.683594 161.757812 98.953125 161.347656 C 99.222656 160.9375 99.445312 160.507812 99.632812 160.054688 C 99.816406 159.597656 99.953125 159.132812 100.046875 158.652344 C 100.144531 158.171875 100.191406 157.6875 100.1875 157.195312 L 99.167969 107.953125 L 113.066406 108.257812 C 113.566406 108.257812 114.058594 108.210938 114.546875 108.113281 C 115.035156 108.015625 115.507812 107.871094 115.96875 107.679688 C 116.425781 107.492188 116.863281 107.257812 117.277344 106.980469 C 117.691406 106.703125 118.074219 106.390625 118.425781 106.039062 C 118.777344 105.6875 119.089844 105.304688 119.367188 104.890625 C 119.644531 104.476562 119.875 104.039062 120.066406 103.582031 C 120.257812 103.121094 120.402344 102.648438 120.5 102.160156 C 120.59375 101.671875 120.644531 101.179688 120.644531 100.683594 C 120.644531 100.183594 120.59375 99.691406 120.5 99.203125 C 120.402344 98.714844 120.257812 98.242188 120.066406 97.78125 C 119.875 97.324219 119.644531 96.886719 119.367188 96.472656 C 119.089844 96.058594 118.777344 95.675781 118.425781 95.324219 C 118.074219 94.972656 117.691406 94.660156 117.277344 94.382812 C 116.863281 94.105469 116.425781 93.875 115.96875 93.683594 C 115.507812 93.492188 115.035156 93.347656 114.546875 93.25 C 114.058594 93.15625 113.566406 93.105469 113.066406 93.105469 Z M 113.21875 92.992188 " fill-opacity="1" fill-rule="nonzero"/><path fill="#5373fc" d="M 142.992188 105.378906 C 143.453125 105.378906 143.910156 105.421875 144.359375 105.511719 C 144.8125 105.601562 145.25 105.734375 145.675781 105.914062 C 146.097656 106.089844 146.503906 106.304688 146.886719 106.558594 C 147.269531 106.816406 147.621094 107.105469 147.949219 107.429688 C 148.273438 107.757812 148.5625 108.109375 148.820312 108.492188 C 149.074219 108.875 149.289062 109.28125 149.464844 109.703125 C 149.644531 110.128906 149.777344 110.566406 149.867188 111.019531 C 149.957031 111.46875 150 111.925781 150 112.386719 C 150 112.882812 150.046875 113.375 150.144531 113.863281 C 150.242188 114.351562 150.386719 114.824219 150.578125 115.285156 C 150.765625 115.746094 151 116.179688 151.277344 116.59375 C 151.554688 117.007812 151.867188 117.390625 152.21875 117.742188 C 152.570312 118.09375 152.953125 118.410156 153.367188 118.683594 C 153.78125 118.960938 154.21875 119.195312 154.675781 119.386719 C 155.136719 119.574219 155.609375 119.71875 156.097656 119.816406 C 156.585938 119.914062 157.078125 119.960938 157.574219 119.960938 C 158.074219 119.960938 158.566406 119.914062 159.054688 119.816406 C 159.542969 119.71875 160.015625 119.574219 160.476562 119.386719 C 160.933594 119.195312 161.371094 118.960938 161.785156 118.683594 C 162.199219 118.410156 162.582031 118.09375 162.933594 117.742188 C 163.285156 117.390625 163.597656 117.007812 163.875 116.59375 C 164.152344 116.179688 164.382812 115.746094 164.574219 115.285156 C 164.765625 114.824219 164.910156 114.351562 165.007812 113.863281 C 165.101562 113.375 165.152344 112.882812 165.152344 112.386719 C 165.152344 111.660156 165.121094 110.933594 165.050781 110.210938 C 164.984375 109.488281 164.878906 108.773438 164.738281 108.058594 C 164.601562 107.347656 164.425781 106.640625 164.21875 105.945312 C 164.007812 105.25 163.765625 104.566406 163.492188 103.894531 C 163.214844 103.222656 162.90625 102.566406 162.566406 101.925781 C 162.226562 101.285156 161.855469 100.660156 161.453125 100.054688 C 161.050781 99.449219 160.621094 98.867188 160.164062 98.304688 C 159.703125 97.742188 159.21875 97.203125 158.707031 96.6875 C 158.195312 96.171875 157.65625 95.683594 157.097656 95.21875 C 156.539062 94.757812 155.957031 94.324219 155.351562 93.917969 C 154.75 93.515625 154.128906 93.140625 153.488281 92.796875 C 152.851562 92.453125 152.195312 92.140625 151.523438 91.859375 C 150.855469 91.582031 150.171875 91.335938 149.476562 91.121094 C 148.785156 90.910156 148.082031 90.730469 147.367188 90.585938 C 146.65625 90.445312 145.9375 90.335938 145.214844 90.261719 C 144.492188 90.191406 143.769531 90.152344 143.042969 90.152344 C 142.316406 90.148438 141.59375 90.183594 140.871094 90.253906 C 140.144531 90.324219 139.429688 90.429688 138.714844 90.566406 C 138.003906 90.707031 137.300781 90.882812 136.605469 91.09375 C 135.910156 91.300781 135.226562 91.542969 134.554688 91.820312 C 133.882812 92.097656 133.226562 92.40625 132.585938 92.746094 C 131.941406 93.089844 131.320312 93.460938 130.714844 93.863281 C 130.109375 94.265625 129.527344 94.695312 128.964844 95.15625 C 128.402344 95.617188 127.863281 96.101562 127.351562 96.613281 C 126.835938 97.128906 126.347656 97.664062 125.886719 98.226562 C 125.425781 98.785156 124.992188 99.367188 124.585938 99.972656 C 124.183594 100.574219 123.808594 101.195312 123.464844 101.835938 C 123.121094 102.476562 122.8125 103.132812 122.53125 103.800781 C 122.253906 104.472656 122.007812 105.15625 121.796875 105.847656 C 121.585938 106.542969 121.40625 107.246094 121.265625 107.960938 C 121.121094 108.671875 121.015625 109.390625 120.941406 110.113281 C 120.871094 110.835938 120.835938 111.558594 120.832031 112.285156 C 120.832031 113.011719 120.867188 113.734375 120.9375 114.457031 C 121.007812 115.183594 121.113281 115.898438 121.253906 116.613281 C 121.394531 117.324219 121.570312 118.027344 121.78125 118.722656 C 121.992188 119.417969 122.234375 120.101562 122.511719 120.773438 C 122.789062 121.445312 123.101562 122.101562 123.441406 122.742188 C 123.785156 123.382812 124.15625 124.003906 124.558594 124.609375 C 124.960938 125.210938 125.394531 125.796875 125.855469 126.355469 C 126.316406 126.917969 126.800781 127.457031 127.316406 127.96875 C 127.828125 128.484375 128.363281 128.972656 128.925781 129.433594 C 129.488281 129.894531 130.070312 130.328125 130.671875 130.730469 C 131.277344 131.132812 131.898438 131.507812 132.539062 131.847656 C 133.179688 132.191406 133.835938 132.503906 134.507812 132.78125 C 135.175781 133.058594 135.859375 133.304688 136.554688 133.515625 C 137.25 133.726562 137.953125 133.902344 138.667969 134.042969 C 139.378906 134.183594 140.097656 134.292969 140.820312 134.363281 C 141.542969 134.433594 142.265625 134.46875 142.992188 134.46875 C 143.453125 134.46875 143.910156 134.515625 144.359375 134.605469 C 144.8125 134.695312 145.25 134.828125 145.675781 135.003906 C 146.097656 135.179688 146.503906 135.394531 146.886719 135.652344 C 147.269531 135.90625 147.621094 136.195312 147.949219 136.523438 C 148.273438 136.847656 148.5625 137.203125 148.820312 137.585938 C 149.074219 137.964844 149.289062 138.371094 149.464844 138.796875 C 149.644531 139.21875 149.777344 139.660156 149.867188 140.109375 C 149.957031 140.5625 150 141.015625 150 141.476562 C 150 141.9375 149.957031 142.394531 149.867188 142.84375 C 149.777344 143.296875 149.644531 143.734375 149.464844 144.160156 C 149.289062 144.585938 149.074219 144.988281 148.820312 145.371094 C 148.5625 145.753906 148.273438 146.105469 147.949219 146.433594 C 147.621094 146.757812 147.269531 147.046875 146.886719 147.304688 C 146.503906 147.558594 146.097656 147.773438 145.675781 147.953125 C 145.25 148.128906 144.8125 148.261719 144.359375 148.351562 C 143.910156 148.441406 143.453125 148.484375 142.992188 148.484375 C 142.53125 148.484375 142.078125 148.441406 141.625 148.351562 C 141.175781 148.261719 140.734375 148.128906 140.3125 147.953125 C 139.886719 147.773438 139.480469 147.558594 139.097656 147.304688 C 138.714844 147.046875 138.363281 146.757812 138.039062 146.433594 C 137.710938 146.105469 137.421875 145.753906 137.164062 145.371094 C 136.910156 144.988281 136.695312 144.585938 136.519531 144.160156 C 136.34375 143.734375 136.210938 143.296875 136.121094 142.84375 C 136.03125 142.394531 135.984375 141.9375 135.984375 141.476562 C 135.984375 140.980469 135.9375 140.488281 135.839844 140 C 135.742188 139.511719 135.597656 139.039062 135.40625 138.578125 C 135.21875 138.117188 134.984375 137.683594 134.707031 137.269531 C 134.433594 136.855469 134.117188 136.472656 133.765625 136.121094 C 133.414062 135.769531 133.03125 135.453125 132.617188 135.179688 C 132.203125 134.902344 131.769531 134.667969 131.308594 134.476562 C 130.847656 134.289062 130.375 134.144531 129.886719 134.046875 C 129.398438 133.949219 128.90625 133.902344 128.410156 133.902344 C 127.910156 133.902344 127.417969 133.949219 126.929688 134.046875 C 126.441406 134.144531 125.96875 134.289062 125.511719 134.476562 C 125.050781 134.667969 124.613281 134.902344 124.199219 135.179688 C 123.785156 135.453125 123.402344 135.769531 123.050781 136.121094 C 122.699219 136.472656 122.386719 136.855469 122.109375 137.269531 C 121.832031 137.683594 121.601562 138.117188 121.410156 138.578125 C 121.21875 139.039062 121.074219 139.511719 120.980469 140 C 120.882812 140.488281 120.832031 140.980469 120.832031 141.476562 C 120.832031 142.203125 120.867188 142.925781 120.941406 143.648438 C 121.011719 144.371094 121.117188 145.089844 121.257812 145.800781 C 121.402344 146.511719 121.578125 147.214844 121.789062 147.910156 C 122 148.605469 122.242188 149.285156 122.519531 149.957031 C 122.796875 150.628906 123.109375 151.28125 123.449219 151.921875 C 123.792969 152.5625 124.164062 153.183594 124.566406 153.789062 C 124.972656 154.390625 125.402344 154.972656 125.863281 155.535156 C 126.324219 156.097656 126.808594 156.632812 127.324219 157.144531 C 127.835938 157.660156 128.375 158.144531 128.933594 158.605469 C 129.496094 159.066406 130.078125 159.5 130.679688 159.902344 C 131.285156 160.304688 131.90625 160.675781 132.546875 161.019531 C 133.1875 161.363281 133.84375 161.671875 134.511719 161.949219 C 135.183594 162.226562 135.867188 162.472656 136.558594 162.683594 C 137.253906 162.894531 137.957031 163.070312 138.667969 163.210938 C 139.382812 163.351562 140.097656 163.457031 140.820312 163.53125 C 141.542969 163.601562 142.265625 163.636719 142.992188 163.636719 C 143.71875 163.636719 144.441406 163.601562 145.164062 163.53125 C 145.886719 163.457031 146.605469 163.351562 147.316406 163.210938 C 148.027344 163.070312 148.730469 162.894531 149.425781 162.683594 C 150.121094 162.472656 150.800781 162.226562 151.472656 161.949219 C 152.144531 161.671875 152.796875 161.363281 153.4375 161.019531 C 154.078125 160.675781 154.699219 160.304688 155.304688 159.902344 C 155.90625 159.5 156.488281 159.066406 157.050781 158.605469 C 157.609375 158.144531 158.148438 157.660156 158.660156 157.144531 C 159.175781 156.632812 159.660156 156.097656 160.121094 155.535156 C 160.582031 154.972656 161.015625 154.390625 161.417969 153.789062 C 161.820312 153.183594 162.191406 152.5625 162.535156 151.921875 C 162.878906 151.28125 163.1875 150.628906 163.464844 149.957031 C 163.742188 149.285156 163.988281 148.605469 164.199219 147.910156 C 164.40625 147.214844 164.585938 146.511719 164.726562 145.800781 C 164.867188 145.089844 164.972656 144.371094 165.042969 143.648438 C 165.117188 142.925781 165.152344 142.203125 165.152344 141.476562 C 165.152344 140.75 165.117188 140.027344 165.042969 139.304688 C 164.972656 138.582031 164.867188 137.867188 164.726562 137.152344 C 164.585938 136.441406 164.40625 135.738281 164.199219 135.042969 C 163.988281 134.351562 163.742188 133.667969 163.464844 132.996094 C 163.1875 132.328125 162.878906 131.671875 162.535156 131.03125 C 162.191406 130.390625 161.820312 129.769531 161.417969 129.167969 C 161.015625 128.5625 160.582031 127.980469 160.121094 127.417969 C 159.660156 126.859375 159.175781 126.320312 158.660156 125.808594 C 158.148438 125.296875 157.609375 124.808594 157.050781 124.347656 C 156.488281 123.886719 155.90625 123.457031 155.304688 123.050781 C 154.699219 122.648438 154.078125 122.277344 153.4375 121.933594 C 152.796875 121.59375 152.144531 121.28125 151.472656 121.003906 C 150.800781 120.726562 150.121094 120.484375 149.425781 120.273438 C 148.730469 120.0625 148.027344 119.886719 147.316406 119.742188 C 146.605469 119.601562 145.886719 119.496094 145.164062 119.425781 C 144.441406 119.355469 143.71875 119.316406 142.992188 119.316406 C 142.550781 119.285156 142.121094 119.214844 141.695312 119.097656 C 141.269531 118.984375 140.855469 118.832031 140.457031 118.644531 C 140.0625 118.453125 139.683594 118.226562 139.332031 117.964844 C 138.976562 117.703125 138.648438 117.410156 138.347656 117.085938 C 138.046875 116.765625 137.78125 116.417969 137.546875 116.042969 C 137.308594 115.671875 137.113281 115.277344 136.953125 114.867188 C 136.789062 114.457031 136.667969 114.035156 136.585938 113.601562 C 136.503906 113.167969 136.464844 112.734375 136.464844 112.292969 C 136.464844 111.851562 136.503906 111.414062 136.585938 110.980469 C 136.667969 110.546875 136.789062 110.125 136.953125 109.714844 C 137.113281 109.304688 137.308594 108.914062 137.546875 108.539062 C 137.78125 108.167969 138.046875 107.820312 138.347656 107.496094 C 138.648438 107.171875 138.976562 106.878906 139.332031 106.617188 C 139.683594 106.359375 140.0625 106.132812 140.457031 105.941406 C 140.855469 105.75 141.269531 105.597656 141.695312 105.484375 C 142.121094 105.371094 142.550781 105.296875 142.992188 105.265625 Z M 142.992188 105.378906 " fill-opacity="1" fill-rule="nonzero"/></svg>